<svg height="1024" width="1024">
<circle cx=" 450" cy="658" r="347" fill="rgb(81, 74, 28)" fill-opacity = "8.37804028254709680000e-01" />
<circle cx=" 57" cy="371" r="386" fill="rgb(75, 43, 48)" fill-opacity = "2.32899205935787950000e-01" />
<circle cx=" 386" cy="782" r="315" fill="rgb(244, 67, 4)" fill-opacity = "6.82882898805027060000e-01" />
<circle cx=" 11" cy="400" r="383" fill="rgb(5, 191, 28)" fill-opacity = "6.75486936471363380000e-01" />
<circle cx=" 763" cy="436" r="189" fill="rgb(121, 158, 19)" fill-opacity = "2.10454944688263090000e-01" />
<circle cx=" 920" cy="688" r="379" fill="rgb(113, 31, 16)" fill-opacity = "7.97561799010799490000e-01" />
<circle cx=" 850" cy="951" r="93" fill="rgb(117, 217, 65)" fill-opacity = "3.55416037581260950000e-01" />
<circle cx=" 34" cy="828" r="31" fill="rgb(177, 154, 54)" fill-opacity = "8.07697560184004850000e-01" />
<circle cx=" 913" cy="133" r="37" fill="rgb(246, 118, 105)" fill-opacity = "6.37747138848976380000e-01" />
<circle cx=" 257" cy="468" r="374" fill="rgb(134, 121, 181)" fill-opacity = "4.02322565602229340000e-01" />
<circle cx=" 737" cy="913" r="102" fill="rgb(200, 50, 43)" fill-opacity = "4.40156527107521840000e-01" />
<circle cx=" 632" cy="287" r="373" fill="rgb(91, 169, 44)" fill-opacity = "2.16242875387947730000e-01" />
<circle cx=" 84" cy="71" r="227" fill="rgb(222, 59, 28)" fill-opacity = "8.54533334559690940000e-01" />
<circle cx=" 128" cy="99" r="241" fill="rgb(204, 51, 72)" fill-opacity = "7.04034488463718190000e-01" />
<circle cx=" 694" cy="75" r="78" fill="rgb(60, 38, 90)" fill-opacity = "8.60370442757000700000e-01" />
<circle cx=" 108" cy="239" r="236" fill="rgb(63, 3, 73)" fill-opacity = "5.35627626644335390000e-01" />
<circle cx=" 296" cy="881" r="398" fill="rgb(98, 33, 87)" fill-opacity = "8.51206004174058340000e-01" />
<circle cx=" 513" cy="503" r="371" fill="rgb(110, 195, 92)" fill-opacity = "9.35468684665139660000e-01" />
<circle cx=" 579" cy="492" r="32" fill="rgb(143, 126, 156)" fill-opacity = "6.77994526874405420000e-01" />
<circle cx=" 135" cy="203" r="217" fill="rgb(156, 167, 169)" fill-opacity = "3.79798803317703330000e-01" />
<circle cx=" 399" cy="266" r="48" fill="rgb(141, 97, 123)" fill-opacity = "2.10719573190898400000e-01" />
<circle cx=" 273" cy="585" r="220" fill="rgb(192, 117, 131)" fill-opacity = "5.89398963344813790000e-01" />
<circle cx=" 182" cy="249" r="374" fill="rgb(83, 26, 206)" fill-opacity = "6.92426666509725400000e-01" />
<circle cx=" 572" cy="54" r="281" fill="rgb(150, 29, 33)" fill-opacity = "4.45704323428480100000e-01" />
<circle cx=" 832" cy="174" r="231" fill="rgb(140, 142, 18)" fill-opacity = "9.75711327040815310000e-01" />
<circle cx=" 174" cy="714" r="15" fill="rgb(255, 23, 27)" fill-opacity = "2.12683068203943340000e-01" />
<circle cx=" 65" cy="694" r="158" fill="rgb(7, 252, 188)" fill-opacity = "3.81500012514282450000e-01" />
<circle cx=" 437" cy="163" r="346" fill="rgb(119, 8, 6)" fill-opacity = "3.07308997048278080000e-01" />
<circle cx=" 930" cy="328" r="239" fill="rgb(119, 101, 134)" fill-opacity = "1.96682418010019510000e-01" />
<circle cx=" 539" cy="398" r="38" fill="rgb(152, 67, 129)" fill-opacity = "9.32499613326549290000e-01" />
<circle cx=" 530" cy="747" r="279" fill="rgb(49, 222, 64)" fill-opacity = "1.11355556389362680000e-01" />
<circle cx=" 413" cy="973" r="347" fill="rgb(122, 8, 79)" fill-opacity = "4.58728123839650340000e-01" />
<circle cx=" 9" cy="117" r="298" fill="rgb(42, 95, 184)" fill-opacity = "4.08169609273275840000e-01" />
<circle cx=" 139" cy="171" r="14" fill="rgb(79, 1, 61)" fill-opacity = "8.86433302885765610000e-01" />
<circle cx=" 911" cy="344" r="43" fill="rgb(142, 156, 79)" fill-opacity = "4.78014009977207670000e-01" />
<circle cx=" 253" cy="349" r="271" fill="rgb(9, 247, 112)" fill-opacity = "4.29215064799240760000e-01" />
<circle cx=" 697" cy="263" r="377" fill="rgb(171, 46, 4)" fill-opacity = "1.61395962537149720000e-01" />
<circle cx=" 714" cy="297" r="375" fill="rgb(39, 120, 117)" fill-opacity = "5.46300350577020310000e-02" />
<circle cx=" 322" cy="565" r="189" fill="rgb(142, 132, 50)" fill-opacity = "6.30994264784897840000e-01" />
<circle cx=" 807" cy="310" r="215" fill="rgb(2, 208, 168)" fill-opacity = "8.63291030058053190000e-02" />
<circle cx=" 89" cy="216" r="286" fill="rgb(80, 234, 95)" fill-opacity = "1.44448997199507100000e-01" />
<circle cx=" 915" cy="645" r="391" fill="rgb(110, 228, 207)" fill-opacity = "8.32273773788629880000e-01" />
<circle cx=" 520" cy="939" r="269" fill="rgb(34, 96, 32)" fill-opacity = "3.82095410339087230000e-01" />
<circle cx=" 386" cy="420" r="129" fill="rgb(158, 123, 45)" fill-opacity = "4.80168829256937930000e-01" />
<circle cx=" 978" cy="96" r="136" fill="rgb(110, 9, 233)" fill-opacity = "8.08852933418384710000e-01" />
<circle cx=" 651" cy="499" r="139" fill="rgb(47, 170, 47)" fill-opacity = "4.22225523937426410000e-01" />
<circle cx=" 502" cy="387" r="266" fill="rgb(175, 101, 94)" fill-opacity = "1.77888834711570580000e-01" />
<circle cx=" 232" cy="207" r="64" fill="rgb(208, 7, 27)" fill-opacity = "2.45251308770403130000e-01" />
<circle cx=" 246" cy="385" r="33" fill="rgb(247, 116, 239)" fill-opacity = "5.46817826552437490000e-01" />
<circle cx=" 385" cy="925" r="288" fill="rgb(217, 250, 23)" fill-opacity = "9.16532335362556070000e-01" />
<circle cx=" 22" cy="112" r="252" fill="rgb(181, 32, 16)" fill-opacity = "7.37693590146527130000e-01" />
<circle cx=" 802" cy="414" r="181" fill="rgb(163, 81, 147)" fill-opacity = "5.80745395293496890000e-01" />
<circle cx=" 831" cy="75" r="256" fill="rgb(17, 243, 187)" fill-opacity = "4.82805775268206450000e-01" />
<circle cx=" 881" cy="631" r="24" fill="rgb(21, 212, 215)" fill-opacity = "1.38334770458407250000e-01" />
<circle cx=" 117" cy="669" r="38" fill="rgb(196, 83, 255)" fill-opacity = "1.38610511905874920000e-01" />
<circle cx=" 745" cy="319" r="318" fill="rgb(44, 18, 34)" fill-opacity = "7.57003590218237930000e-01" />
<circle cx=" 758" cy="241" r="140" fill="rgb(87, 47, 173)" fill-opacity = "4.33171062181447520000e-01" />
<circle cx=" 67" cy="183" r="106" fill="rgb(206, 145, 203)" fill-opacity = "3.56054027532165750000e-01" />
<circle cx=" 883" cy="23" r="118" fill="rgb(43, 218, 131)" fill-opacity = "6.06365286124602500000e-01" />
<circle cx=" 188" cy="546" r="193" fill="rgb(187, 64, 237)" fill-opacity = "6.81772964645145140000e-01" />
<circle cx=" 11" cy="575" r="272" fill="rgb(130, 191, 192)" fill-opacity = "5.83089664922337270000e-01" />
<circle cx=" 509" cy="782" r="258" fill="rgb(173, 223, 131)" fill-opacity = "6.52099522374114840000e-01" />
<circle cx=" 784" cy="500" r="337" fill="rgb(230, 232, 247)" fill-opacity = "3.24633188569629640000e-02" />
<circle cx=" 170" cy="954" r="304" fill="rgb(147, 132, 71)" fill-opacity = "4.34870074311369150000e-01" />
<circle cx=" 276" cy="488" r="126" fill="rgb(252, 172, 201)" fill-opacity = "3.99093044209415160000e-01" />
<circle cx=" 930" cy="926" r="387" fill="rgb(47, 191, 221)" fill-opacity = "3.00700376600941510000e-01" />
<circle cx=" 330" cy="165" r="175" fill="rgb(242, 141, 208)" fill-opacity = "7.13615625349748760000e-01" />
<circle cx=" 731" cy="302" r="200" fill="rgb(32, 55, 81)" fill-opacity = "5.13775879055362590000e-02" />
<circle cx=" 507" cy="473" r="250" fill="rgb(112, 46, 179)" fill-opacity = "2.26070769184387290000e-01" />
<circle cx=" 551" cy="881" r="397" fill="rgb(129, 61, 118)" fill-opacity = "7.70810891121155530000e-01" />
<circle cx=" 144" cy="42" r="147" fill="rgb(150, 31, 100)" fill-opacity = "1.29840970209240680000e-01" />
<circle cx=" 405" cy="676" r="395" fill="rgb(11, 36, 53)" fill-opacity = "2.02633726006805400000e-01" />
<circle cx=" 352" cy="126" r="228" fill="rgb(219, 59, 197)" fill-opacity = "1.51459345914612080000e-01" />
<circle cx=" 527" cy="979" r="192" fill="rgb(32, 255, 169)" fill-opacity = "8.35461300246240550000e-01" />
<circle cx=" 78" cy="922" r="321" fill="rgb(150, 215, 200)" fill-opacity = "6.81539639232167540000e-01" />
<circle cx=" 417" cy="774" r="249" fill="rgb(150, 209, 81)" fill-opacity = "4.55706489123341110000e-01" />
<circle cx=" 460" cy="979" r="115" fill="rgb(86, 188, 169)" fill-opacity = "8.35461300246240550000e-01" />
<circle cx=" 701" cy="221" r="135" fill="rgb(157, 211, 169)" fill-opacity = "9.60934605582540740000e-01" />
<circle cx=" 194" cy="92" r="141" fill="rgb(220, 197, 247)" fill-opacity = "8.37070572354309710000e-01" />
<circle cx=" 151" cy="427" r="359" fill="rgb(150, 143, 100)" fill-opacity = "6.07321033066769100000e-01" />
<circle cx=" 915" cy="445" r="385" fill="rgb(55, 162, 26)" fill-opacity = "4.17627346783329580000e-01" />
<circle cx=" 601" cy="712" r="250" fill="rgb(10, 43, 190)" fill-opacity = "7.44895824714821080000e-01" />
<circle cx=" 199" cy="461" r="1" fill="rgb(49, 13, 81)" fill-opacity = "9.39057318073205800000e-01" />
<circle cx=" 330" cy="165" r="175" fill="rgb(29, 145, 208)" fill-opacity = "5.95545629815361190000e-01" />
<circle cx=" 823" cy="926" r="322" fill="rgb(127, 191, 190)" fill-opacity = "3.21691551221983780000e-01" />
<circle cx=" 80" cy="497" r="126" fill="rgb(141, 206, 124)" fill-opacity = "7.79864537440824180000e-02" />
<circle cx=" 170" cy="703" r="44" fill="rgb(125, 109, 53)" fill-opacity = "8.58601703818675510000e-02" />
<circle cx=" 756" cy="619" r="337" fill="rgb(221, 214, 252)" fill-opacity = "3.29088277528764020000e-02" />
<circle cx=" 509" cy="478" r="258" fill="rgb(181, 192, 168)" fill-opacity = "1.42764151212509070000e-01" />
<circle cx=" 239" cy="155" r="189" fill="rgb(30, 90, 62)" fill-opacity = "1.28620834785162510000e-02" />
<circle cx=" 445" cy="124" r="107" fill="rgb(44, 254, 197)" fill-opacity = "2.25527688231486720000e-01" />
<circle cx=" 999" cy="718" r="202" fill="rgb(43, 207, 77)" fill-opacity = "3.31872952861627990000e-01" />
<circle cx=" 23" cy="527" r="325" fill="rgb(195, 225, 123)" fill-opacity = "4.14222121195686910000e-01" />
<circle cx=" 233" cy="241" r="374" fill="rgb(78, 115, 221)" fill-opacity = "2.17425968633545350000e-01" />
<circle cx=" 967" cy="396" r="11" fill="rgb(44, 142, 46)" fill-opacity = "2.84732987642757340000e-01" />
<circle cx=" 547" cy="568" r="93" fill="rgb(68, 210, 255)" fill-opacity = "8.82286293024238440000e-01" />
<circle cx=" 327" cy="719" r="218" fill="rgb(254, 61, 83)" fill-opacity = "2.11609501720841920000e-01" />
<circle cx=" 1" cy="259" r="331" fill="rgb(126, 125, 134)" fill-opacity = "1.51046783662260210000e-01" />
<circle cx=" 448" cy="196" r="344" fill="rgb(53, 75, 152)" fill-opacity = "3.36213490796252850000e-01" />
<circle cx=" 919" cy="513" r="11" fill="rgb(27, 120, 218)" fill-opacity = "1.06331259723802420000e-01" />
<circle cx=" 534" cy="654" r="288" fill="rgb(26, 21, 23)" fill-opacity = "2.47009446584295580000e-01" />
<circle cx=" 450" cy="713" r="310" fill="rgb(98, 225, 177)" fill-opacity = "5.84520105270581510000e-01" />
<circle cx=" 102" cy="843" r="6" fill="rgb(141, 98, 27)" fill-opacity = "2.45251308770403130000e-01" />
<circle cx=" 141" cy="969" r="136" fill="rgb(175, 206, 48)" fill-opacity = "6.39804660685589940000e-01" />
<circle cx=" 333" cy="864" r="87" fill="rgb(119, 52, 106)" fill-opacity = "4.22225523937426410000e-01" />
<circle cx=" 853" cy="117" r="301" fill="rgb(151, 64, 98)" fill-opacity = "5.86300025797887870000e-01" />
<circle cx=" 877" cy="759" r="335" fill="rgb(3, 236, 6)" fill-opacity = "8.46399030035909220000e-01" />
<circle cx=" 790" cy="582" r="390" fill="rgb(151, 245, 47)" fill-opacity = "5.00222367120509270000e-01" />
<circle cx=" 495" cy="905" r="278" fill="rgb(231, 37, 151)" fill-opacity = "5.45674278913992340000e-01" />
<circle cx=" 89" cy="216" r="127" fill="rgb(149, 54, 52)" fill-opacity = "6.19599053721816780000e-01" />
<circle cx=" 462" cy="348" r="311" fill="rgb(203, 47, 60)" fill-opacity = "1.45380855999089680000e-01" />
<circle cx=" 314" cy="498" r="206" fill="rgb(95, 46, 229)" fill-opacity = "6.37881432695814100000e-01" />
<circle cx=" 717" cy="503" r="337" fill="rgb(129, 136, 117)" fill-opacity = "2.84192662206144140000e-01" />
<circle cx=" 842" cy="503" r="14" fill="rgb(219, 229, 142)" fill-opacity = "1.61395962537149720000e-01" />
<circle cx=" 797" cy="75" r="273" fill="rgb(194, 131, 238)" fill-opacity = "3.01416315129025670000e-01" />
<circle cx=" 473" cy="948" r="96" fill="rgb(142, 116, 141)" fill-opacity = "2.35875452918666630000e-01" />
<circle cx=" 443" cy="482" r="6" fill="rgb(122, 238, 161)" fill-opacity = "8.03397595400778370000e-01" />
<circle cx=" 375" cy="45" r="131" fill="rgb(194, 123, 182)" fill-opacity = "1.94032292169949550000e-01" />
<circle cx=" 105" cy="967" r="347" fill="rgb(44, 51, 105)" fill-opacity = "9.12129067482069010000e-01" />
<circle cx=" 34" cy="747" r="324" fill="rgb(167, 60, 235)" fill-opacity = "1.11355556389362680000e-01" />
<circle cx=" 881" cy="17" r="356" fill="rgb(93, 43, 4)" fill-opacity = "4.69762847926347820000e-01" />
<circle cx=" 138" cy="240" r="161" fill="rgb(190, 177, 148)" fill-opacity = "9.23507895756377590000e-01" />
<circle cx=" 975" cy="456" r="270" fill="rgb(137, 142, 155)" fill-opacity = "5.32466142378098750000e-01" />
<circle cx=" 500" cy="687" r="129" fill="rgb(70, 119, 138)" fill-opacity = "2.66412290822692910000e-01" />
<circle cx=" 125" cy="20" r="352" fill="rgb(38, 145, 90)" fill-opacity = "2.12683068203943340000e-01" />
<circle cx=" 883" cy="637" r="277" fill="rgb(105, 33, 72)" fill-opacity = "2.01872069319267490000e-01" />
<circle cx=" 675" cy="890" r="350" fill="rgb(149, 124, 50)" fill-opacity = "8.77540373412674770000e-01" />
<circle cx=" 969" cy="765" r="339" fill="rgb(83, 190, 75)" fill-opacity = "2.85584479190785330000e-01" />
<circle cx=" 86" cy="142" r="197" fill="rgb(61, 127, 134)" fill-opacity = "6.74834173419116110000e-01" />
<circle cx=" 5" cy="438" r="240" fill="rgb(209, 53, 48)" fill-opacity = "4.36582622951107170000e-01" />
<circle cx=" 448" cy="403" r="109" fill="rgb(156, 132, 27)" fill-opacity = "7.00353561272143210000e-01" />
<circle cx=" 355" cy="886" r="62" fill="rgb(63, 126, 38)" fill-opacity = "6.86542840006455710000e-01" />
<circle cx=" 457" cy="380" r="371" fill="rgb(71, 232, 192)" fill-opacity = "9.07435177658442170000e-01" />
<circle cx=" 964" cy="680" r="74" fill="rgb(251, 33, 45)" fill-opacity = "5.88047228150216260000e-01" />
<circle cx=" 868" cy="423" r="337" fill="rgb(71, 133, 73)" fill-opacity = "5.35627626644335390000e-01" />
<circle cx=" 694" cy="345" r="376" fill="rgb(152, 231, 90)" fill-opacity = "9.00691782818924700000e-01" />
<circle cx=" 519" cy="220" r="83" fill="rgb(191, 125, 72)" fill-opacity = "5.65439327956618330000e-01" />
<circle cx=" 836" cy="764" r="227" fill="rgb(172, 143, 7)" fill-opacity = "6.63849158849897150000e-01" />
<circle cx=" 632" cy="704" r="275" fill="rgb(207, 89, 13)" fill-opacity = "5.22879019729692640000e-01" />
<circle cx=" 922" cy="841" r="257" fill="rgb(160, 50, 200)" fill-opacity = "3.20949983357231790000e-01" />
<circle cx=" 155" cy="34" r="167" fill="rgb(255, 235, 166)" fill-opacity = "8.66186351191178260000e-04" />
<circle cx=" 416" cy="88" r="102" fill="rgb(85, 22, 186)" fill-opacity = "5.31672401885222580000e-01" />
<circle cx=" 666" cy="238" r="309" fill="rgb(255, 213, 252)" fill-opacity = "1.79860469605702460000e-01" />
<circle cx=" 300" cy="916" r="285" fill="rgb(24, 38, 65)" fill-opacity = "2.84274106161051420000e-01" />
<circle cx=" 799" cy="626" r="319" fill="rgb(29, 91, 4)" fill-opacity = "6.88677366334338630000e-01" />
<circle cx=" 363" cy="243" r="18" fill="rgb(153, 190, 27)" fill-opacity = "2.10454944688263090000e-01" />
<circle cx=" 982" cy="400" r="51" fill="rgb(233, 50, 72)" fill-opacity = "4.93080710050815330000e-01" />
<circle cx=" 415" cy="750" r="312" fill="rgb(123, 37, 130)" fill-opacity = "6.82882898805027060000e-01" />
<circle cx=" 527" cy="581" r="105" fill="rgb(116, 74, 71)" fill-opacity = "7.71643751204039500000e-01" />
<circle cx=" 592" cy="654" r="369" fill="rgb(134, 190, 8)" fill-opacity = "8.37804028254709680000e-01" />
</svg>
