<svg height="1024" width="1024">
<circle cx=" 890" cy="750" r="322" fill="rgb(134, 34, 8)" fill-opacity = "2.90063490756416350000e-01" />
<circle cx=" 264" cy="812" r="259" fill="rgb(101, 185, 111)" fill-opacity = "6.43857328957125660000e-01" />
<circle cx=" 522" cy="903" r="272" fill="rgb(105, 211, 71)" fill-opacity = "9.99334753325471950000e-01" />
<circle cx=" 886" cy="910" r="230" fill="rgb(65, 12, 50)" fill-opacity = "6.62168479213393720000e-01" />
<circle cx=" 211" cy="687" r="189" fill="rgb(218, 92, 35)" fill-opacity = "1.37864071007096630000e-02" />
<circle cx=" 881" cy="217" r="115" fill="rgb(113, 62, 23)" fill-opacity = "6.88825158331682900000e-02" />
<circle cx=" 149" cy="1" r="38" fill="rgb(111, 155, 41)" fill-opacity = "3.21430280452022380000e-01" />
<circle cx=" 878" cy="799" r="16" fill="rgb(110, 59, 186)" fill-opacity = "9.49485263871470590000e-01" />
<circle cx=" 92" cy="665" r="268" fill="rgb(18, 40, 29)" fill-opacity = "2.98397816916216030000e-01" />
<circle cx=" 257" cy="761" r="360" fill="rgb(62, 29, 101)" fill-opacity = "3.11363946999272830000e-01" />
<circle cx=" 996" cy="841" r="209" fill="rgb(188, 60, 13)" fill-opacity = "7.40990021259989360000e-01" />
<circle cx=" 632" cy="15" r="101" fill="rgb(203, 226, 165)" fill-opacity = "3.08999735540374630000e-01" />
<circle cx=" 84" cy="731" r="319" fill="rgb(149, 219, 28)" fill-opacity = "5.68970408777130570000e-01" />
<circle cx=" 921" cy="353" r="250" fill="rgb(160, 72, 164)" fill-opacity = "3.68793971622235930000e-01" />
<circle cx=" 377" cy="305" r="360" fill="rgb(138, 131, 90)" fill-opacity = "9.43053717780435010000e-01" />
<circle cx=" 517" cy="836" r="10" fill="rgb(233, 211, 73)" fill-opacity = "8.32707539326331460000e-01" />
<circle cx=" 456" cy="377" r="398" fill="rgb(13, 97, 58)" fill-opacity = "5.56473053621972410000e-01" />
<circle cx=" 733" cy="658" r="349" fill="rgb(110, 252, 47)" fill-opacity = "9.26059176751928840000e-01" />
<circle cx=" 144" cy="153" r="308" fill="rgb(177, 202, 99)" fill-opacity = "8.33028780330368200000e-01" />
<circle cx=" 618" cy="424" r="179" fill="rgb(45, 171, 107)" fill-opacity = "9.08324278459105900000e-01" />
<circle cx=" 478" cy="771" r="239" fill="rgb(237, 27, 63)" fill-opacity = "2.10719573190898400000e-01" />
<circle cx=" 902" cy="433" r="211" fill="rgb(184, 117, 44)" fill-opacity = "7.47158828934818330000e-01" />
<circle cx=" 534" cy="398" r="240" fill="rgb(126, 31, 83)" fill-opacity = "8.51597461725008830000e-01" />
<circle cx=" 684" cy="960" r="140" fill="rgb(192, 212, 81)" fill-opacity = "3.63067652601258840000e-01" />
<circle cx=" 210" cy="551" r="400" fill="rgb(105, 245, 110)" fill-opacity = "2.01872069319267490000e-01" />
<circle cx=" 870" cy="35" r="15" fill="rgb(9, 168, 35)" fill-opacity = "6.00155547853443940000e-01" />
<circle cx=" 962" cy="789" r="205" fill="rgb(139, 252, 135)" fill-opacity = "7.36711070201527150000e-01" />
<circle cx=" 455" cy="101" r="353" fill="rgb(154, 65, 84)" fill-opacity = "7.83844207415880230000e-02" />
<circle cx=" 654" cy="328" r="132" fill="rgb(206, 30, 105)" fill-opacity = "7.08286836685915190000e-01" />
<circle cx=" 66" cy="789" r="349" fill="rgb(4, 15, 246)" fill-opacity = "1.32024484534449370000e-01" />
<circle cx=" 674" cy="555" r="342" fill="rgb(246, 114, 64)" fill-opacity = "8.34777764255163920000e-01" />
<circle cx=" 392" cy="42" r="26" fill="rgb(74, 8, 185)" fill-opacity = "5.83887731674840090000e-01" />
<circle cx=" 641" cy="468" r="8" fill="rgb(91, 56, 238)" fill-opacity = "7.38904960174908700000e-02" />
<circle cx=" 956" cy="922" r="282" fill="rgb(146, 236, 50)" fill-opacity = "2.74458024898333490000e-01" />
<circle cx=" 497" cy="876" r="397" fill="rgb(142, 156, 128)" fill-opacity = "4.78014009977207670000e-01" />
<circle cx=" 528" cy="914" r="379" fill="rgb(50, 55, 1)" fill-opacity = "8.59019289736431270000e-02" />
<circle cx=" 199" cy="811" r="137" fill="rgb(247, 46, 49)" fill-opacity = "9.77773983335099570000e-01" />
<circle cx=" 209" cy="359" r="126" fill="rgb(39, 136, 117)" fill-opacity = "8.08559190826189100000e-01" />
<circle cx=" 410" cy="648" r="133" fill="rgb(142, 230, 25)" fill-opacity = "7.95460068291788610000e-01" />
<circle cx=" 546" cy="511" r="67" fill="rgb(143, 47, 124)" fill-opacity = "1.46599356263392040000e-01" />
<circle cx=" 89" cy="216" r="4" fill="rgb(96, 129, 143)" fill-opacity = "7.66568897961189100000e-01" />
<circle cx=" 487" cy="779" r="71" fill="rgb(133, 158, 35)" fill-opacity = "3.25031590709465630000e-01" />
<circle cx=" 296" cy="163" r="398" fill="rgb(197, 189, 49)" fill-opacity = "5.00222367120509270000e-01" />
<circle cx=" 555" cy="981" r="134" fill="rgb(150, 123, 106)" fill-opacity = "3.33490067289085920000e-01" />
<circle cx=" 99" cy="945" r="150" fill="rgb(57, 102, 12)" fill-opacity = "2.20036499316697890000e-01" />
<circle cx=" 304" cy="840" r="197" fill="rgb(167, 155, 106)" fill-opacity = "6.30300825210765800000e-01" />
<circle cx=" 809" cy="173" r="153" fill="rgb(199, 206, 41)" fill-opacity = "5.20494403794291570000e-02" />
<circle cx=" 459" cy="925" r="268" fill="rgb(118, 55, 47)" fill-opacity = "5.53169979307338360000e-01" />
<circle cx=" 156" cy="401" r="62" fill="rgb(61, 126, 25)" fill-opacity = "5.07167366432807580000e-01" />
<circle cx=" 599" cy="925" r="6" fill="rgb(188, 172, 222)" fill-opacity = "7.40814311135409300000e-01" />
<circle cx=" 447" cy="484" r="60" fill="rgb(40, 51, 27)" fill-opacity = "9.25420275326104940000e-01" />
<circle cx=" 869" cy="860" r="86" fill="rgb(8, 227, 241)" fill-opacity = "2.21106059985423540000e-01" />
<circle cx=" 299" cy="625" r="398" fill="rgb(118, 231, 73)" fill-opacity = "9.53772835143509080000e-01" />
<circle cx=" 636" cy="548" r="245" fill="rgb(21, 95, 111)" fill-opacity = "4.60801676264776640000e-01" />
<circle cx=" 76" cy="83" r="145" fill="rgb(235, 168, 30)" fill-opacity = "9.73785096481649680000e-02" />
<circle cx=" 902" cy="467" r="348" fill="rgb(44, 70, 158)" fill-opacity = "4.46765341661267360000e-01" />
<circle cx=" 368" cy="752" r="209" fill="rgb(87, 190, 140)" fill-opacity = "9.61754829783565410000e-02" />
<circle cx=" 965" cy="337" r="382" fill="rgb(166, 132, 221)" fill-opacity = "7.24268094169207680000e-01" />
<circle cx=" 951" cy="474" r="327" fill="rgb(98, 1, 235)" fill-opacity = "4.67023508294368560000e-02" />
<circle cx=" 629" cy="115" r="234" fill="rgb(44, 152, 42)" fill-opacity = "3.10795264721309030000e-01" />
<circle cx=" 239" cy="575" r="394" fill="rgb(96, 49, 71)" fill-opacity = "2.69181525069814850000e-01" />
<circle cx=" 958" cy="215" r="353" fill="rgb(247, 157, 202)" fill-opacity = "2.97065999530446770000e-01" />
<circle cx=" 747" cy="79" r="357" fill="rgb(227, 34, 79)" fill-opacity = "8.58438836561955740000e-01" />
<circle cx=" 738" cy="717" r="11" fill="rgb(22, 193, 233)" fill-opacity = "8.53493159506556800000e-01" />
<circle cx=" 115" cy="336" r="259" fill="rgb(68, 228, 124)" fill-opacity = "7.79864537440824180000e-02" />
<circle cx=" 975" cy="795" r="24" fill="rgb(208, 191, 215)" fill-opacity = "1.60406113908619500000e-01" />
<circle cx=" 9" cy="165" r="142" fill="rgb(92, 149, 29)" fill-opacity = "2.95018679446448220000e-02" />
<circle cx=" 646" cy="759" r="387" fill="rgb(61, 189, 81)" fill-opacity = "8.59333552707436170000e-01" />
<circle cx=" 628" cy="868" r="347" fill="rgb(112, 76, 102)" fill-opacity = "8.40986481804586020000e-01" />
<circle cx=" 345" cy="705" r="141" fill="rgb(187, 211, 67)" fill-opacity = "7.70810891121155530000e-01" />
<circle cx=" 692" cy="398" r="139" fill="rgb(157, 122, 50)" fill-opacity = "4.41902210499463430000e-01" />
<circle cx=" 801" cy="63" r="152" fill="rgb(86, 168, 186)" fill-opacity = "3.86843683380287520000e-01" />
<circle cx=" 897" cy="202" r="355" fill="rgb(168, 157, 163)" fill-opacity = "1.51459345914612080000e-01" />
<circle cx=" 783" cy="578" r="192" fill="rgb(245, 156, 233)" fill-opacity = "5.67064281413484080000e-01" />
<circle cx=" 459" cy="24" r="167" fill="rgb(42, 8, 81)" fill-opacity = "2.59689877957495430000e-01" />
<circle cx=" 795" cy="771" r="385" fill="rgb(248, 195, 84)" fill-opacity = "5.60630078751110260000e-01" />
<circle cx=" 968" cy="1005" r="28" fill="rgb(32, 223, 15)" fill-opacity = "2.53393411540746350000e-01" />
<circle cx=" 897" cy="126" r="218" fill="rgb(78, 196, 220)" fill-opacity = "6.94475709792061750000e-02" />
<circle cx=" 158" cy="51" r="9" fill="rgb(82, 200, 233)" fill-opacity = "4.97060940820309440000e-01" />
<circle cx=" 499" cy="280" r="279" fill="rgb(136, 27, 50)" fill-opacity = "3.42871423038445760000e-01" />
<circle cx=" 336" cy="287" r="326" fill="rgb(134, 245, 53)" fill-opacity = "2.53131540295444600000e-01" />
<circle cx=" 672" cy="645" r="250" fill="rgb(10, 185, 57)" fill-opacity = "7.03518886636092410000e-01" />
<circle cx=" 789" cy="836" r="387" fill="rgb(173, 207, 105)" fill-opacity = "3.16712878018087010000e-01" />
<circle cx=" 223" cy="469" r="397" fill="rgb(175, 154, 58)" fill-opacity = "4.39034628487045890000e-01" />
<circle cx=" 98" cy="2" r="289" fill="rgb(246, 100, 207)" fill-opacity = "7.31515828816158290000e-01" />
<circle cx=" 108" cy="488" r="259" fill="rgb(155, 72, 1)" fill-opacity = "8.07977418254290480000e-01" />
<circle cx=" 33" cy="225" r="306" fill="rgb(237, 252, 245)" fill-opacity = "6.98957829840205490000e-02" />
<circle cx=" 451" cy="168" r="125" fill="rgb(145, 129, 225)" fill-opacity = "3.89439576100355290000e-01" />
<circle cx=" 826" cy="965" r="238" fill="rgb(120, 42, 158)" fill-opacity = "5.48736776465894140000e-01" />
<circle cx=" 71" cy="574" r="33" fill="rgb(75, 176, 96)" fill-opacity = "1.50314248086345080000e-02" />
<circle cx=" 816" cy="204" r="153" fill="rgb(187, 97, 63)" fill-opacity = "7.80574849208918620000e-01" />
<circle cx=" 960" cy="613" r="328" fill="rgb(169, 133, 77)" fill-opacity = "2.39028720428785090000e-01" />
<circle cx=" 102" cy="851" r="341" fill="rgb(109, 65, 100)" fill-opacity = "1.47240542668613640000e-01" />
<circle cx=" 694" cy="241" r="41" fill="rgb(118, 115, 195)" fill-opacity = "9.61754829783565410000e-02" />
<circle cx=" 58" cy="188" r="320" fill="rgb(167, 190, 46)" fill-opacity = "1.25999565567016520000e-02" />
<circle cx=" 885" cy="641" r="142" fill="rgb(15, 40, 178)" fill-opacity = "4.37470032681377410000e-01" />
<circle cx=" 791" cy="631" r="169" fill="rgb(64, 185, 250)" fill-opacity = "1.16389738953514900000e-01" />
<circle cx=" 987" cy="612" r="10" fill="rgb(187, 3, 194)" fill-opacity = "2.77770977709264950000e-01" />
<circle cx=" 532" cy="323" r="393" fill="rgb(105, 92, 151)" fill-opacity = "2.73712495041898760000e-01" />
<circle cx=" 85" cy="437" r="185" fill="rgb(225, 116, 67)" fill-opacity = "3.20683934764312450000e-01" />
<circle cx=" 604" cy="431" r="179" fill="rgb(42, 117, 25)" fill-opacity = "1.18704563531420120000e-01" />
<circle cx=" 156" cy="726" r="31" fill="rgb(42, 82, 251)" fill-opacity = "7.85794799005798960000e-01" />
<circle cx=" 151" cy="633" r="64" fill="rgb(118, 127, 12)" fill-opacity = "4.10554612491348610000e-01" />
<circle cx=" 515" cy="158" r="85" fill="rgb(129, 52, 48)" fill-opacity = "1.77888834711570580000e-01" />
<circle cx=" 205" cy="731" r="67" fill="rgb(47, 6, 2)" fill-opacity = "8.62420316006549110000e-01" />
<circle cx=" 29" cy="117" r="13" fill="rgb(252, 113, 63)" fill-opacity = "6.59412156110415150000e-01" />
<circle cx=" 989" cy="373" r="64" fill="rgb(17, 89, 26)" fill-opacity = "5.42595877809506360000e-01" />
<circle cx=" 520" cy="522" r="262" fill="rgb(174, 245, 233)" fill-opacity = "3.82095410339087230000e-01" />
<circle cx=" 745" cy="776" r="14" fill="rgb(28, 2, 202)" fill-opacity = "3.37184662276656330000e-01" />
<circle cx=" 695" cy="978" r="103" fill="rgb(232, 177, 177)" fill-opacity = "1.44448997199507100000e-01" />
<circle cx=" 288" cy="567" r="45" fill="rgb(130, 228, 83)" fill-opacity = "6.67356410251307430000e-01" />
<circle cx=" 459" cy="79" r="73" fill="rgb(152, 175, 156)" fill-opacity = "8.24537935239000760000e-01" />
<circle cx=" 839" cy="121" r="56" fill="rgb(68, 195, 117)" fill-opacity = "7.31671858394230320000e-01" />
<circle cx=" 14" cy="495" r="180" fill="rgb(210, 136, 62)" fill-opacity = "9.96369900821801210000e-01" />
<circle cx=" 528" cy="349" r="312" fill="rgb(138, 247, 170)" fill-opacity = "5.74807039233658390000e-01" />
<circle cx=" 302" cy="764" r="267" fill="rgb(83, 209, 93)" fill-opacity = "3.09576655050251890000e-01" />
<circle cx=" 841" cy="334" r="249" fill="rgb(80, 27, 209)" fill-opacity = "1.22360587766747740000e-02" />
<circle cx=" 629" cy="430" r="1" fill="rgb(88, 123, 95)" fill-opacity = "5.84248387833041780000e-02" />
<circle cx=" 536" cy="257" r="294" fill="rgb(37, 152, 202)" fill-opacity = "1.23123090692268460000e-01" />
<circle cx=" 775" cy="143" r="209" fill="rgb(84, 202, 58)" fill-opacity = "1.11355556389362680000e-01" />
<circle cx=" 36" cy="684" r="329" fill="rgb(129, 47, 8)" fill-opacity = "7.63094551732250710000e-01" />
<circle cx=" 654" cy="78" r="313" fill="rgb(79, 167, 220)" fill-opacity = "2.28583799162271670000e-01" />
<circle cx=" 952" cy="405" r="226" fill="rgb(217, 164, 67)" fill-opacity = "2.73195291398738770000e-01" />
<circle cx=" 590" cy="740" r="270" fill="rgb(252, 248, 123)" fill-opacity = "3.97636859608564430000e-01" />
<circle cx=" 125" cy="477" r="126" fill="rgb(132, 48, 189)" fill-opacity = "1.27222947845622380000e-01" />
<circle cx=" 281" cy="42" r="284" fill="rgb(148, 245, 142)" fill-opacity = "9.82616510490116110000e-01" />
<circle cx=" 673" cy="244" r="70" fill="rgb(103, 44, 200)" fill-opacity = "2.26311792866019430000e-01" />
<circle cx=" 586" cy="66" r="304" fill="rgb(138, 84, 93)" fill-opacity = "9.07036283547483670000e-01" />
<circle cx=" 147" cy="764" r="300" fill="rgb(185, 102, 152)" fill-opacity = "5.81094805194709130000e-01" />
<circle cx=" 736" cy="321" r="381" fill="rgb(80, 101, 65)" fill-opacity = "3.13137469318991450000e-01" />
<circle cx=" 393" cy="403" r="164" fill="rgb(138, 61, 122)" fill-opacity = "8.05797594274412000000e-01" />
<circle cx=" 282" cy="576" r="200" fill="rgb(242, 141, 191)" fill-opacity = "8.33028780330368200000e-01" />
<circle cx=" 630" cy="606" r="347" fill="rgb(145, 114, 58)" fill-opacity = "3.17388596470570940000e-01" />
<circle cx=" 297" cy="999" r="398" fill="rgb(162, 147, 98)" fill-opacity = "8.51206004174058340000e-01" />
<circle cx=" 556" cy="158" r="55" fill="rgb(71, 247, 137)" fill-opacity = "5.16755163998341430000e-01" />
<circle cx=" 571" cy="890" r="310" fill="rgb(83, 50, 33)" fill-opacity = "1.86528642684659300000e-01" />
<circle cx=" 12" cy="400" r="83" fill="rgb(129, 17, 159)" fill-opacity = "9.96293381570311440000e-01" />
<circle cx=" 80" cy="340" r="368" fill="rgb(210, 36, 37)" fill-opacity = "9.86883164383010050000e-02" />
<circle cx=" 338" cy="666" r="93" fill="rgb(117, 89, 41)" fill-opacity = "5.11568373239119190000e-01" />
<circle cx=" 174" cy="835" r="48" fill="rgb(143, 115, 174)" fill-opacity = "6.76495694994463380000e-01" />
<circle cx=" 57" cy="596" r="354" fill="rgb(13, 77, 100)" fill-opacity = "4.71379185368085100000e-01" />
<circle cx=" 457" cy="928" r="363" fill="rgb(232, 171, 13)" fill-opacity = "7.76307844869428050000e-01" />
<circle cx=" 549" cy="603" r="77" fill="rgb(192, 36, 112)" fill-opacity = "3.45483203413084080000e-01" />
<circle cx=" 286" cy="951" r="49" fill="rgb(71, 213, 5)" fill-opacity = "1.34984345221011550000e-01" />
<circle cx=" 799" cy="336" r="381" fill="rgb(99, 222, 124)" fill-opacity = "9.49071562313530630000e-01" />
<circle cx=" 46" cy="538" r="312" fill="rgb(21, 190, 166)" fill-opacity = "5.81340467134101590000e-01" />
<circle cx=" 493" cy="839" r="50" fill="rgb(15, 80, 48)" fill-opacity = "6.75486936471363380000e-01" />
<circle cx=" 415" cy="864" r="295" fill="rgb(150, 168, 42)" fill-opacity = "3.94818230086573680000e-01" />
<circle cx=" 924" cy="309" r="266" fill="rgb(133, 12, 53)" fill-opacity = "4.90604209351861440000e-01" />
<circle cx=" 1010" cy="519" r="376" fill="rgb(134, 34, 64)" fill-opacity = "7.96260620560079730000e-01" />
</svg>
