<svg height="1024" width="1024">
<circle cx=" 807" cy="654" r="369" fill="rgb(134, 34, 64)" fill-opacity = "4.46942667619190330000e-01" />
<circle cx=" 934" cy="97" r="356" fill="rgb(116, 7, 15)" fill-opacity = "2.35866751303936750000e-01" />
<circle cx=" 902" cy="224" r="11" fill="rgb(163, 168, 237)" fill-opacity = "3.94818230086573680000e-01" />
<circle cx=" 179" cy="839" r="386" fill="rgb(32, 103, 59)" fill-opacity = "5.21109293065130870000e-01" />
<circle cx=" 363" cy="350" r="112" fill="rgb(56, 247, 27)" fill-opacity = "3.46563282965896220000e-01" />
<circle cx=" 799" cy="958" r="307" fill="rgb(192, 24, 23)" fill-opacity = "9.65080590828335530000e-01" />
<circle cx=" 300" cy="723" r="357" fill="rgb(82, 58, 41)" fill-opacity = "4.28018659614963550000e-01" />
<circle cx=" 666" cy="811" r="133" fill="rgb(135, 229, 109)" fill-opacity = "7.47266922216028640000e-01" />
<circle cx=" 457" cy="685" r="223" fill="rgb(248, 51, 29)" fill-opacity = "5.31672401885222580000e-01" />
<circle cx=" 652" cy="310" r="72" fill="rgb(99, 184, 158)" fill-opacity = "2.67807462865690570000e-01" />
<circle cx=" 737" cy="960" r="102" fill="rgb(162, 154, 3)" fill-opacity = "8.86880923951933740000e-01" />
<circle cx=" 632" cy="562" r="360" fill="rgb(117, 94, 77)" fill-opacity = "7.67071669731415610000e-01" />
<circle cx=" 84" cy="41" r="115" fill="rgb(173, 83, 37)" fill-opacity = "3.88823956815334880000e-01" />
<circle cx=" 128" cy="400" r="111" fill="rgb(63, 202, 172)" fill-opacity = "5.37338880129865080000e-01" />
<circle cx=" 859" cy="198" r="329" fill="rgb(251, 111, 22)" fill-opacity = "9.20574519098842360000e-01" />
<circle cx=" 690" cy="836" r="234" fill="rgb(225, 3, 86)" fill-opacity = "4.92885179108635500000e-01" />
<circle cx=" 297" cy="84" r="389" fill="rgb(162, 33, 58)" fill-opacity = "8.80222992079260360000e-01" />
<circle cx=" 180" cy="280" r="97" fill="rgb(81, 155, 47)" fill-opacity = "2.22078850102221060000e-01" />
<circle cx=" 579" cy="389" r="200" fill="rgb(180, 129, 191)" fill-opacity = "6.77994526874405420000e-01" />
<circle cx=" 618" cy="778" r="357" fill="rgb(6, 211, 124)" fill-opacity = "4.21861281789527980000e-01" />
<circle cx=" 317" cy="567" r="319" fill="rgb(109, 43, 59)" fill-opacity = "8.73203671298306010000e-01" />
<circle cx=" 51" cy="585" r="110" fill="rgb(82, 216, 98)" fill-opacity = "9.05710285476626130000e-01" />
<circle cx=" 230" cy="12" r="240" fill="rgb(206, 141, 99)" fill-opacity = "2.85584479190785330000e-01" />
<circle cx=" 73" cy="485" r="70" fill="rgb(207, 45, 167)" fill-opacity = "6.33647044264234130000e-01" />
<circle cx=" 820" cy="581" r="191" fill="rgb(105, 229, 142)" fill-opacity = "1.33829237797814080000e-01" />
<circle cx=" 125" cy="945" r="15" fill="rgb(38, 27, 191)" fill-opacity = "9.27104741355146420000e-01" />
<circle cx=" 838" cy="228" r="265" fill="rgb(187, 222, 168)" fill-opacity = "7.00275391568387470000e-01" />
<circle cx=" 243" cy="751" r="380" fill="rgb(137, 118, 179)" fill-opacity = "4.23914334143183690000e-01" />
<circle cx=" 654" cy="369" r="272" fill="rgb(158, 36, 199)" fill-opacity = "2.28583799162271670000e-01" />
<circle cx=" 891" cy="744" r="104" fill="rgb(54, 121, 20)" fill-opacity = "4.42266424093358810000e-01" />
<circle cx=" 775" cy="891" r="240" fill="rgb(205, 234, 75)" fill-opacity = "9.55697176072150990000e-01" />
<circle cx=" 120" cy="257" r="234" fill="rgb(186, 51, 48)" fill-opacity = "2.95153065094701180000e-01" />
<circle cx=" 160" cy="524" r="1" fill="rgb(167, 219, 106)" fill-opacity = "8.35019146324849080000e-02" />
<circle cx=" 443" cy="505" r="66" fill="rgb(119, 121, 218)" fill-opacity = "6.65741472089553140000e-01" />
<circle cx=" 726" cy="409" r="331" fill="rgb(7, 156, 14)" fill-opacity = "1.06214394428612470000e-01" />
<circle cx=" 613" cy="349" r="243" fill="rgb(115, 55, 247)" fill-opacity = "4.05309270665596080000e-01" />
<circle cx=" 331" cy="127" r="173" fill="rgb(42, 122, 159)" fill-opacity = "6.97664681239742680000e-01" />
<circle cx=" 940" cy="121" r="107" fill="rgb(218, 136, 37)" fill-opacity = "5.89933913921506630000e-01" />
<circle cx=" 239" cy="805" r="124" fill="rgb(104, 209, 123)" fill-opacity = "2.22368186074000770000e-01" />
<circle cx=" 462" cy="576" r="354" fill="rgb(203, 78, 247)" fill-opacity = "6.67356410251307430000e-01" />
<circle cx=" 484" cy="216" r="177" fill="rgb(206, 194, 137)" fill-opacity = "2.97668423286514990000e-01" />
<circle cx=" 334" cy="836" r="244" fill="rgb(245, 254, 207)" fill-opacity = "6.52557077105749060000e-01" />
<circle cx=" 353" cy="277" r="138" fill="rgb(174, 71, 173)" fill-opacity = "4.98368324106322590000e-01" />
<circle cx=" 332" cy="108" r="185" fill="rgb(149, 223, 171)" fill-opacity = "7.04503392377167530000e-01" />
<circle cx=" 96" cy="366" r="150" fill="rgb(240, 41, 26)" fill-opacity = "4.91625077692100730000e-01" />
<circle cx=" 77" cy="562" r="102" fill="rgb(47, 6, 27)" fill-opacity = "1.88680552379856040000e-01" />
<circle cx=" 123" cy="191" r="266" fill="rgb(48, 149, 83)" fill-opacity = "1.77888834711570580000e-01" />
<circle cx=" 289" cy="624" r="202" fill="rgb(118, 245, 210)" fill-opacity = "2.45251308770403130000e-01" />
<circle cx=" 743" cy="156" r="186" fill="rgb(86, 82, 177)" fill-opacity = "3.74615940469361420000e-01" />
<circle cx=" 964" cy="289" r="288" fill="rgb(188, 32, 222)" fill-opacity = "7.12002698207259140000e-03" />
<circle cx=" 905" cy="326" r="387" fill="rgb(41, 64, 203)" fill-opacity = "5.67202148897547940000e-01" />
<circle cx=" 886" cy="835" r="86" fill="rgb(7, 191, 111)" fill-opacity = "6.20106125252008590000e-01" />
<circle cx=" 236" cy="27" r="263" fill="rgb(29, 190, 225)" fill-opacity = "2.30966627880814900000e-01" />
<circle cx=" 354" cy="259" r="313" fill="rgb(221, 244, 216)" fill-opacity = "6.29853661156718920000e-01" />
<circle cx=" 893" cy="563" r="28" fill="rgb(1, 184, 255)" fill-opacity = "9.46771799849455700000e-01" />
<circle cx=" 285" cy="450" r="193" fill="rgb(44, 31, 177)" fill-opacity = "1.20976735686147750000e-01" />
<circle cx=" 976" cy="241" r="99" fill="rgb(87, 115, 117)" fill-opacity = "6.36322265195947260000e-01" />
<circle cx=" 296" cy="831" r="242" fill="rgb(32, 216, 29)" fill-opacity = "6.83054643903289630000e-01" />
<circle cx=" 883" cy="718" r="242" fill="rgb(109, 247, 107)" fill-opacity = "7.71344484394254290000e-01" />
<circle cx=" 550" cy="801" r="5" fill="rgb(178, 154, 237)" fill-opacity = "7.80574849208918620000e-01" />
<circle cx=" 239" cy="939" r="272" fill="rgb(39, 191, 252)" fill-opacity = "5.83089664922337270000e-01" />
<circle cx=" 513" cy="366" r="258" fill="rgb(32, 192, 202)" fill-opacity = "6.23611538903628750000e-01" />
<circle cx=" 962" cy="947" r="356" fill="rgb(16, 131, 250)" fill-opacity = "8.62789148779028240000e-01" />
<circle cx=" 797" cy="717" r="10" fill="rgb(22, 230, 105)" fill-opacity = "1.21509376841538290000e-01" />
<circle cx=" 814" cy="488" r="17" fill="rgb(252, 236, 117)" fill-opacity = "7.79864537440824180000e-02" />
<circle cx=" 239" cy="960" r="172" fill="rgb(26, 140, 248)" fill-opacity = "3.05188136011536050000e-01" />
<circle cx=" 844" cy="165" r="287" fill="rgb(71, 25, 96)" fill-opacity = "5.24227558001953310000e-01" />
<circle cx=" 616" cy="759" r="387" fill="rgb(61, 161, 81)" fill-opacity = "1.50687435547422370000e-01" />
<circle cx=" 375" cy="645" r="308" fill="rgb(42, 159, 50)" fill-opacity = "3.56062826967934730000e-01" />
<circle cx=" 915" cy="306" r="190" fill="rgb(197, 205, 34)" fill-opacity = "7.70810891121155530000e-01" />
<circle cx=" 728" cy="10" r="359" fill="rgb(69, 89, 50)" fill-opacity = "8.12364112011012550000e-02" />
<circle cx=" 496" cy="727" r="141" fill="rgb(151, 109, 195)" fill-opacity = "4.97060940820309440000e-01" />
<circle cx=" 701" cy="178" r="135" fill="rgb(227, 159, 212)" fill-opacity = "5.94072962080685050000e-02" />
<circle cx=" 952" cy="678" r="46" fill="rgb(32, 75, 169)" fill-opacity = "5.67064281413484080000e-01" />
<circle cx=" 865" cy="520" r="146" fill="rgb(252, 3, 34)" fill-opacity = "5.60630078751110260000e-01" />
<circle cx=" 459" cy="439" r="146" fill="rgb(150, 209, 81)" fill-opacity = "5.60630078751110260000e-01" />
<circle cx=" 101" cy="426" r="98" fill="rgb(57, 250, 15)" fill-opacity = "8.64143496875270150000e-01" />
<circle cx=" 646" cy="321" r="4" fill="rgb(227, 196, 112)" fill-opacity = "5.83388941679462200000e-01" />
<circle cx=" 450" cy="676" r="274" fill="rgb(98, 22, 169)" fill-opacity = "1.10325140462973480000e-01" />
<circle cx=" 759" cy="12" r="359" fill="rgb(33, 97, 50)" fill-opacity = "7.31650121278923260000e-01" />
<circle cx=" 915" cy="705" r="190" fill="rgb(225, 225, 138)" fill-opacity = "7.70810891121155530000e-01" />
<circle cx=" 775" cy="137" r="387" fill="rgb(112, 30, 102)" fill-opacity = "3.68354821296255070000e-02" />
<circle cx=" 616" cy="759" r="326" fill="rgb(61, 179, 133)" fill-opacity = "1.30665049927263690000e-01" />
<circle cx=" 48" cy="165" r="330" fill="rgb(81, 249, 5)" fill-opacity = "1.38940278569996910000e-01" />
<circle cx=" 84" cy="239" r="182" fill="rgb(115, 169, 53)" fill-opacity = "1.60406113908619500000e-01" />
<circle cx=" 166" cy="488" r="259" fill="rgb(252, 33, 163)" fill-opacity = "4.43044674012993410000e-02" />
<circle cx=" 673" cy="842" r="205" fill="rgb(163, 178, 208)" fill-opacity = "9.64264857476091360000e-01" />
<circle cx=" 326" cy="732" r="90" fill="rgb(164, 88, 131)" fill-opacity = "5.65377838035447500000e-01" />
<circle cx=" 466" cy="566" r="301" fill="rgb(224, 157, 77)" fill-opacity = "2.97065999530446770000e-01" />
<circle cx=" 71" cy="71" r="65" fill="rgb(73, 164, 175)" fill-opacity = "8.74261191119917400000e-01" />
<circle cx=" 550" cy="91" r="153" fill="rgb(44, 64, 182)" fill-opacity = "7.80574849208918620000e-01" />
<circle cx=" 77" cy="23" r="144" fill="rgb(67, 11, 161)" fill-opacity = "1.58578824952071430000e-01" />
<circle cx=" 711" cy="976" r="184" fill="rgb(207, 59, 41)" fill-opacity = "6.61169844452776710000e-01" />
<circle cx=" 679" cy="241" r="99" fill="rgb(87, 88, 199)" fill-opacity = "2.17425968633545350000e-01" />
<circle cx=" 869" cy="995" r="153" fill="rgb(31, 227, 167)" fill-opacity = "1.20976735686147750000e-01" />
<circle cx=" 137" cy="920" r="62" fill="rgb(114, 122, 157)" fill-opacity = "3.33378817754498960000e-01" />
<circle cx=" 567" cy="631" r="260" fill="rgb(21, 186, 250)" fill-opacity = "6.83352519981620170000e-01" />
<circle cx=" 326" cy="241" r="296" fill="rgb(52, 213, 194)" fill-opacity = "2.77770977709264950000e-01" />
<circle cx=" 235" cy="323" r="213" fill="rgb(208, 75, 200)" fill-opacity = "9.41124780754264870000e-01" />
<circle cx=" 169" cy="484" r="387" fill="rgb(142, 64, 164)" fill-opacity = "6.20380468886822970000e-01" />
<circle cx=" 44" cy="177" r="104" fill="rgb(217, 250, 52)" fill-opacity = "7.43271341131622080000e-01" />
<circle cx=" 779" cy="758" r="293" fill="rgb(112, 22, 168)" fill-opacity = "2.91082271354249580000e-01" />
<circle cx=" 850" cy="747" r="222" fill="rgb(21, 206, 27)" fill-opacity = "5.70507761411265250000e-01" />
<circle cx=" 214" cy="191" r="208" fill="rgb(37, 194, 48)" fill-opacity = "7.06333338678425180000e-01" />
<circle cx=" 669" cy="144" r="330" fill="rgb(13, 226, 106)" fill-opacity = "6.17542884325976150000e-01" />
<circle cx=" 99" cy="765" r="60" fill="rgb(56, 7, 63)" fill-opacity = "7.96416601025419450000e-01" />
<circle cx=" 125" cy="241" r="198" fill="rgb(19, 40, 56)" fill-opacity = "5.42595877809506360000e-01" />
<circle cx=" 930" cy="613" r="273" fill="rgb(139, 193, 9)" fill-opacity = "4.98368324106322590000e-01" />
<circle cx=" 594" cy="903" r="14" fill="rgb(28, 45, 111)" fill-opacity = "2.74190446827895510000e-02" />
<circle cx=" 690" cy="449" r="13" fill="rgb(70, 217, 196)" fill-opacity = "9.31733252280890770000e-01" />
<circle cx=" 513" cy="499" r="169" fill="rgb(92, 39, 184)" fill-opacity = "1.46599356263392040000e-01" />
<circle cx=" 634" cy="786" r="167" fill="rgb(158, 179, 32)" fill-opacity = "6.50494706613203190000e-01" />
<circle cx=" 983" cy="384" r="161" fill="rgb(39, 107, 252)" fill-opacity = "5.89933913921506630000e-01" />
<circle cx=" 331" cy="617" r="257" fill="rgb(171, 46, 3)" fill-opacity = "6.97664681239742680000e-01" />
<circle cx=" 634" cy="522" r="196" fill="rgb(36, 55, 112)" fill-opacity = "1.17187983555461890000e-01" />
<circle cx=" 73" cy="637" r="74" fill="rgb(102, 156, 102)" fill-opacity = "6.52708492961253440000e-01" />
<circle cx=" 524" cy="227" r="143" fill="rgb(228, 96, 35)" fill-opacity = "6.69429261003328340000e-01" />
<circle cx=" 830" cy="280" r="249" fill="rgb(24, 133, 76)" fill-opacity = "9.19827903784215420000e-01" />
<circle cx=" 165" cy="645" r="65" fill="rgb(186, 101, 216)" fill-opacity = "7.14446084936120050000e-02" />
<circle cx=" 63" cy="747" r="338" fill="rgb(162, 179, 190)" fill-opacity = "1.11355556389362680000e-01" />
<circle cx=" 293" cy="806" r="38" fill="rgb(57, 166, 246)" fill-opacity = "3.93056935442826380000e-01" />
<circle cx=" 925" cy="328" r="239" fill="rgb(17, 223, 25)" fill-opacity = "8.62705164597873830000e-01" />
<circle cx=" 455" cy="163" r="380" fill="rgb(52, 206, 7)" fill-opacity = "4.60917843360433510000e-01" />
<circle cx=" 21" cy="228" r="158" fill="rgb(52, 47, 168)" fill-opacity = "7.34989765938971470000e-01" />
<circle cx=" 201" cy="554" r="15" fill="rgb(222, 103, 160)" fill-opacity = "5.38750620342358650000e-01" />
<circle cx=" 210" cy="567" r="320" fill="rgb(185, 200, 115)" fill-opacity = "7.95755702605985160000e-01" />
<circle cx=" 73" cy="393" r="225" fill="rgb(207, 58, 109)" fill-opacity = "6.08428041229889250000e-01" />
<circle cx=" 956" cy="595" r="240" fill="rgb(6, 119, 83)" fill-opacity = "8.17352419530285920000e-01" />
<circle cx=" 914" cy="433" r="40" fill="rgb(136, 40, 238)" fill-opacity = "3.52707336051968580000e-01" />
<circle cx=" 213" cy="567" r="36" fill="rgb(183, 43, 51)" fill-opacity = "4.74756479639524500000e-01" />
<circle cx=" 807" cy="203" r="178" fill="rgb(43, 61, 169)" fill-opacity = "5.28377532287027000000e-01" />
<circle cx=" 414" cy="990" r="38" fill="rgb(178, 202, 235)" fill-opacity = "7.55311324431410690000e-01" />
<circle cx=" 733" cy="658" r="254" fill="rgb(155, 143, 79)" fill-opacity = "3.17388596470570940000e-01" />
<circle cx=" 714" cy="377" r="398" fill="rgb(111, 3, 88)" fill-opacity = "8.76300950919384870000e-01" />
<circle cx=" 795" cy="738" r="348" fill="rgb(38, 188, 141)" fill-opacity = "8.39132743875612430000e-01" />
<circle cx=" 616" cy="821" r="227" fill="rgb(83, 50, 92)" fill-opacity = "7.67800141393583320000e-01" />
<circle cx=" 320" cy="333" r="101" fill="rgb(220, 89, 140)" fill-opacity = "3.68793971622235930000e-01" />
<circle cx=" 606" cy="192" r="356" fill="rgb(97, 83, 68)" fill-opacity = "6.63849158849897150000e-01" />
<circle cx=" 224" cy="15" r="101" fill="rgb(4, 32, 77)" fill-opacity = "3.08999735540374630000e-01" />
<circle cx=" 903" cy="841" r="294" fill="rgb(228, 7, 184)" fill-opacity = "5.86819539583882670000e-02" />
<circle cx=" 257" cy="314" r="72" fill="rgb(66, 197, 231)" fill-opacity = "5.02608201260240420000e-01" />
<circle cx=" 234" cy="574" r="118" fill="rgb(14, 41, 13)" fill-opacity = "2.49234319895289770000e-01" />
<circle cx=" 181" cy="811" r="215" fill="rgb(212, 95, 253)" fill-opacity = "8.07697560184004850000e-01" />
<circle cx=" 625" cy="996" r="367" fill="rgb(108, 11, 41)" fill-opacity = "2.84298410632129570000e-01" />
<circle cx=" 363" cy="606" r="180" fill="rgb(113, 158, 4)" fill-opacity = "9.49071562313530630000e-01" />
<circle cx=" 108" cy="131" r="198" fill="rgb(121, 240, 200)" fill-opacity = "3.46563282965896220000e-01" />
<circle cx=" 731" cy="702" r="226" fill="rgb(107, 62, 17)" fill-opacity = "5.44894894553065390000e-01" />
<circle cx=" 755" cy="62" r="201" fill="rgb(163, 114, 4)" fill-opacity = "6.79514828632950210000e-01" />
<circle cx=" 264" cy="812" r="17" fill="rgb(116, 95, 239)" fill-opacity = "6.02974323625743880000e-01" />
<circle cx=" 953" cy="506" r="298" fill="rgb(100, 212, 5)" fill-opacity = "8.37804028254709680000e-01" />
</svg>
