<svg height="1024" width="1024">
<circle cx=" 800" cy="873" r="215" fill="rgb(17, 58, 11)" fill-opacity = "2.90063490756416350000e-01" />
<circle cx=" 60" cy="499" r="18" fill="rgb(158, 68, 239)" fill-opacity = "2.12709155161383560000e-02" />
<circle cx=" 957" cy="735" r="366" fill="rgb(65, 26, 111)" fill-opacity = "1.62740988487446000000e-01" />
<circle cx=" 404" cy="499" r="391" fill="rgb(168, 155, 3)" fill-opacity = "5.92076770682535840000e-01" />
<circle cx=" 947" cy="846" r="348" fill="rgb(9, 65, 40)" fill-opacity = "5.55085848963819520000e-01" />
<circle cx=" 942" cy="76" r="375" fill="rgb(218, 170, 47)" fill-opacity = "2.32781667866390760000e-01" />
<circle cx=" 113" cy="101" r="63" fill="rgb(87, 155, 142)" fill-opacity = "9.96552967610959680000e-01" />
<circle cx=" 77" cy="194" r="341" fill="rgb(161, 244, 91)" fill-opacity = "3.70111848007592450000e-01" />
<circle cx=" 347" cy="334" r="91" fill="rgb(34, 66, 19)" fill-opacity = "4.85822759393300880000e-01" />
<circle cx=" 99" cy="746" r="16" fill="rgb(11, 195, 77)" fill-opacity = "8.47664191559710510000e-01" />
<circle cx=" 656" cy="595" r="228" fill="rgb(33, 50, 58)" fill-opacity = "3.73276931474029180000e-01" />
<circle cx=" 144" cy="900" r="167" fill="rgb(79, 89, 190)" fill-opacity = "1.52316873081605570000e-01" />
<circle cx=" 16" cy="56" r="91" fill="rgb(67, 55, 169)" fill-opacity = "2.36402270407770620000e-01" />
<circle cx=" 10" cy="67" r="392" fill="rgb(158, 38, 163)" fill-opacity = "6.64876515450076640000e-01" />
<circle cx=" 687" cy="930" r="376" fill="rgb(161, 66, 2)" fill-opacity = "9.40734697204679730000e-01" />
<circle cx=" 706" cy="135" r="91" fill="rgb(17, 92, 23)" fill-opacity = "1.61870690295408350000e-01" />
<circle cx=" 912" cy="506" r="265" fill="rgb(163, 184, 51)" fill-opacity = "1.53085054335452050000e-01" />
<circle cx=" 180" cy="157" r="317" fill="rgb(108, 90, 17)" fill-opacity = "3.90222724979141230000e-01" />
<circle cx=" 595" cy="240" r="288" fill="rgb(197, 130, 126)" fill-opacity = "6.67155270715137580000e-01" />
<circle cx=" 721" cy="679" r="135" fill="rgb(177, 75, 60)" fill-opacity = "8.65974930368854870000e-01" />
<circle cx=" 133" cy="724" r="279" fill="rgb(221, 164, 207)" fill-opacity = "8.73203671298306010000e-01" />
<circle cx=" 869" cy="679" r="221" fill="rgb(112, 40, 112)" fill-opacity = "6.93428766107309520000e-01" />
<circle cx=" 320" cy="314" r="75" fill="rgb(3, 168, 131)" fill-opacity = "2.74076340179180590000e-01" />
<circle cx=" 612" cy="693" r="65" fill="rgb(111, 110, 188)" fill-opacity = "6.33647044264234130000e-01" />
<circle cx=" 299" cy="879" r="230" fill="rgb(94, 149, 69)" fill-opacity = "3.69065182218027750000e-01" />
<circle cx=" 723" cy="215" r="315" fill="rgb(237, 71, 23)" fill-opacity = "9.91901685491824000000e-01" />
<circle cx=" 858" cy="310" r="280" fill="rgb(58, 255, 105)" fill-opacity = "9.12733876462543230000e-01" />
<circle cx=" 555" cy="903" r="285" fill="rgb(178, 17, 110)" fill-opacity = "1.57550977363256850000e-01" />
<circle cx=" 926" cy="355" r="267" fill="rgb(204, 58, 6)" fill-opacity = "3.58774674221896790000e-01" />
<circle cx=" 1010" cy="722" r="12" fill="rgb(137, 22, 250)" fill-opacity = "9.32499613326549290000e-01" />
<circle cx=" 670" cy="11" r="231" fill="rgb(256, 79, 188)" fill-opacity = "2.49745416520744000000e-01" />
<circle cx=" 955" cy="75" r="294" fill="rgb(124, 70, 195)" fill-opacity = "3.34811412530255930000e-01" />
<circle cx=" 203" cy="142" r="202" fill="rgb(115, 187, 32)" fill-opacity = "4.92852407216505030000e-01" />
<circle cx=" 472" cy="44" r="112" fill="rgb(154, 27, 162)" fill-opacity = "2.74458024898333490000e-01" />
<circle cx=" 71" cy="82" r="356" fill="rgb(155, 77, 128)" fill-opacity = "3.81570114874087980000e-02" />
<circle cx=" 301" cy="356" r="82" fill="rgb(251, 37, 95)" fill-opacity = "2.07511474074028260000e-01" />
<circle cx=" 978" cy="600" r="386" fill="rgb(243, 187, 71)" fill-opacity = "1.61395962537149720000e-01" />
<circle cx=" 65" cy="553" r="352" fill="rgb(195, 47, 248)" fill-opacity = "3.69102439515395450000e-01" />
<circle cx=" 234" cy="1003" r="52" fill="rgb(245, 167, 216)" fill-opacity = "3.61609791435040910000e-01" />
<circle cx=" 608" cy="839" r="37" fill="rgb(176, 43, 122)" fill-opacity = "5.46810293564270240000e-01" />
<circle cx=" 625" cy="753" r="7" fill="rgb(231, 72, 243)" fill-opacity = "1.65635833657100000000e-01" />
<circle cx=" 149" cy="336" r="144" fill="rgb(47, 146, 62)" fill-opacity = "7.81591682049931120000e-01" />
<circle cx=" 534" cy="692" r="325" fill="rgb(189, 147, 116)" fill-opacity = "8.73753906652655620000e-01" />
<circle cx=" 701" cy="299" r="274" fill="rgb(17, 123, 57)" fill-opacity = "1.78557957786735780000e-01" />
<circle cx=" 853" cy="912" r="155" fill="rgb(217, 64, 40)" fill-opacity = "8.28567312708935690000e-01" />
<circle cx=" 304" cy="961" r="49" fill="rgb(30, 124, 145)" fill-opacity = "8.62420316006549110000e-01" />
<circle cx=" 809" cy="53" r="97" fill="rgb(19, 1, 35)" fill-opacity = "9.30881997577671210000e-01" />
<circle cx=" 67" cy="767" r="253" fill="rgb(224, 46, 212)" fill-opacity = "1.90127702619946600000e-02" />
<circle cx=" 810" cy="426" r="66" fill="rgb(38, 1, 12)" fill-opacity = "1.46907909748676070000e-01" />
<circle cx=" 614" cy="358" r="40" fill="rgb(66, 210, 64)" fill-opacity = "8.04860121463900180000e-01" />
<circle cx=" 877" cy="108" r="103" fill="rgb(66, 45, 67)" fill-opacity = "7.04678869495811710000e-03" />
<circle cx=" 982" cy="860" r="83" fill="rgb(115, 37, 222)" fill-opacity = "1.24556976112431880000e-01" />
<circle cx=" 236" cy="577" r="187" fill="rgb(9, 225, 58)" fill-opacity = "6.04805883188372920000e-01" />
<circle cx=" 964" cy="721" r="137" fill="rgb(21, 87, 29)" fill-opacity = "1.36148863073492610000e-01" />
<circle cx=" 635" cy="347" r="48" fill="rgb(114, 126, 140)" fill-opacity = "2.08247899584157460000e-02" />
<circle cx=" 71" cy="512" r="75" fill="rgb(44, 49, 224)" fill-opacity = "4.83172289655967810000e-01" />
<circle cx=" 661" cy="95" r="45" fill="rgb(215, 75, 128)" fill-opacity = "7.26306112541138860000e-01" />
<circle cx=" 276" cy="274" r="114" fill="rgb(149, 116, 89)" fill-opacity = "3.98089014903244550000e-02" />
<circle cx=" 403" cy="529" r="327" fill="rgb(116, 91, 75)" fill-opacity = "1.86382758848324230000e-01" />
<circle cx=" 21" cy="679" r="286" fill="rgb(184, 91, 186)" fill-opacity = "3.18425009648994890000e-02" />
<circle cx=" 730" cy="277" r="363" fill="rgb(150, 69, 188)" fill-opacity = "7.33886622291389570000e-01" />
<circle cx=" 946" cy="147" r="102" fill="rgb(133, 62, 75)" fill-opacity = "5.15615823944720390000e-01" />
<circle cx=" 644" cy="687" r="53" fill="rgb(137, 103, 140)" fill-opacity = "1.17652434556500650000e-01" />
<circle cx=" 656" cy="237" r="41" fill="rgb(75, 39, 199)" fill-opacity = "8.76064436052439220000e-01" />
<circle cx=" 834" cy="181" r="298" fill="rgb(79, 8, 174)" fill-opacity = "4.14858415627401780000e-01" />
<circle cx=" 349" cy="175" r="150" fill="rgb(197, 65, 125)" fill-opacity = "2.88126066658751510000e-01" />
<circle cx=" 900" cy="17" r="142" fill="rgb(152, 154, 132)" fill-opacity = "5.92233779559139250000e-01" />
<circle cx=" 885" cy="470" r="196" fill="rgb(210, 152, 153)" fill-opacity = "3.30874801211171520000e-01" />
<circle cx=" 672" cy="276" r="308" fill="rgb(216, 1, 120)" fill-opacity = "3.83975454668406660000e-01" />
<circle cx=" 255" cy="152" r="106" fill="rgb(77, 232, 106)" fill-opacity = "2.63124068867779390000e-01" />
<circle cx=" 692" cy="270" r="218" fill="rgb(127, 31, 100)" fill-opacity = "5.18673889942339540000e-01" />
<circle cx=" 128" cy="755" r="274" fill="rgb(102, 68, 247)" fill-opacity = "1.70202190909370720000e-01" />
<circle cx=" 390" cy="52" r="101" fill="rgb(112, 147, 244)" fill-opacity = "4.41488279124996330000e-01" />
<circle cx=" 858" cy="109" r="216" fill="rgb(256, 139, 45)" fill-opacity = "7.79929767379784260000e-01" />
<circle cx=" 502" cy="771" r="61" fill="rgb(138, 3, 128)" fill-opacity = "9.96494295895847370000e-01" />
<circle cx=" 676" cy="673" r="185" fill="rgb(24, 145, 155)" fill-opacity = "5.60630078751110260000e-01" />
<circle cx=" 491" cy="137" r="115" fill="rgb(32, 168, 53)" fill-opacity = "2.42019749193251870000e-01" />
<circle cx=" 100" cy="443" r="253" fill="rgb(213, 60, 73)" fill-opacity = "5.74889893572691160000e-01" />
<circle cx=" 166" cy="130" r="35" fill="rgb(76, 124, 64)" fill-opacity = "8.27387266948090840000e-01" />
<circle cx=" 35" cy="612" r="78" fill="rgb(236, 131, 140)" fill-opacity = "2.17440792138046120000e-01" />
<circle cx=" 1022" cy="74" r="397" fill="rgb(78, 232, 158)" fill-opacity = "1.00208407464168700000e-01" />
<circle cx=" 885" cy="645" r="257" fill="rgb(119, 17, 72)" fill-opacity = "5.52866081029804060000e-01" />
<circle cx=" 37" cy="403" r="338" fill="rgb(193, 74, 61)" fill-opacity = "5.13775879055362590000e-02" />
<circle cx=" 452" cy="558" r="207" fill="rgb(41, 231, 59)" fill-opacity = "1.06639073293255620000e-01" />
<circle cx=" 778" cy="773" r="133" fill="rgb(126, 12, 15)" fill-opacity = "5.12387299066269450000e-01" />
<circle cx=" 921" cy="951" r="377" fill="rgb(117, 245, 27)" fill-opacity = "6.74706901005459160000e-01" />
<circle cx=" 307" cy="754" r="327" fill="rgb(111, 77, 10)" fill-opacity = "1.42837999651032720000e-01" />
<circle cx=" 829" cy="32" r="281" fill="rgb(141, 34, 77)" fill-opacity = "1.67644967556945800000e-02" />
<circle cx=" 194" cy="177" r="160" fill="rgb(133, 193, 136)" fill-opacity = "7.70877217247717850000e-01" />
<circle cx=" 627" cy="473" r="15" fill="rgb(44, 95, 99)" fill-opacity = "8.96056211289322220000e-01" />
<circle cx=" 660" cy="992" r="50" fill="rgb(140, 234, 16)" fill-opacity = "5.82117782275344720000e-01" />
<circle cx=" 977" cy="464" r="56" fill="rgb(92, 161, 26)" fill-opacity = "1.20504421134492780000e-01" />
<circle cx=" 821" cy="851" r="159" fill="rgb(109, 246, 9)" fill-opacity = "9.10144764026026730000e-01" />
<circle cx=" 689" cy="879" r="400" fill="rgb(201, 115, 54)" fill-opacity = "5.29957618931780510000e-01" />
<circle cx=" 345" cy="544" r="104" fill="rgb(134, 19, 46)" fill-opacity = "2.84732987642757340000e-01" />
<circle cx=" 17" cy="529" r="317" fill="rgb(47, 171, 88)" fill-opacity = "9.30767740611592400000e-01" />
<circle cx=" 283" cy="891" r="258" fill="rgb(104, 23, 59)" fill-opacity = "7.43462592704397180000e-01" />
<circle cx=" 831" cy="396" r="360" fill="rgb(159, 36, 227)" fill-opacity = "4.14318933719905140000e-01" />
<circle cx=" 643" cy="16" r="331" fill="rgb(35, 122, 217)" fill-opacity = "2.73712495041898760000e-01" />
<circle cx=" 709" cy="827" r="185" fill="rgb(99, 163, 55)" fill-opacity = "5.44466663147291640000e-01" />
<circle cx=" 803" cy="387" r="290" fill="rgb(152, 204, 133)" fill-opacity = "8.09378356019610390000e-01" />
<circle cx=" 723" cy="224" r="400" fill="rgb(238, 98, 215)" fill-opacity = "8.28721973279282320000e-01" />
<circle cx=" 784" cy="119" r="223" fill="rgb(159, 152, 189)" fill-opacity = "5.37091629411807770000e-01" />
<circle cx=" 318" cy="683" r="67" fill="rgb(200, 194, 205)" fill-opacity = "1.77888834711570580000e-01" />
<circle cx=" 947" cy="864" r="51" fill="rgb(253, 142, 164)" fill-opacity = "3.17435264541541920000e-01" />
<circle cx=" 268" cy="735" r="166" fill="rgb(240, 182, 29)" fill-opacity = "1.31732403820153720000e-01" />
<circle cx=" 502" cy="454" r="76" fill="rgb(13, 162, 236)" fill-opacity = "5.30868598339742980000e-01" />
<circle cx=" 513" cy="279" r="398" fill="rgb(246, 183, 173)" fill-opacity = "8.79401808527950470000e-01" />
<circle cx=" 923" cy="261" r="71" fill="rgb(176, 46, 215)" fill-opacity = "7.74836334034246570000e-01" />
<circle cx=" 490" cy="600" r="158" fill="rgb(191, 99, 155)" fill-opacity = "7.72072408949420640000e-01" />
<circle cx=" 156" cy="454" r="275" fill="rgb(168, 109, 40)" fill-opacity = "2.04746190061001250000e-01" />
<circle cx=" 206" cy="922" r="138" fill="rgb(152, 229, 173)" fill-opacity = "1.13740246803755160000e-02" />
<circle cx=" 959" cy="403" r="200" fill="rgb(213, 63, 113)" fill-opacity = "5.55359326003129320000e-01" />
<circle cx=" 906" cy="752" r="30" fill="rgb(140, 235, 37)" fill-opacity = "1.22400334116639530000e-01" />
<circle cx=" 338" cy="889" r="72" fill="rgb(70, 155, 138)" fill-opacity = "3.01416315129025670000e-01" />
<circle cx=" 404" cy="327" r="267" fill="rgb(62, 237, 190)" fill-opacity = "7.54134996743791140000e-01" />
<circle cx=" 179" cy="908" r="98" fill="rgb(111, 241, 255)" fill-opacity = "5.68829452476993240000e-02" />
<circle cx=" 687" cy="45" r="142" fill="rgb(146, 89, 6)" fill-opacity = "6.55259720446574770000e-01" />
<circle cx=" 662" cy="645" r="232" fill="rgb(159, 23, 175)" fill-opacity = "3.95003618242419530000e-01" />
<circle cx=" 693" cy="222" r="279" fill="rgb(84, 107, 158)" fill-opacity = "8.24757121183536280000e-01" />
<circle cx=" 216" cy="494" r="88" fill="rgb(135, 240, 71)" fill-opacity = "6.29216556806699860000e-04" />
<circle cx=" 467" cy="273" r="366" fill="rgb(12, 104, 166)" fill-opacity = "5.27930619566530090000e-02" />
<circle cx=" 648" cy="946" r="381" fill="rgb(29, 135, 216)" fill-opacity = "7.95539409700671380000e-01" />
<circle cx=" 596" cy="356" r="98" fill="rgb(92, 190, 150)" fill-opacity = "7.36711070201527150000e-01" />
<circle cx=" 218" cy="215" r="159" fill="rgb(173, 31, 144)" fill-opacity = "8.41361476037625120000e-01" />
<circle cx=" 370" cy="388" r="349" fill="rgb(235, 82, 10)" fill-opacity = "7.67523257590974510000e-01" />
<circle cx=" 891" cy="3" r="306" fill="rgb(191, 5, 50)" fill-opacity = "8.77540373412674770000e-01" />
<circle cx=" 462" cy="12" r="170" fill="rgb(226, 37, 185)" fill-opacity = "1.35489941894703310000e-01" />
<circle cx=" 738" cy="805" r="292" fill="rgb(235, 129, 85)" fill-opacity = "5.17969157711377860000e-01" />
<circle cx=" 318" cy="542" r="259" fill="rgb(15, 191, 5)" fill-opacity = "1.76782531984589040000e-01" />
<circle cx=" 766" cy="403" r="311" fill="rgb(53, 31, 122)" fill-opacity = "5.71290673205067550000e-01" />
<circle cx=" 928" cy="396" r="200" fill="rgb(176, 199, 67)" fill-opacity = "8.38643988838658090000e-01" />
<circle cx=" 607" cy="573" r="396" fill="rgb(205, 153, 17)" fill-opacity = "9.33680566553604760000e-01" />
<circle cx=" 966" cy="806" r="219" fill="rgb(52, 147, 18)" fill-opacity = "3.12866531525132440000e-01" />
<circle cx=" 517" cy="816" r="200" fill="rgb(225, 256, 61)" fill-opacity = "4.15998251202827070000e-01" />
<circle cx=" 85" cy="555" r="157" fill="rgb(161, 14, 128)" fill-opacity = "2.41615488810876580000e-01" />
<circle cx=" 10" cy="747" r="179" fill="rgb(16, 155, 133)" fill-opacity = "2.57499193107351590000e-01" />
<circle cx=" 247" cy="955" r="81" fill="rgb(196, 44, 44)" fill-opacity = "3.82628223078622650000e-01" />
<circle cx=" 579" cy="549" r="359" fill="rgb(15, 41, 101)" fill-opacity = "6.39784123162091770000e-01" />
<circle cx=" 24" cy="206" r="77" fill="rgb(55, 144, 253)" fill-opacity = "6.53430198817394730000e-01" />
<circle cx=" 100" cy="160" r="354" fill="rgb(99, 43, 85)" fill-opacity = "1.01066054216408570000e-01" />
<circle cx=" 29" cy="780" r="16" fill="rgb(202, 100, 25)" fill-opacity = "9.36063705239630780000e-01" />
<circle cx=" 958" cy="69" r="180" fill="rgb(45, 126, 26)" fill-opacity = "6.40568993872471020000e-01" />
<circle cx=" 597" cy="798" r="139" fill="rgb(177, 69, 5)" fill-opacity = "1.80504597131537550000e-01" />
<circle cx=" 282" cy="629" r="375" fill="rgb(155, 100, 16)" fill-opacity = "2.61995462037470260000e-01" />
<circle cx=" 541" cy="913" r="321" fill="rgb(185, 64, 10)" fill-opacity = "3.46563282965896220000e-01" />
<circle cx=" 721" cy="227" r="235" fill="rgb(242, 36, 72)" fill-opacity = "1.70657624118869760000e-01" />
<circle cx=" 538" cy="750" r="378" fill="rgb(50, 109, 87)" fill-opacity = "1.70653548524393180000e-01" />
<circle cx=" 125" cy="174" r="50" fill="rgb(30, 50, 156)" fill-opacity = "1.54166969555420860000e-01" />
<circle cx=" 18" cy="685" r="376" fill="rgb(9, 93, 52)" fill-opacity = "4.73765511188362080000e-01" />
</svg>
