<svg height="1024" width="1024">
<circle cx=" 890" cy="203" r="376" fill="rgb(167, 28, 28)" fill-opacity = "8.76745557415668400000e-01" />
<circle cx=" 154" cy="883" r="230" fill="rgb(21, 16, 15)" fill-opacity = "4.26112474725837130000e-02" />
<circle cx=" 603" cy="133" r="165" fill="rgb(141, 26, 4)" fill-opacity = "6.51490085136029460000e-01" />
<circle cx=" 847" cy="910" r="226" fill="rgb(22, 36, 31)" fill-opacity = "8.82021132537231580000e-01" />
<circle cx=" 369" cy="115" r="308" fill="rgb(50, 150, 9)" fill-opacity = "4.60230102202426440000e-01" />
<circle cx=" 856" cy="958" r="379" fill="rgb(113, 36, 16)" fill-opacity = "6.24849337694627360000e-01" />
<circle cx=" 539" cy="916" r="157" fill="rgb(222, 20, 45)" fill-opacity = "3.82238789888936110000e-01" />
<circle cx=" 666" cy="194" r="91" fill="rgb(202, 21, 23)" fill-opacity = "8.91876357409820300000e-01" />
<circle cx=" 578" cy="478" r="19" fill="rgb(248, 25, 13)" fill-opacity = "4.11858536993415570000e-01" />
<circle cx=" 155" cy="893" r="139" fill="rgb(62, 64, 118)" fill-opacity = "1.25997205816898990000e-01" />
<circle cx=" 898" cy="841" r="209" fill="rgb(215, 50, 195)" fill-opacity = "4.63356991768189450000e-01" />
<circle cx=" 421" cy="15" r="260" fill="rgb(207, 2, 162)" fill-opacity = "5.11568373239119190000e-01" />
<circle cx=" 606" cy="114" r="197" fill="rgb(108, 83, 126)" fill-opacity = "8.68558572640158900000e-01" />
<circle cx=" 289" cy="704" r="167" fill="rgb(128, 90, 199)" fill-opacity = "3.09774047097459930000e-01" />
<circle cx=" 463" cy="606" r="249" fill="rgb(55, 111, 63)" fill-opacity = "2.51060033775673650000e-01" />
<circle cx=" 404" cy="58" r="254" fill="rgb(225, 176, 165)" fill-opacity = "6.88404802045418540000e-01" />
<circle cx=" 297" cy="931" r="96" fill="rgb(239, 74, 17)" fill-opacity = "2.64587158976279380000e-02" />
<circle cx=" 341" cy="798" r="97" fill="rgb(127, 104, 218)" fill-opacity = "7.46612669457647820000e-01" />
<circle cx=" 794" cy="304" r="322" fill="rgb(59, 202, 204)" fill-opacity = "5.49677304727026030000e-01" />
<circle cx=" 988" cy="66" r="337" fill="rgb(43, 86, 53)" fill-opacity = "5.47472208421507120000e-01" />
<circle cx=" 547" cy="10" r="282" fill="rgb(142, 136, 65)" fill-opacity = "1.32244199953289290000e-01" />
<circle cx=" 86" cy="197" r="300" fill="rgb(216, 80, 17)" fill-opacity = "4.77831382291313610000e-01" />
<circle cx=" 843" cy="981" r="141" fill="rgb(112, 127, 229)" fill-opacity = "2.45786953541694770000e-01" />
<circle cx=" 998" cy="3" r="176" fill="rgb(190, 142, 243)" fill-opacity = "4.79718692904536500000e-01" />
<circle cx=" 210" cy="425" r="101" fill="rgb(103, 242, 176)" fill-opacity = "6.14879794375764450000e-02" />
<circle cx=" 946" cy="26" r="209" fill="rgb(30, 140, 57)" fill-opacity = "6.89850494538506890000e-01" />
<circle cx=" 990" cy="558" r="257" fill="rgb(51, 32, 165)" fill-opacity = "8.79802469566257290000e-01" />
<circle cx=" 984" cy="798" r="381" fill="rgb(150, 160, 208)" fill-opacity = "4.84259897353106930000e-01" />
<circle cx=" 256" cy="328" r="366" fill="rgb(26, 130, 57)" fill-opacity = "6.11187518622530620000e-01" />
<circle cx=" 589" cy="715" r="126" fill="rgb(250, 56, 8)" fill-opacity = "6.54635620359565570000e-01" />
<circle cx=" 888" cy="886" r="252" fill="rgb(38, 107, 64)" fill-opacity = "1.76559323923057400000e-01" />
<circle cx=" 338" cy="67" r="81" fill="rgb(74, 109, 183)" fill-opacity = "3.99153568520103970000e-01" />
<circle cx=" 315" cy="221" r="177" fill="rgb(60, 59, 220)" fill-opacity = "4.08169609273275840000e-01" />
<circle cx=" 906" cy="227" r="26" fill="rgb(79, 121, 36)" fill-opacity = "6.48075007921773420000e-01" />
<circle cx=" 497" cy="352" r="48" fill="rgb(68, 165, 156)" fill-opacity = "5.90866631981811890000e-01" />
<circle cx=" 338" cy="349" r="219" fill="rgb(2, 138, 138)" fill-opacity = "4.29215064799240760000e-01" />
<circle cx=" 333" cy="376" r="281" fill="rgb(30, 156, 3)" fill-opacity = "9.90108976648723990000e-01" />
<circle cx=" 330" cy="362" r="306" fill="rgb(110, 111, 117)" fill-opacity = "5.46300350577020310000e-02" />
<circle cx=" 857" cy="131" r="380" fill="rgb(204, 19, 208)" fill-opacity = "9.94079002996640760000e-01" />
<circle cx=" 448" cy="499" r="45" fill="rgb(29, 151, 18)" fill-opacity = "1.99678779861740760000e-01" />
<circle cx=" 490" cy="216" r="13" fill="rgb(128, 129, 36)" fill-opacity = "2.24605766928670740000e-01" />
<circle cx=" 711" cy="756" r="168" fill="rgb(82, 24, 154)" fill-opacity = "2.40957199163337240000e-01" />
<circle cx=" 72" cy="549" r="369" fill="rgb(237, 102, 41)" fill-opacity = "5.80632978240079420000e-01" />
<circle cx=" 84" cy="981" r="134" fill="rgb(87, 233, 15)" fill-opacity = "2.34275251576439250000e-01" />
<circle cx=" 99" cy="657" r="28" fill="rgb(240, 207, 196)" fill-opacity = "7.54924807255520140000e-01" />
<circle cx=" 965" cy="803" r="230" fill="rgb(167, 133, 3)" fill-opacity = "4.92403832569756170000e-01" />
<circle cx=" 804" cy="884" r="67" fill="rgb(2, 206, 153)" fill-opacity = "1.77888834711570580000e-01" />
<circle cx=" 621" cy="984" r="156" fill="rgb(33, 55, 137)" fill-opacity = "8.24138038564468990000e-01" />
<circle cx=" 699" cy="758" r="303" fill="rgb(104, 100, 25)" fill-opacity = "8.23175845460977660000e-01" />
<circle cx=" 674" cy="42" r="6" fill="rgb(96, 37, 125)" fill-opacity = "5.74621606139298140000e-01" />
<circle cx=" 169" cy="513" r="185" fill="rgb(225, 19, 253)" fill-opacity = "4.54645901651025810000e-01" />
<circle cx=" 697" cy="395" r="83" fill="rgb(169, 47, 218)" fill-opacity = "5.80745395293496890000e-01" />
<circle cx=" 268" cy="684" r="349" fill="rgb(159, 115, 1)" fill-opacity = "4.05057505008867840000e-01" />
<circle cx=" 760" cy="116" r="258" fill="rgb(21, 34, 135)" fill-opacity = "9.34692579628738970000e-01" />
<circle cx=" 137" cy="529" r="142" fill="rgb(179, 20, 255)" fill-opacity = "9.59378064915598070000e-01" />
<circle cx=" 437" cy="385" r="166" fill="rgb(168, 112, 224)" fill-opacity = "1.20976735686147750000e-01" />
<circle cx=" 52" cy="403" r="57" fill="rgb(60, 61, 151)" fill-opacity = "4.46201188671521030000e-01" />
<circle cx=" 169" cy="281" r="221" fill="rgb(127, 225, 2)" fill-opacity = "7.51638071323261330000e-01" />
<circle cx=" 903" cy="664" r="179" fill="rgb(239, 133, 76)" fill-opacity = "1.01312069841725580000e-01" />
<circle cx=" 629" cy="115" r="30" fill="rgb(187, 109, 45)" fill-opacity = "7.35922891040850400000e-01" />
<circle cx=" 905" cy="575" r="251" fill="rgb(75, 220, 62)" fill-opacity = "4.62947961369720940000e-01" />
<circle cx=" 686" cy="160" r="358" fill="rgb(31, 198, 162)" fill-opacity = "5.63733752834933540000e-01" />
<circle cx=" 735" cy="627" r="15" fill="rgb(230, 109, 22)" fill-opacity = "6.87161789010352740000e-01" />
<circle cx=" 555" cy="717" r="263" fill="rgb(22, 162, 41)" fill-opacity = "9.49857918380070170000e-01" />
<circle cx=" 594" cy="488" r="126" fill="rgb(24, 188, 185)" fill-opacity = "8.16558079527335500000e-01" />
<circle cx=" 239" cy="169" r="6" fill="rgb(244, 76, 24)" fill-opacity = "2.60366095826066510000e-01" />
<circle cx=" 223" cy="637" r="207" fill="rgb(91, 91, 111)" fill-opacity = "6.44407577325300630000e-01" />
<circle cx=" 71" cy="649" r="293" fill="rgb(185, 149, 139)" fill-opacity = "6.96185032088693420000e-01" />
<circle cx=" 48" cy="645" r="304" fill="rgb(6, 84, 104)" fill-opacity = "4.46488433130995070000e-01" />
<circle cx=" 556" cy="306" r="397" fill="rgb(156, 96, 47)" fill-opacity = "4.89621303510561660000e-01" />
<circle cx=" 488" cy="64" r="395" fill="rgb(109, 27, 145)" fill-opacity = "3.82253390818223960000e-01" />
<circle cx=" 702" cy="933" r="146" fill="rgb(103, 228, 113)" fill-opacity = "3.86843683380287520000e-01" />
<circle cx=" 219" cy="178" r="135" fill="rgb(227, 147, 44)" fill-opacity = "3.45572499305211170000e-01" />
<circle cx=" 331" cy="1005" r="308" fill="rgb(32, 151, 169)" fill-opacity = "7.11742702438779240000e-01" />
<circle cx=" 714" cy="567" r="266" fill="rgb(75, 121, 11)" fill-opacity = "5.62079060742579180000e-01" />
<circle cx=" 276" cy="825" r="321" fill="rgb(49, 195, 38)" fill-opacity = "5.66521249517775160000e-01" />
<circle cx=" 859" cy="1005" r="122" fill="rgb(85, 140, 111)" fill-opacity = "3.83791003683933150000e-02" />
<circle cx=" 635" cy="282" r="331" fill="rgb(70, 61, 163)" fill-opacity = "1.84633962518386820000e-01" />
<circle cx=" 272" cy="387" r="310" fill="rgb(82, 243, 131)" fill-opacity = "6.41054331789722820000e-01" />
<circle cx=" 91" cy="42" r="139" fill="rgb(108, 203, 44)" fill-opacity = "8.02042308533757580000e-01" />
<circle cx=" 265" cy="375" r="229" fill="rgb(143, 66, 58)" fill-opacity = "7.61655469645391660000e-01" />
<circle cx=" 866" cy="708" r="159" fill="rgb(10, 48, 183)" fill-opacity = "8.95760471722170440000e-01" />
<circle cx=" 524" cy="420" r="283" fill="rgb(94, 84, 27)" fill-opacity = "6.96185032088693420000e-01" />
<circle cx=" 454" cy="383" r="209" fill="rgb(166, 112, 208)" fill-opacity = "5.24227558001953310000e-01" />
<circle cx=" 38" cy="714" r="92" fill="rgb(126, 102, 153)" fill-opacity = "9.63732819641260670000e-01" />
<circle cx=" 150" cy="969" r="259" fill="rgb(252, 8, 187)" fill-opacity = "6.55769839581337390000e-01" />
<circle cx=" 911" cy="566" r="347" fill="rgb(99, 174, 64)" fill-opacity = "1.21509376841538290000e-01" />
<circle cx=" 326" cy="947" r="347" fill="rgb(118, 85, 111)" fill-opacity = "1.17652434556500650000e-01" />
<circle cx=" 422" cy="401" r="150" fill="rgb(31, 192, 168)" fill-opacity = "1.72395226680953200000e-01" />
<circle cx=" 239" cy="939" r="231" fill="rgb(136, 210, 156)" fill-opacity = "2.75188581028888100000e-01" />
<circle cx=" 562" cy="205" r="129" fill="rgb(58, 96, 237)" fill-opacity = "3.04206923561029630000e-01" />
<circle cx=" 883" cy="129" r="398" fill="rgb(61, 54, 111)" fill-opacity = "7.57494614816638820000e-01" />
<circle cx=" 7" cy="289" r="251" fill="rgb(181, 216, 41)" fill-opacity = "9.22425620624009790000e-01" />
<circle cx=" 643" cy="241" r="374" fill="rgb(78, 132, 239)" fill-opacity = "4.00531535383835010000e-01" />
<circle cx=" 577" cy="591" r="116" fill="rgb(44, 19, 180)" fill-opacity = "1.92062509683380790000e-01" />
<circle cx=" 41" cy="414" r="62" fill="rgb(56, 210, 201)" fill-opacity = "8.24901464044712650000e-01" />
<circle cx=" 42" cy="952" r="384" fill="rgb(21, 243, 122)" fill-opacity = "2.45337039233142210000e-02" />
<circle cx=" 665" cy="700" r="349" fill="rgb(18, 56, 14)" fill-opacity = "9.23865773563809500000e-01" />
<circle cx=" 697" cy="476" r="304" fill="rgb(185, 210, 244)" fill-opacity = "2.89633216338786250000e-01" />
<circle cx=" 447" cy="812" r="358" fill="rgb(46, 125, 69)" fill-opacity = "8.54094608999470760000e-01" />
<circle cx=" 5" cy="248" r="290" fill="rgb(163, 107, 81)" fill-opacity = "2.47009446584295580000e-01" />
<circle cx=" 136" cy="851" r="362" fill="rgb(120, 202, 247)" fill-opacity = "8.23175845460977660000e-01" />
<circle cx=" 293" cy="747" r="386" fill="rgb(210, 55, 203)" fill-opacity = "5.50930739678245460000e-01" />
<circle cx=" 277" cy="191" r="81" fill="rgb(199, 181, 111)" fill-opacity = "5.24658774328386590000e-01" />
<circle cx=" 333" cy="741" r="389" fill="rgb(165, 191, 3)" fill-opacity = "3.17435264541541920000e-01" />
<circle cx=" 903" cy="765" r="361" fill="rgb(205, 207, 134)" fill-opacity = "7.75965674196542830000e-01" />
<circle cx=" 188" cy="759" r="134" fill="rgb(9, 65, 158)" fill-opacity = "4.86529336866506900000e-01" />
<circle cx=" 875" cy="17" r="398" fill="rgb(142, 245, 108)" fill-opacity = "9.69547300783556660000e-01" />
<circle cx=" 329" cy="215" r="331" fill="rgb(202, 219, 185)" fill-opacity = "7.07477359344666380000e-01" />
<circle cx=" 446" cy="725" r="175" fill="rgb(79, 234, 219)" fill-opacity = "1.44448997199507100000e-01" />
<circle cx=" 999" cy="707" r="347" fill="rgb(203, 89, 86)" fill-opacity = "5.76748349973470910000e-01" />
<circle cx=" 64" cy="79" r="78" fill="rgb(49, 134, 28)" fill-opacity = "8.37837130549567880000e-01" />
<circle cx=" 86" cy="655" r="245" fill="rgb(129, 17, 10)" fill-opacity = "4.91965472774539720000e-01" />
<circle cx=" 992" cy="495" r="377" fill="rgb(214, 46, 19)" fill-opacity = "9.19678297038184270000e-01" />
<circle cx=" 301" cy="185" r="210" fill="rgb(190, 37, 128)" fill-opacity = "9.45100865349496560000e-01" />
<circle cx=" 302" cy="895" r="43" fill="rgb(243, 156, 210)" fill-opacity = "5.23100953902071230000e-01" />
<circle cx=" 620" cy="347" r="169" fill="rgb(79, 141, 162)" fill-opacity = "4.26593425605997110000e-01" />
<circle cx=" 214" cy="221" r="202" fill="rgb(125, 133, 146)" fill-opacity = "3.37841255732795660000e-01" />
<circle cx=" 547" cy="272" r="310" fill="rgb(85, 204, 199)" fill-opacity = "4.50397093377564280000e-01" />
<circle cx=" 34" cy="863" r="199" fill="rgb(124, 79, 256)" fill-opacity = "3.37811042745221890000e-01" />
<circle cx=" 191" cy="753" r="267" fill="rgb(50, 86, 7)" fill-opacity = "1.82417750324603830000e-02" />
<circle cx=" 256" cy="144" r="149" fill="rgb(230, 129, 199)" fill-opacity = "2.28583799162271670000e-01" />
<circle cx=" 226" cy="595" r="233" fill="rgb(102, 206, 6)" fill-opacity = "1.57550977363256850000e-01" />
<circle cx=" 52" cy="170" r="292" fill="rgb(70, 174, 188)" fill-opacity = "1.16158902809508910000e-01" />
<circle cx=" 870" cy="714" r="58" fill="rgb(14, 188, 35)" fill-opacity = "9.91901685491824000000e-01" />
<circle cx=" 585" cy="42" r="134" fill="rgb(72, 10, 156)" fill-opacity = "3.11369261868149170000e-01" />
<circle cx=" 442" cy="960" r="281" fill="rgb(169, 212, 37)" fill-opacity = "2.06908535771801460000e-02" />
<circle cx=" 956" cy="7" r="240" fill="rgb(84, 63, 85)" fill-opacity = "4.09863870618165430000e-01" />
<circle cx=" 748" cy="585" r="197" fill="rgb(121, 190, 240)" fill-opacity = "3.59878373596690610000e-01" />
<circle cx=" 399" cy="928" r="265" fill="rgb(175, 51, 5)" fill-opacity = "4.82307899679712100000e-01" />
<circle cx=" 811" cy="959" r="61" fill="rgb(156, 86, 207)" fill-opacity = "4.39726071769180660000e-01" />
<circle cx=" 663" cy="389" r="288" fill="rgb(32, 82, 67)" fill-opacity = "3.96493440170112340000e-01" />
<circle cx=" 764" cy="962" r="106" fill="rgb(145, 114, 184)" fill-opacity = "3.97520658183230680000e-01" />
<circle cx=" 296" cy="377" r="396" fill="rgb(163, 24, 98)" fill-opacity = "8.51206004174058340000e-01" />
<circle cx=" 461" cy="533" r="203" fill="rgb(104, 3, 60)" fill-opacity = "4.49603625358262700000e-01" />
<circle cx=" 957" cy="858" r="167" fill="rgb(237, 161, 92)" fill-opacity = "7.80318809753621780000e-02" />
<circle cx=" 28" cy="85" r="83" fill="rgb(229, 17, 195)" fill-opacity = "2.71587187941498160000e-01" />
<circle cx=" 177" cy="317" r="227" fill="rgb(106, 36, 124)" fill-opacity = "1.99105743935578120000e-01" />
<circle cx=" 632" cy="460" r="360" fill="rgb(165, 186, 71)" fill-opacity = "7.34210722063963540000e-01" />
<circle cx=" 233" cy="705" r="146" fill="rgb(143, 50, 195)" fill-opacity = "4.47652790311362740000e-01" />
<circle cx=" 443" cy="492" r="389" fill="rgb(13, 170, 54)" fill-opacity = "4.77020028542122660000e-01" />
<circle cx=" 347" cy="478" r="373" fill="rgb(128, 112, 13)" fill-opacity = "2.88064675568391330000e-01" />
<circle cx=" 589" cy="109" r="104" fill="rgb(155, 244, 26)" fill-opacity = "8.91876357409820300000e-01" />
<circle cx=" 597" cy="135" r="324" fill="rgb(162, 64, 23)" fill-opacity = "1.50837417640734990000e-01" />
<circle cx=" 744" cy="696" r="379" fill="rgb(29, 75, 23)" fill-opacity = "9.65080590828335530000e-01" />
<circle cx=" 587" cy="496" r="114" fill="rgb(56, 1, 80)" fill-opacity = "3.38914444265943970000e-01" />
<circle cx=" 143" cy="910" r="357" fill="rgb(65, 43, 3)" fill-opacity = "8.82021132537231580000e-01" />
<circle cx=" 203" cy="183" r="106" fill="rgb(242, 176, 108)" fill-opacity = "6.82882898805027060000e-01" />
<circle cx=" 812" cy="480" r="190" fill="rgb(15, 53, 33)" fill-opacity = "2.35866751303936750000e-01" />
<circle cx=" 419" cy="654" r="322" fill="rgb(66, 92, 8)" fill-opacity = "2.75186917444956160000e-01" />
</svg>
