<svg height="1024" width="1024">
<circle cx=" 351" cy="677" r="338" fill="rgb(9, 26, 5)" fill-opacity = "2.19444308644272780000e-01" />
<circle cx=" 744" cy="162" r="123" fill="rgb(15, 76, 239)" fill-opacity = "2.77784759007936090000e-01" />
<circle cx=" 277" cy="403" r="88" fill="rgb(222, 104, 108)" fill-opacity = "5.15651912194023510000e-01" />
<circle cx=" 54" cy="323" r="169" fill="rgb(127, 167, 79)" fill-opacity = "1.81481408873549020000e-01" />
<circle cx=" 5" cy="803" r="108" fill="rgb(227, 215, 226)" fill-opacity = "3.39556237421080150000e-01" />
<circle cx=" 371" cy="674" r="94" fill="rgb(221, 187, 74)" fill-opacity = "2.71170139673422960000e-01" />
<circle cx=" 597" cy="865" r="118" fill="rgb(153, 146, 37)" fill-opacity = "9.36926192178973990000e-01" />
<circle cx=" 555" cy="597" r="242" fill="rgb(85, 171, 32)" fill-opacity = "7.30526023887016150000e-01" />
<circle cx=" 475" cy="391" r="229" fill="rgb(69, 212, 187)" fill-opacity = "7.47162031635584260000e-03" />
<circle cx=" 749" cy="801" r="318" fill="rgb(211, 154, 128)" fill-opacity = "7.04484158724575590000e-01" />
<circle cx=" 469" cy="900" r="288" fill="rgb(192, 50, 13)" fill-opacity = "6.53430198817394730000e-01" />
<circle cx=" 556" cy="601" r="314" fill="rgb(251, 114, 218)" fill-opacity = "2.16242875387947730000e-01" />
<circle cx=" 83" cy="91" r="304" fill="rgb(236, 131, 76)" fill-opacity = "4.28749034092058560000e-01" />
<circle cx=" 775" cy="67" r="111" fill="rgb(23, 137, 159)" fill-opacity = "8.65070868694258090000e-01" />
<circle cx=" 331" cy="727" r="165" fill="rgb(47, 161, 161)" fill-opacity = "2.96721211941672220000e-01" />
<circle cx=" 40" cy="804" r="113" fill="rgb(210, 148, 238)" fill-opacity = "1.60399049462496280000e-01" />
<circle cx=" 324" cy="881" r="51" fill="rgb(23, 26, 101)" fill-opacity = "7.10117876734665200000e-01" />
<circle cx=" 330" cy="779" r="337" fill="rgb(42, 32, 14)" fill-opacity = "3.21382820839292820000e-01" />
<circle cx=" 659" cy="763" r="134" fill="rgb(137, 145, 221)" fill-opacity = "1.17764972722601780000e-01" />
<circle cx=" 562" cy="742" r="100" fill="rgb(53, 20, 97)" fill-opacity = "7.59235159229748050000e-01" />
<circle cx=" 537" cy="116" r="259" fill="rgb(85, 191, 141)" fill-opacity = "1.76782531984589040000e-01" />
<circle cx=" 979" cy="808" r="221" fill="rgb(26, 131, 137)" fill-opacity = "2.41277673012518350000e-01" />
<circle cx=" 552" cy="398" r="298" fill="rgb(93, 62, 178)" fill-opacity = "9.20898098423905460000e-01" />
<circle cx=" 495" cy="257" r="306" fill="rgb(140, 99, 105)" fill-opacity = "8.77540373412674770000e-01" />
<circle cx=" 884" cy="948" r="320" fill="rgb(230, 214, 251)" fill-opacity = "4.99575732738049890000e-01" />
<circle cx=" 361" cy="714" r="214" fill="rgb(164, 70, 245)" fill-opacity = "6.92668175328610140000e-01" />
<circle cx=" 855" cy="77" r="247" fill="rgb(80, 138, 142)" fill-opacity = "7.36711070201527150000e-01" />
<circle cx=" 455" cy="595" r="337" fill="rgb(250, 42, 256)" fill-opacity = "4.16249317781788090000e-01" />
<circle cx=" 467" cy="844" r="306" fill="rgb(60, 179, 166)" fill-opacity = "7.75340884954373590000e-01" />
<circle cx=" 995" cy="492" r="39" fill="rgb(159, 27, 250)" fill-opacity = "4.69762847926347820000e-01" />
<circle cx=" 241" cy="540" r="279" fill="rgb(62, 10, 142)" fill-opacity = "2.86388586321685510000e-01" />
<circle cx=" 910" cy="142" r="268" fill="rgb(241, 181, 38)" fill-opacity = "9.36530381565074950000e-02" />
<circle cx=" 933" cy="620" r="85" fill="rgb(178, 26, 107)" fill-opacity = "7.61434293541291220000e-01" />
<circle cx=" 435" cy="191" r="396" fill="rgb(46, 215, 129)" fill-opacity = "7.97947116861802310000e-01" />
<circle cx=" 404" cy="981" r="34" fill="rgb(241, 93, 223)" fill-opacity = "2.71316233530213720000e-01" />
<circle cx=" 262" cy="252" r="163" fill="rgb(215, 175, 115)" fill-opacity = "9.57738255404425590000e-01" />
<circle cx=" 495" cy="527" r="367" fill="rgb(237, 199, 37)" fill-opacity = "9.91133346006118020000e-01" />
<circle cx=" 505" cy="258" r="310" fill="rgb(82, 144, 163)" fill-opacity = "5.55359326003129320000e-01" />
<circle cx=" 390" cy="716" r="11" fill="rgb(194, 78, 223)" fill-opacity = "3.51612714040125510000e-01" />
<circle cx=" 462" cy="511" r="211" fill="rgb(203, 140, 145)" fill-opacity = "7.17989856491669800000e-02" />
<circle cx=" 902" cy="896" r="204" fill="rgb(117, 58, 64)" fill-opacity = "6.61265959271329250000e-01" />
<circle cx=" 358" cy="324" r="118" fill="rgb(245, 30, 236)" fill-opacity = "6.20650270524837570000e-01" />
<circle cx=" 194" cy="346" r="123" fill="rgb(91, 234, 150)" fill-opacity = "5.38481854716160950000e-01" />
<circle cx=" 447" cy="299" r="99" fill="rgb(12, 9, 55)" fill-opacity = "9.93508244659803810000e-01" />
<circle cx=" 668" cy="369" r="60" fill="rgb(19, 89, 137)" fill-opacity = "6.59412156110415150000e-01" />
<circle cx=" 168" cy="354" r="328" fill="rgb(194, 100, 130)" fill-opacity = "6.30300825210765800000e-01" />
<circle cx=" 704" cy="662" r="181" fill="rgb(56, 74, 210)" fill-opacity = "9.69833106439674800000e-01" />
<circle cx=" 842" cy="22" r="211" fill="rgb(159, 114, 103)" fill-opacity = "4.22838618574195020000e-01" />
<circle cx=" 53" cy="972" r="41" fill="rgb(188, 157, 210)" fill-opacity = "6.97160217224561230000e-01" />
<circle cx=" 10" cy="646" r="288" fill="rgb(8, 31, 160)" fill-opacity = "8.18699470184152120000e-01" />
<circle cx=" 713" cy="426" r="59" fill="rgb(72, 111, 252)" fill-opacity = "1.83430457725406890000e-01" />
<circle cx=" 807" cy="7" r="232" fill="rgb(29, 153, 183)" fill-opacity = "2.73712495041898760000e-01" />
<circle cx=" 625" cy="429" r="342" fill="rgb(26, 137, 184)" fill-opacity = "9.87873103779422390000e-01" />
<circle cx=" 217" cy="891" r="371" fill="rgb(104, 95, 136)" fill-opacity = "6.35776570698490810000e-01" />
<circle cx=" 466" cy="529" r="358" fill="rgb(224, 44, 149)" fill-opacity = "4.37685720960534930000e-01" />
<circle cx=" 902" cy="15" r="35" fill="rgb(88, 19, 75)" fill-opacity = "4.93748704829630290000e-01" />
<circle cx=" 263" cy="744" r="19" fill="rgb(8, 115, 95)" fill-opacity = "5.75232786145350450000e-01" />
<circle cx=" 225" cy="771" r="221" fill="rgb(191, 226, 170)" fill-opacity = "8.29810052264861490000e-01" />
<circle cx=" 129" cy="638" r="272" fill="rgb(99, 243, 136)" fill-opacity = "7.96368296733169330000e-01" />
<circle cx=" 756" cy="686" r="368" fill="rgb(26, 141, 63)" fill-opacity = "5.63399997063553040000e-01" />
<circle cx=" 424" cy="91" r="61" fill="rgb(93, 248, 207)" fill-opacity = "1.72520863175950060000e-01" />
<circle cx=" 958" cy="177" r="131" fill="rgb(7, 192, 88)" fill-opacity = "6.23611538903628750000e-01" />
<circle cx=" 113" cy="947" r="281" fill="rgb(15, 109, 33)" fill-opacity = "5.33475239329864290000e-01" />
<circle cx=" 170" cy="237" r="239" fill="rgb(95, 174, 147)" fill-opacity = "9.16342413852948460000e-01" />
<circle cx=" 436" cy="887" r="18" fill="rgb(49, 9, 29)" fill-opacity = "3.77328570604104740000e-01" />
<circle cx=" 834" cy="737" r="148" fill="rgb(60, 151, 138)" fill-opacity = "5.12387299066269450000e-01" />
<circle cx=" 212" cy="165" r="330" fill="rgb(189, 184, 142)" fill-opacity = "6.56670765579009610000e-01" />
<circle cx=" 885" cy="410" r="60" fill="rgb(1, 20, 218)" fill-opacity = "6.96185032088693420000e-01" />
<circle cx=" 973" cy="91" r="227" fill="rgb(155, 41, 57)" fill-opacity = "5.00827521513532940000e-01" />
<circle cx=" 279" cy="648" r="272" fill="rgb(6, 209, 215)" fill-opacity = "2.35733640626182960000e-01" />
<circle cx=" 611" cy="763" r="69" fill="rgb(184, 251, 58)" fill-opacity = "2.65141898299643410000e-02" />
<circle cx=" 978" cy="330" r="383" fill="rgb(63, 111, 150)" fill-opacity = "3.15525319654386570000e-01" />
<circle cx=" 646" cy="804" r="48" fill="rgb(213, 206, 104)" fill-opacity = "4.66237501787311710000e-01" />
<circle cx=" 988" cy="666" r="176" fill="rgb(119, 76, 182)" fill-opacity = "1.91163668605434990000e-01" />
<circle cx=" 116" cy="432" r="76" fill="rgb(136, 3, 98)" fill-opacity = "5.19410992131743800000e-01" />
<circle cx=" 361" cy="754" r="173" fill="rgb(152, 162, 255)" fill-opacity = "7.86736348942358440000e-01" />
<circle cx=" 121" cy="953" r="222" fill="rgb(103, 204, 57)" fill-opacity = "1.52811173920827330000e-01" />
<circle cx=" 700" cy="180" r="170" fill="rgb(133, 3, 51)" fill-opacity = "4.74610972582535600000e-01" />
<circle cx=" 725" cy="799" r="206" fill="rgb(86, 3, 41)" fill-opacity = "7.05003413094391180000e-01" />
<circle cx=" 582" cy="431" r="143" fill="rgb(42, 101, 100)" fill-opacity = "4.10341560208622890000e-01" />
<circle cx=" 520" cy="685" r="299" fill="rgb(221, 77, 116)" fill-opacity = "4.93646347917090500000e-01" />
<circle cx=" 596" cy="422" r="227" fill="rgb(146, 149, 30)" fill-opacity = "3.54328076301622110000e-02" />
<circle cx=" 518" cy="573" r="288" fill="rgb(144, 49, 25)" fill-opacity = "9.62711148726083990000e-01" />
<circle cx=" 791" cy="964" r="177" fill="rgb(15, 206, 183)" fill-opacity = "1.58850679781620710000e-01" />
<circle cx=" 372" cy="688" r="385" fill="rgb(194, 11, 138)" fill-opacity = "3.00700376600941510000e-01" />
<circle cx=" 109" cy="864" r="265" fill="rgb(113, 43, 192)" fill-opacity = "6.74706901005459160000e-01" />
<circle cx=" 992" cy="875" r="38" fill="rgb(65, 162, 203)" fill-opacity = "9.25069701889715160000e-01" />
<circle cx=" 417" cy="682" r="130" fill="rgb(226, 36, 113)" fill-opacity = "6.73478984689521720000e-01" />
<circle cx=" 781" cy="156" r="97" fill="rgb(6, 64, 47)" fill-opacity = "2.97065999530446770000e-01" />
<circle cx=" 997" cy="386" r="227" fill="rgb(140, 115, 72)" fill-opacity = "8.57832415376866940000e-01" />
<circle cx=" 727" cy="679" r="286" fill="rgb(253, 194, 145)" fill-opacity = "3.70328890382147560000e-01" />
<circle cx=" 729" cy="678" r="238" fill="rgb(70, 25, 18)" fill-opacity = "7.71344484394254290000e-01" />
<circle cx=" 725" cy="852" r="219" fill="rgb(139, 27, 112)" fill-opacity = "8.30687326892572740000e-01" />
<circle cx=" 239" cy="236" r="16" fill="rgb(106, 240, 240)" fill-opacity = "8.73128051159808740000e-01" />
<circle cx=" 238" cy="400" r="398" fill="rgb(171, 159, 85)" fill-opacity = "5.32057850483816150000e-01" />
<circle cx=" 362" cy="254" r="30" fill="rgb(101, 42, 4)" fill-opacity = "5.01385199735573830000e-01" />
<circle cx=" 967" cy="533" r="277" fill="rgb(120, 116, 61)" fill-opacity = "2.37096556026514470000e-01" />
<circle cx=" 399" cy="501" r="388" fill="rgb(149, 153, 76)" fill-opacity = "1.94992104248920660000e-01" />
<circle cx=" 946" cy="633" r="83" fill="rgb(212, 39, 41)" fill-opacity = "1.24556976112431880000e-01" />
<circle cx=" 877" cy="564" r="358" fill="rgb(187, 211, 49)" fill-opacity = "5.24445198605360210000e-01" />
<circle cx=" 601" cy="211" r="290" fill="rgb(74, 211, 16)" fill-opacity = "8.69360814219750640000e-01" />
<circle cx=" 492" cy="338" r="136" fill="rgb(151, 26, 67)" fill-opacity = "2.48442349053725310000e-01" />
<circle cx=" 540" cy="733" r="361" fill="rgb(188, 152, 117)" fill-opacity = "4.79490753729265640000e-01" />
<circle cx=" 73" cy="226" r="266" fill="rgb(205, 176, 191)" fill-opacity = "4.37381417162681090000e-02" />
<circle cx=" 685" cy="612" r="338" fill="rgb(181, 206, 195)" fill-opacity = "1.29389844771552460000e-01" />
<circle cx=" 937" cy="948" r="121" fill="rgb(23, 84, 79)" fill-opacity = "6.01654937697524210000e-01" />
<circle cx=" 873" cy="373" r="215" fill="rgb(65, 208, 198)" fill-opacity = "7.61454257088570950000e-01" />
<circle cx=" 906" cy="960" r="357" fill="rgb(216, 225, 78)" fill-opacity = "4.18118911635702030000e-01" />
<circle cx=" 237" cy="690" r="221" fill="rgb(160, 199, 207)" fill-opacity = "6.77626754592855150000e-01" />
<circle cx=" 388" cy="189" r="88" fill="rgb(157, 169, 17)" fill-opacity = "9.49553407269618790000e-01" />
<circle cx=" 567" cy="1011" r="118" fill="rgb(130, 82, 8)" fill-opacity = "8.61885131546634260000e-01" />
<circle cx=" 574" cy="49" r="1" fill="rgb(201, 132, 93)" fill-opacity = "1.36529875792024140000e-02" />
<circle cx=" 413" cy="496" r="223" fill="rgb(117, 63, 2)" fill-opacity = "5.46300350577020310000e-02" />
<circle cx=" 183" cy="768" r="83" fill="rgb(243, 90, 64)" fill-opacity = "3.03658310316574200000e-01" />
<circle cx=" 513" cy="502" r="6" fill="rgb(251, 27, 22)" fill-opacity = "1.21893898345480260000e-01" />
<circle cx=" 335" cy="88" r="126" fill="rgb(3, 34, 89)" fill-opacity = "4.78014009977207670000e-01" />
<circle cx=" 519" cy="1" r="169" fill="rgb(125, 27, 96)" fill-opacity = "8.55035660115114340000e-01" />
<circle cx=" 331" cy="867" r="202" fill="rgb(24, 43, 213)" fill-opacity = "7.87993393191313230000e-01" />
<circle cx=" 824" cy="1024" r="66" fill="rgb(61, 187, 139)" fill-opacity = "8.05121337822354400000e-01" />
<circle cx=" 944" cy="11" r="214" fill="rgb(204, 173, 46)" fill-opacity = "9.46994585460162460000e-01" />
<circle cx=" 93" cy="914" r="236" fill="rgb(214, 244, 134)" fill-opacity = "7.10971843793407390000e-01" />
<circle cx=" 982" cy="883" r="366" fill="rgb(238, 73, 6)" fill-opacity = "5.37504327778576490000e-01" />
<circle cx=" 753" cy="751" r="305" fill="rgb(216, 14, 23)" fill-opacity = "5.58629262490410340000e-01" />
<circle cx=" 443" cy="982" r="143" fill="rgb(175, 48, 135)" fill-opacity = "2.37496827023925270000e-01" />
<circle cx=" 828" cy="215" r="315" fill="rgb(101, 31, 125)" fill-opacity = "1.69402259073256900000e-02" />
<circle cx=" 503" cy="75" r="106" fill="rgb(231, 29, 239)" fill-opacity = "3.69065182218027750000e-01" />
<circle cx=" 572" cy="51" r="395" fill="rgb(135, 249, 90)" fill-opacity = "4.02815645407034410000e-01" />
<circle cx=" 535" cy="195" r="176" fill="rgb(3, 154, 201)" fill-opacity = "3.25373778286109690000e-01" />
<circle cx=" 710" cy="465" r="197" fill="rgb(162, 97, 241)" fill-opacity = "4.77831382291313610000e-01" />
<circle cx=" 133" cy="889" r="241" fill="rgb(70, 135, 65)" fill-opacity = "7.99818104356954770000e-01" />
<circle cx=" 849" cy="679" r="78" fill="rgb(236, 163, 160)" fill-opacity = "1.11591090375805500000e-01" />
<circle cx=" 664" cy="193" r="163" fill="rgb(100, 2, 119)" fill-opacity = "2.86593944388143340000e-01" />
<circle cx=" 220" cy="559" r="97" fill="rgb(76, 91, 120)" fill-opacity = "1.34456822123537380000e-01" />
<circle cx=" 239" cy="506" r="234" fill="rgb(95, 90, 8)" fill-opacity = "7.73418988863608710000e-01" />
<circle cx=" 570" cy="738" r="6" fill="rgb(116, 195, 34)" fill-opacity = "3.74262615974324310000e-01" />
<circle cx=" 139" cy="664" r="179" fill="rgb(91, 86, 102)" fill-opacity = "4.88402396048990490000e-01" />
<circle cx=" 519" cy="26" r="246" fill="rgb(110, 65, 28)" fill-opacity = "9.25847170990350850000e-01" />
<circle cx=" 561" cy="1018" r="51" fill="rgb(50, 44, 225)" fill-opacity = "3.60505635611662710000e-01" />
<circle cx=" 1017" cy="237" r="384" fill="rgb(99, 156, 33)" fill-opacity = "8.43378755989458660000e-01" />
<circle cx=" 337" cy="616" r="27" fill="rgb(33, 104, 230)" fill-opacity = "4.49313785962297540000e-01" />
<circle cx=" 429" cy="707" r="72" fill="rgb(60, 234, 85)" fill-opacity = "6.12305226837778220000e-01" />
<circle cx=" 29" cy="931" r="91" fill="rgb(19, 178, 136)" fill-opacity = "1.25444868880928650000e-01" />
<circle cx=" 530" cy="403" r="244" fill="rgb(228, 101, 162)" fill-opacity = "7.35210892949967440000e-01" />
<circle cx=" 97" cy="901" r="226" fill="rgb(175, 127, 76)" fill-opacity = "3.72931923115328970000e-01" />
<circle cx=" 760" cy="557" r="227" fill="rgb(48, 146, 69)" fill-opacity = "2.61995462037470260000e-01" />
<circle cx=" 46" cy="925" r="127" fill="rgb(88, 57, 154)" fill-opacity = "7.06544965644529290000e-01" />
<circle cx=" 222" cy="739" r="338" fill="rgb(163, 7, 16)" fill-opacity = "6.43870943113150850000e-01" />
<circle cx=" 663" cy="517" r="97" fill="rgb(215, 156, 148)" fill-opacity = "9.75736785953664200000e-01" />
<circle cx=" 38" cy="304" r="312" fill="rgb(201, 120, 92)" fill-opacity = "5.27283495525835200000e-01" />
<circle cx=" 543" cy="471" r="37" fill="rgb(221, 58, 74)" fill-opacity = "2.66314278903450720000e-01" />
</svg>
