<svg height="1024" width="1024">
<circle cx=" 859" cy="526" r="225" fill="rgb(17, 163, 52)" fill-opacity = "5.56333951100996820000e-01" />
<circle cx=" 656" cy="803" r="249" fill="rgb(122, 183, 92)" fill-opacity = "5.67599938436698310000e-01" />
<circle cx=" 973" cy="334" r="88" fill="rgb(106, 176, 239)" fill-opacity = "6.24510521572569920000e-01" />
<circle cx=" 631" cy="579" r="325" fill="rgb(185, 95, 42)" fill-opacity = "6.09133206336346380000e-01" />
<circle cx=" 277" cy="925" r="348" fill="rgb(108, 223, 210)" fill-opacity = "7.06544965644529290000e-01" />
<circle cx=" 582" cy="557" r="375" fill="rgb(221, 146, 43)" fill-opacity = "2.71170139673422960000e-01" />
<circle cx=" 597" cy="865" r="343" fill="rgb(139, 32, 255)" fill-opacity = "5.80515309749364490000e-01" />
<circle cx=" 530" cy="318" r="29" fill="rgb(21, 171, 140)" fill-opacity = "3.59056069908492150000e-04" />
<circle cx=" 562" cy="429" r="229" fill="rgb(251, 185, 149)" fill-opacity = "7.47162031635584260000e-03" />
<circle cx=" 861" cy="595" r="193" fill="rgb(70, 46, 85)" fill-opacity = "1.94156880325031090000e-01" />
<circle cx=" 337" cy="152" r="106" fill="rgb(104, 225, 13)" fill-opacity = "1.39278650716693870000e-01" />
<circle cx=" 824" cy="977" r="314" fill="rgb(9, 156, 218)" fill-opacity = "1.58391232826461390000e-01" />
<circle cx=" 807" cy="91" r="387" fill="rgb(210, 99, 96)" fill-opacity = "9.50665088248848100000e-01" />
<circle cx=" 167" cy="523" r="117" fill="rgb(255, 27, 18)" fill-opacity = "5.45874869478091270000e-02" />
<circle cx=" 331" cy="303" r="17" fill="rgb(125, 161, 128)" fill-opacity = "2.25629950542793890000e-02" />
<circle cx=" 103" cy="855" r="99" fill="rgb(178, 188, 34)" fill-opacity = "1.60399049462496280000e-01" />
<circle cx=" 517" cy="113" r="393" fill="rgb(55, 26, 71)" fill-opacity = "5.94480547746655490000e-01" />
<circle cx=" 686" cy="227" r="389" fill="rgb(180, 30, 14)" fill-opacity = "1.34456822123537380000e-01" />
<circle cx=" 13" cy="817" r="344" fill="rgb(152, 46, 205)" fill-opacity = "7.46079157788168690000e-02" />
<circle cx=" 998" cy="795" r="59" fill="rgb(229, 163, 118)" fill-opacity = "3.05798073590389350000e-01" />
<circle cx=" 40" cy="116" r="253" fill="rgb(93, 191, 79)" fill-opacity = "1.24258838085511410000e-03" />
<circle cx=" 112" cy="465" r="343" fill="rgb(162, 119, 238)" fill-opacity = "5.45630171910880920000e-01" />
<circle cx=" 760" cy="180" r="230" fill="rgb(84, 62, 26)" fill-opacity = "9.06754295204968310000e-01" />
<circle cx=" 495" cy="693" r="281" fill="rgb(109, 99, 105)" fill-opacity = "8.77540373412674770000e-01" />
<circle cx=" 725" cy="75" r="192" fill="rgb(230, 220, 193)" fill-opacity = "4.99575732738049890000e-01" />
<circle cx=" 361" cy="158" r="375" fill="rgb(4, 70, 41)" fill-opacity = "1.83200756099409110000e-01" />
<circle cx=" 470" cy="77" r="3" fill="rgb(198, 186, 142)" fill-opacity = "4.66583213164077030000e-01" />
<circle cx=" 455" cy="595" r="337" fill="rgb(39, 112, 130)" fill-opacity = "4.28553541421831110000e-01" />
<circle cx=" 467" cy="692" r="267" fill="rgb(108, 36, 166)" fill-opacity = "9.89207708963824930000e-01" />
<circle cx=" 1011" cy="484" r="2" fill="rgb(159, 41, 198)" fill-opacity = "7.10971843793407390000e-01" />
<circle cx=" 198" cy="540" r="25" fill="rgb(131, 245, 209)" fill-opacity = "9.46994585460162460000e-01" />
<circle cx=" 791" cy="142" r="66" fill="rgb(254, 218, 70)" fill-opacity = "9.36530381565074950000e-02" />
<circle cx=" 933" cy="67" r="394" fill="rgb(24, 26, 208)" fill-opacity = "9.57199303316020210000e-01" />
<circle cx=" 677" cy="537" r="188" fill="rgb(238, 215, 32)" fill-opacity = "2.30539201811652990000e-01" />
<circle cx=" 161" cy="981" r="126" fill="rgb(148, 20, 87)" fill-opacity = "6.14712776659986690000e-01" />
<circle cx=" 513" cy="252" r="151" fill="rgb(41, 27, 138)" fill-opacity = "1.61000951975179160000e-01" />
<circle cx=" 923" cy="127" r="337" fill="rgb(127, 33, 68)" fill-opacity = "3.03658310316574200000e-01" />
<circle cx=" 732" cy="530" r="310" fill="rgb(213, 144, 163)" fill-opacity = "5.55359326003129320000e-01" />
<circle cx=" 379" cy="949" r="110" fill="rgb(213, 78, 223)" fill-opacity = "3.61609791435040910000e-01" />
<circle cx=" 462" cy="1011" r="53" fill="rgb(238, 43, 145)" fill-opacity = "6.11876376759028510000e-01" />
<circle cx=" 902" cy="872" r="104" fill="rgb(157, 112, 17)" fill-opacity = "3.93974274931766070000e-01" />
<circle cx=" 237" cy="719" r="136" fill="rgb(245, 72, 253)" fill-opacity = "1.24658947784093590000e-01" />
<circle cx=" 706" cy="513" r="149" fill="rgb(4, 150, 60)" fill-opacity = "1.59680612701701200000e-01" />
<circle cx=" 643" cy="197" r="124" fill="rgb(234, 1, 175)" fill-opacity = "9.93508244659803810000e-01" />
<circle cx=" 101" cy="948" r="60" fill="rgb(19, 84, 84)" fill-opacity = "8.56006684123697510000e-01" />
<circle cx=" 168" cy="411" r="328" fill="rgb(28, 142, 234)" fill-opacity = "3.33150985682514560000e-01" />
<circle cx=" 817" cy="226" r="86" fill="rgb(91, 6, 31)" fill-opacity = "2.10048063719282310000e-01" />
<circle cx=" 6" cy="214" r="116" fill="rgb(250, 152, 103)" fill-opacity = "4.79490753729265640000e-01" />
<circle cx=" 865" cy="729" r="245" fill="rgb(163, 172, 179)" fill-opacity = "4.15253258798822360000e-01" />
<circle cx=" 302" cy="646" r="365" fill="rgb(215, 150, 239)" fill-opacity = "1.94721124108398150000e-01" />
<circle cx=" 713" cy="558" r="337" fill="rgb(134, 99, 250)" fill-opacity = "5.44466663147291640000e-01" />
<circle cx=" 21" cy="330" r="340" fill="rgb(212, 122, 41)" fill-opacity = "6.42277241680497820000e-02" />
<circle cx=" 399" cy="537" r="341" fill="rgb(227, 137, 137)" fill-opacity = "7.84875670044850700000e-01" />
<circle cx=" 964" cy="277" r="183" fill="rgb(28, 31, 18)" fill-opacity = "6.35776570698490810000e-01" />
<circle cx=" 478" cy="127" r="242" fill="rgb(101, 168, 4)" fill-opacity = "1.05222835554240830000e-01" />
<circle cx=" 926" cy="710" r="269" fill="rgb(38, 19, 158)" fill-opacity = "4.93748704829630290000e-01" />
<circle cx=" 388" cy="236" r="327" fill="rgb(7, 251, 149)" fill-opacity = "5.41074582666138060000e-01" />
<circle cx=" 547" cy="695" r="84" fill="rgb(61, 226, 104)" fill-opacity = "3.23880032319243670000e-01" />
<circle cx=" 129" cy="376" r="327" fill="rgb(42, 243, 67)" fill-opacity = "7.96368296733169330000e-01" />
<circle cx=" 629" cy="686" r="368" fill="rgb(157, 139, 105)" fill-opacity = "5.82117782275344720000e-01" />
<circle cx=" 845" cy="486" r="157" fill="rgb(187, 248, 22)" fill-opacity = "4.56989970961506400000e-01" />
<circle cx=" 194" cy="557" r="359" fill="rgb(241, 39, 41)" fill-opacity = "9.33338489390430850000e-01" />
<circle cx=" 73" cy="720" r="375" fill="rgb(180, 237, 33)" fill-opacity = "5.27194044826494460000e-01" />
<circle cx=" 426" cy="237" r="63" fill="rgb(111, 83, 199)" fill-opacity = "5.00148319868558570000e-01" />
<circle cx=" 185" cy="230" r="108" fill="rgb(111, 206, 139)" fill-opacity = "8.32019406712655840000e-01" />
<circle cx=" 1011" cy="787" r="385" fill="rgb(60, 151, 167)" fill-opacity = "8.22781234052722970000e-01" />
<circle cx=" 714" cy="239" r="310" fill="rgb(189, 251, 142)" fill-opacity = "1.01414090547787380000e-01" />
<circle cx=" 518" cy="38" r="36" fill="rgb(125, 174, 164)" fill-opacity = "6.96185032088693420000e-01" />
<circle cx=" 734" cy="91" r="308" fill="rgb(216, 149, 195)" fill-opacity = "3.98137460872045380000e-01" />
<circle cx=" 632" cy="42" r="288" fill="rgb(210, 146, 144)" fill-opacity = "7.70810891121155530000e-01" />
<circle cx=" 623" cy="729" r="69" fill="rgb(184, 101, 58)" fill-opacity = "7.31650121278923260000e-01" />
<circle cx=" 725" cy="513" r="168" fill="rgb(250, 233, 41)" fill-opacity = "4.51816065567471450000e-01" />
<circle cx=" 646" cy="804" r="256" fill="rgb(213, 206, 51)" fill-opacity = "7.92333229057214260000e-01" />
<circle cx=" 121" cy="137" r="275" fill="rgb(87, 212, 182)" fill-opacity = "8.22595719682886810000e-01" />
<circle cx=" 78" cy="918" r="361" fill="rgb(152, 157, 98)" fill-opacity = "1.07437725258879180000e-01" />
<circle cx=" 192" cy="397" r="76" fill="rgb(59, 214, 34)" fill-opacity = "6.13401078999050500000e-01" />
<circle cx=" 121" cy="953" r="222" fill="rgb(100, 68, 57)" fill-opacity = "8.32097270086176180000e-01" />
<circle cx=" 311" cy="419" r="355" fill="rgb(219, 67, 132)" fill-opacity = "4.74610972582535600000e-01" />
<circle cx=" 725" cy="799" r="160" fill="rgb(1, 207, 150)" fill-opacity = "7.05003413094391180000e-01" />
<circle cx=" 582" cy="729" r="143" fill="rgb(184, 40, 100)" fill-opacity = "7.90532546365926960000e-01" />
<circle cx=" 457" cy="576" r="36" fill="rgb(221, 238, 248)" fill-opacity = "4.93646347917090500000e-01" />
<circle cx=" 596" cy="373" r="227" fill="rgb(9, 172, 30)" fill-opacity = "4.67487020243003930000e-01" />
<circle cx=" 550" cy="573" r="338" fill="rgb(10, 56, 25)" fill-opacity = "9.58269240513814460000e-01" />
<circle cx=" 212" cy="263" r="177" fill="rgb(15, 90, 142)" fill-opacity = "6.88311879822919970000e-01" />
<circle cx=" 821" cy="688" r="320" fill="rgb(181, 216, 203)" fill-opacity = "9.17137636499037230000e-01" />
<circle cx=" 795" cy="698" r="343" fill="rgb(69, 4, 29)" fill-opacity = "3.77328570604104740000e-01" />
<circle cx=" 461" cy="797" r="4" fill="rgb(75, 162, 203)" fill-opacity = "9.70256276449518620000e-01" />
<circle cx=" 417" cy="682" r="315" fill="rgb(224, 152, 140)" fill-opacity = "9.92740157288999230000e-01" />
<circle cx=" 424" cy="14" r="309" fill="rgb(6, 17, 47)" fill-opacity = "6.23611538903628750000e-01" />
<circle cx=" 997" cy="22" r="73" fill="rgb(93, 248, 47)" fill-opacity = "6.64628049358383600000e-01" />
<circle cx=" 166" cy="679" r="153" fill="rgb(253, 141, 28)" fill-opacity = "6.58951077457295980000e-01" />
<circle cx=" 729" cy="678" r="110" fill="rgb(173, 70, 77)" fill-opacity = "6.77038012945984090000e-01" />
<circle cx=" 725" cy="656" r="328" fill="rgb(79, 130, 205)" fill-opacity = "2.26677593066217490000e-01" />
<circle cx=" 975" cy="400" r="192" fill="rgb(106, 198, 116)" fill-opacity = "8.58483534320229500000e-01" />
<circle cx=" 154" cy="512" r="104" fill="rgb(77, 232, 75)" fill-opacity = "2.34638687958818260000e-01" />
<circle cx=" 362" cy="254" r="337" fill="rgb(101, 42, 168)" fill-opacity = "2.25883831119660930000e-01" />
<circle cx=" 217" cy="998" r="371" fill="rgb(104, 202, 136)" fill-opacity = "1.28512196169451530000e-01" />
<circle cx=" 943" cy="455" r="349" fill="rgb(228, 3, 184)" fill-opacity = "7.42332052562042490000e-01" />
<circle cx=" 946" cy="105" r="225" fill="rgb(130, 39, 41)" fill-opacity = "2.73712495041898760000e-01" />
<circle cx=" 877" cy="564" r="160" fill="rgb(67, 211, 49)" fill-opacity = "3.20683934764312450000e-01" />
<circle cx=" 601" cy="399" r="213" fill="rgb(216, 211, 75)" fill-opacity = "2.55504645682560930000e-01" />
<circle cx=" 606" cy="972" r="27" fill="rgb(151, 190, 196)" fill-opacity = "7.62149480142013450000e-01" />
<circle cx=" 71" cy="691" r="210" fill="rgb(188, 114, 117)" fill-opacity = "4.79490753729265640000e-01" />
<circle cx=" 73" cy="90" r="196" fill="rgb(56, 206, 96)" fill-opacity = "4.37381417162681090000e-02" />
<circle cx=" 507" cy="121" r="234" fill="rgb(216, 219, 175)" fill-opacity = "6.12673944723940430000e-02" />
<circle cx=" 643" cy="948" r="70" fill="rgb(23, 189, 1)" fill-opacity = "1.42127172094202340000e-01" />
<circle cx=" 303" cy="612" r="297" fill="rgb(78, 9, 196)" fill-opacity = "9.93039734391605530000e-01" />
<circle cx=" 906" cy="109" r="123" fill="rgb(237, 11, 123)" fill-opacity = "8.79401808527950470000e-01" />
<circle cx=" 520" cy="336" r="64" fill="rgb(100, 7, 141)" fill-opacity = "6.20650270524837570000e-01" />
<circle cx=" 648" cy="154" r="88" fill="rgb(199, 254, 17)" fill-opacity = "9.49553407269618790000e-01" />
<circle cx=" 250" cy="707" r="298" fill="rgb(130, 36, 145)" fill-opacity = "4.85431901730859260000e-01" />
<circle cx=" 130" cy="330" r="380" fill="rgb(173, 150, 146)" fill-opacity = "3.20411172814166530000e-01" />
<circle cx=" 100" cy="496" r="334" fill="rgb(117, 13, 104)" fill-opacity = "3.69102439515395450000e-01" />
<circle cx=" 827" cy="175" r="47" fill="rgb(196, 114, 64)" fill-opacity = "5.32102473571415930000e-01" />
<circle cx=" 262" cy="61" r="13" fill="rgb(251, 210, 162)" fill-opacity = "2.66853163526044490000e-01" />
<circle cx=" 73" cy="352" r="179" fill="rgb(194, 229, 199)" fill-opacity = "6.52708492961253440000e-01" />
<circle cx=" 733" cy="871" r="169" fill="rgb(102, 16, 96)" fill-opacity = "7.97947116861802310000e-01" />
<circle cx=" 331" cy="551" r="48" fill="rgb(72, 221, 141)" fill-opacity = "3.99249309218385750000e-02" />
<circle cx=" 493" cy="565" r="209" fill="rgb(11, 87, 139)" fill-opacity = "7.99787841073459130000e-01" />
<circle cx=" 69" cy="951" r="214" fill="rgb(132, 119, 36)" fill-opacity = "9.14264001238624170000e-01" />
<circle cx=" 995" cy="492" r="39" fill="rgb(56, 27, 120)" fill-opacity = "5.64829332521588730000e-01" />
<circle cx=" 800" cy="13" r="313" fill="rgb(79, 206, 138)" fill-opacity = "5.37504327778576490000e-01" />
<circle cx=" 753" cy="595" r="399" fill="rgb(216, 14, 96)" fill-opacity = "2.31116905908846260000e-01" />
<circle cx=" 6" cy="418" r="257" fill="rgb(189, 174, 135)" fill-opacity = "3.00079191866123200000e-01" />
<circle cx=" 361" cy="150" r="315" fill="rgb(173, 109, 127)" fill-opacity = "6.19059734398021750000e-01" />
<circle cx=" 503" cy="579" r="344" fill="rgb(152, 194, 239)" fill-opacity = "4.91850954386004240000e-01" />
<circle cx=" 776" cy="157" r="395" fill="rgb(135, 249, 254)" fill-opacity = "2.66215537815330800000e-02" />
<circle cx=" 552" cy="924" r="328" fill="rgb(100, 156, 207)" fill-opacity = "4.80365450923586850000e-01" />
<circle cx=" 788" cy="808" r="221" fill="rgb(162, 131, 53)" fill-opacity = "1.70076958513450060000e-01" />
<circle cx=" 489" cy="116" r="136" fill="rgb(77, 9, 65)" fill-opacity = "1.32595417648816660000e-01" />
<circle cx=" 888" cy="872" r="372" fill="rgb(45, 40, 60)" fill-opacity = "9.48030733446266980000e-01" />
<circle cx=" 1011" cy="340" r="13" fill="rgb(204, 109, 244)" fill-opacity = "1.49602616665014400000e-01" />
<circle cx=" 572" cy="371" r="337" fill="rgb(4, 90, 50)" fill-opacity = "8.10000533234595200000e-01" />
<circle cx=" 324" cy="506" r="265" fill="rgb(23, 26, 8)" fill-opacity = "4.71359927459229060000e-01" />
<circle cx=" 698" cy="738" r="6" fill="rgb(210, 42, 103)" fill-opacity = "9.69870201442047940000e-01" />
<circle cx=" 139" cy="134" r="157" fill="rgb(174, 18, 165)" fill-opacity = "1.49596911891740400000e-01" />
<circle cx=" 289" cy="67" r="61" fill="rgb(137, 65, 133)" fill-opacity = "8.65070868694258090000e-01" />
<circle cx=" 16" cy="1018" r="184" fill="rgb(222, 44, 78)" fill-opacity = "6.00292994146803150000e-01" />
<circle cx=" 832" cy="237" r="120" fill="rgb(14, 156, 33)" fill-opacity = "5.11568373239119190000e-01" />
<circle cx=" 970" cy="881" r="152" fill="rgb(33, 121, 230)" fill-opacity = "1.16609915638069770000e-01" />
<circle cx=" 989" cy="832" r="318" fill="rgb(13, 154, 85)" fill-opacity = "1.01066054216408570000e-01" />
<circle cx=" 92" cy="150" r="270" fill="rgb(69, 246, 181)" fill-opacity = "1.25444868880928650000e-01" />
<circle cx=" 530" cy="293" r="242" fill="rgb(228, 91, 112)" fill-opacity = "7.35210892949967440000e-01" />
<circle cx=" 958" cy="449" r="118" fill="rgb(175, 29, 83)" fill-opacity = "4.78020819729882970000e-02" />
<circle cx=" 217" cy="958" r="72" fill="rgb(100, 51, 162)" fill-opacity = "4.38147642720873250000e-01" />
<circle cx=" 205" cy="925" r="114" fill="rgb(5, 154, 13)" fill-opacity = "5.32458491509243180000e-01" />
<circle cx=" 222" cy="636" r="140" fill="rgb(13, 179, 16)" fill-opacity = "1.76400569978110600000e-01" />
<circle cx=" 905" cy="660" r="194" fill="rgb(51, 123, 30)" fill-opacity = "5.15651912194023510000e-01" />
<circle cx=" 79" cy="386" r="330" fill="rgb(76, 120, 153)" fill-opacity = "6.86257332930759080000e-01" />
<circle cx=" 990" cy="677" r="350" fill="rgb(147, 98, 74)" fill-opacity = "2.05779203203189100000e-02" />
</svg>
