<svg height="1024" width="1024">
<circle cx=" 890" cy="654" r="322" fill="rgb(88, 32, 8)" fill-opacity = "8.37804028254709680000e-01" />
<circle cx=" 842" cy="737" r="266" fill="rgb(116, 183, 82)" fill-opacity = "8.82800100519007810000e-02" />
<circle cx=" 671" cy="313" r="106" fill="rgb(167, 81, 111)" fill-opacity = "3.94818230086573680000e-01" />
<circle cx=" 404" cy="959" r="338" fill="rgb(65, 205, 59)" fill-opacity = "8.82021132537231580000e-01" />
<circle cx=" 763" cy="606" r="114" fill="rgb(119, 1, 80)" fill-opacity = "3.38914444265943970000e-01" />
<circle cx=" 522" cy="917" r="379" fill="rgb(126, 62, 23)" fill-opacity = "9.65080590828335530000e-01" />
<circle cx=" 292" cy="304" r="324" fill="rgb(108, 203, 5)" fill-opacity = "9.62835810155364680000e-01" />
<circle cx=" 181" cy="89" r="288" fill="rgb(20, 117, 149)" fill-opacity = "8.26026660686753680000e-01" />
<circle cx=" 600" cy="555" r="118" fill="rgb(128, 108, 13)" fill-opacity = "2.49234319895289770000e-01" />
<circle cx=" 155" cy="934" r="72" fill="rgb(13, 121, 172)" fill-opacity = "5.02608201260240420000e-01" />
<circle cx=" 869" cy="841" r="260" fill="rgb(188, 225, 43)" fill-opacity = "6.76495694994463380000e-01" />
<circle cx=" 507" cy="15" r="360" fill="rgb(165, 142, 71)" fill-opacity = "4.43029863199531530000e-01" />
<circle cx=" 606" cy="340" r="1" fill="rgb(131, 53, 77)" fill-opacity = "6.63849158849897150000e-01" />
<circle cx=" 128" cy="400" r="194" fill="rgb(12, 27, 47)" fill-opacity = "3.68793971622235930000e-01" />
<circle cx=" 694" cy="116" r="372" fill="rgb(83, 111, 16)" fill-opacity = "4.84459566862812440000e-01" />
<circle cx=" 266" cy="738" r="254" fill="rgb(180, 34, 86)" fill-opacity = "5.71648268052538100000e-03" />
<circle cx=" 456" cy="377" r="338" fill="rgb(177, 193, 98)" fill-opacity = "8.51206004174058340000e-01" />
<circle cx=" 110" cy="66" r="389" fill="rgb(166, 222, 13)" fill-opacity = "5.47854887656797680000e-01" />
<circle cx=" 664" cy="761" r="377" fill="rgb(32, 202, 191)" fill-opacity = "2.64761250445305410000e-01" />
<circle cx=" 412" cy="959" r="306" fill="rgb(87, 86, 115)" fill-opacity = "5.47472208421507120000e-01" />
<circle cx=" 399" cy="251" r="278" fill="rgb(1, 43, 53)" fill-opacity = "5.35793610055623760000e-02" />
<circle cx=" 748" cy="270" r="35" fill="rgb(238, 160, 132)" fill-opacity = "7.47158828934818330000e-01" />
<circle cx=" 956" cy="809" r="43" fill="rgb(79, 63, 9)" fill-opacity = "1.35489941894703310000e-01" />
<circle cx=" 73" cy="872" r="150" fill="rgb(239, 45, 51)" fill-opacity = "2.06908535771801460000e-02" />
<circle cx=" 779" cy="637" r="231" fill="rgb(72, 70, 39)" fill-opacity = "7.95755702605985160000e-01" />
<circle cx=" 870" cy="714" r="352" fill="rgb(38, 87, 14)" fill-opacity = "9.63989279645643740000e-01" />
<circle cx=" 161" cy="544" r="345" fill="rgb(175, 90, 104)" fill-opacity = "7.36711070201527150000e-01" />
<circle cx=" 41" cy="241" r="213" fill="rgb(130, 216, 245)" fill-opacity = "5.01425564751250660000e-01" />
<circle cx=" 256" cy="605" r="239" fill="rgb(80, 217, 189)" fill-opacity = "2.97073780104551770000e-01" />
<circle cx=" 579" cy="484" r="350" fill="rgb(130, 121, 52)" fill-opacity = "9.32499613326549290000e-01" />
<circle cx=" 775" cy="371" r="338" fill="rgb(34, 31, 78)" fill-opacity = "3.37811042745221890000e-01" />
<circle cx=" 955" cy="645" r="310" fill="rgb(201, 45, 212)" fill-opacity = "8.42282095558783190000e-01" />
<circle cx=" 532" cy="430" r="1" fill="rgb(63, 123, 106)" fill-opacity = "4.08169609273275840000e-01" />
<circle cx=" 139" cy="922" r="169" fill="rgb(125, 141, 216)" fill-opacity = "9.01805722198442570000e-01" />
<circle cx=" 911" cy="764" r="397" fill="rgb(142, 156, 155)" fill-opacity = "5.23100953902071230000e-01" />
<circle cx=" 655" cy="185" r="336" fill="rgb(36, 106, 128)" fill-opacity = "8.13318966554237300000e-01" />
<circle cx=" 163" cy="127" r="207" fill="rgb(171, 46, 3)" fill-opacity = "4.74202442970242940000e-01" />
<circle cx=" 86" cy="464" r="337" fill="rgb(250, 144, 1)" fill-opacity = "1.43765331217062810000e-02" />
<circle cx=" 440" cy="49" r="78" fill="rgb(39, 132, 76)" fill-opacity = "6.55652352631741260000e-01" />
<circle cx=" 288" cy="992" r="347" fill="rgb(203, 208, 86)" fill-opacity = "7.62308022145102180000e-01" />
<circle cx=" 51" cy="70" r="53" fill="rgb(80, 26, 196)" fill-opacity = "1.44448997199507100000e-01" />
<circle cx=" 711" cy="836" r="299" fill="rgb(231, 64, 127)" fill-opacity = "5.45674278913992340000e-01" />
<circle cx=" 520" cy="628" r="398" fill="rgb(237, 51, 169)" fill-opacity = "5.00222367120509270000e-01" />
<circle cx=" 374" cy="981" r="134" fill="rgb(9, 84, 251)" fill-opacity = "2.34275251576439250000e-01" />
<circle cx=" 928" cy="765" r="136" fill="rgb(56, 219, 163)" fill-opacity = "1.54872784506951080000e-01" />
<circle cx=" 829" cy="741" r="126" fill="rgb(7, 155, 106)" fill-opacity = "1.88680552379856040000e-01" />
<circle cx=" 281" cy="191" r="67" fill="rgb(37, 149, 106)" fill-opacity = "3.38717415685520160000e-01" />
<circle cx=" 768" cy="844" r="386" fill="rgb(21, 55, 103)" fill-opacity = "4.56401827644032920000e-02" />
<circle cx=" 136" cy="156" r="293" fill="rgb(215, 82, 247)" fill-opacity = "1.08284079135935630000e-01" />
<circle cx=" 614" cy="363" r="93" fill="rgb(216, 150, 42)" fill-opacity = "1.46111981330792950000e-01" />
<circle cx=" 713" cy="326" r="3" fill="rgb(225, 226, 243)" fill-opacity = "1.06331259723802420000e-01" />
<circle cx=" 697" cy="157" r="41" fill="rgb(63, 55, 255)" fill-opacity = "8.83461125739591900000e-01" />
<circle cx=" 80" cy="138" r="127" fill="rgb(215, 56, 101)" fill-opacity = "7.67017410736257950000e-01" />
<circle cx=" 760" cy="390" r="64" fill="rgb(64, 35, 86)" fill-opacity = "6.83352519981620170000e-01" />
<circle cx=" 563" cy="231" r="28" fill="rgb(164, 32, 42)" fill-opacity = "4.37470032681377410000e-01" />
<circle cx=" 250" cy="735" r="256" fill="rgb(31, 114, 34)" fill-opacity = "7.63636332206967920000e-01" />
<circle cx=" 679" cy="86" r="374" fill="rgb(78, 132, 158)" fill-opacity = "7.88052629672330360000e-01" />
<circle cx=" 529" cy="572" r="322" fill="rgb(228, 216, 79)" fill-opacity = "9.22425620624009790000e-01" />
<circle cx=" 392" cy="748" r="396" fill="rgb(243, 231, 193)" fill-opacity = "7.57494614816638820000e-01" />
<circle cx=" 550" cy="299" r="286" fill="rgb(44, 97, 164)" fill-opacity = "7.69598279958444210000e-01" />
<circle cx=" 132" cy="573" r="215" fill="rgb(39, 164, 62)" fill-opacity = "1.76593370936097170000e-01" />
<circle cx=" 27" cy="782" r="303" fill="rgb(31, 157, 138)" fill-opacity = "5.58299650237451980000e-01" />
<circle cx=" 417" cy="627" r="347" fill="rgb(145, 85, 111)" fill-opacity = "3.29088277528764020000e-02" />
<circle cx=" 696" cy="225" r="263" fill="rgb(22, 59, 64)" fill-opacity = "3.66468890090911440000e-01" />
<circle cx=" 319" cy="488" r="258" fill="rgb(189, 236, 11)" fill-opacity = "7.79864537440824180000e-02" />
<circle cx=" 98" cy="930" r="192" fill="rgb(126, 196, 138)" fill-opacity = "8.22781234052722970000e-01" />
<circle cx=" 168" cy="637" r="207" fill="rgb(242, 222, 29)" fill-opacity = "4.70199382212229010000e-01" />
<circle cx=" 896" cy="420" r="264" fill="rgb(61, 116, 218)" fill-opacity = "7.42501276191994240000e-01" />
<circle cx=" 750" cy="86" r="265" fill="rgb(171, 46, 102)" fill-opacity = "4.27938677358107980000e-01" />
<circle cx=" 404" cy="981" r="397" fill="rgb(134, 31, 12)" fill-opacity = "7.70810891121155530000e-01" />
<circle cx=" 940" cy="922" r="174" fill="rgb(200, 143, 169)" fill-opacity = "7.31650121278923260000e-01" />
<circle cx=" 733" cy="387" r="87" fill="rgb(240, 142, 22)" fill-opacity = "4.97060940820309440000e-01" />
<circle cx=" 341" cy="202" r="135" fill="rgb(56, 60, 145)" fill-opacity = "7.56289755358325880000e-02" />
<circle cx=" 532" cy="979" r="190" fill="rgb(51, 3, 12)" fill-opacity = "3.83791003683933150000e-02" />
<circle cx=" 417" cy="526" r="167" fill="rgb(150, 91, 256)" fill-opacity = "8.43448556980386230000e-02" />
<circle cx=" 795" cy="270" r="266" fill="rgb(20, 244, 11)" fill-opacity = "8.96523943071720230000e-01" />
<circle cx=" 169" cy="1005" r="219" fill="rgb(90, 151, 15)" fill-opacity = "2.53393411540746350000e-01" />
<circle cx=" 701" cy="804" r="241" fill="rgb(219, 196, 151)" fill-opacity = "5.94072962080685050000e-02" />
<circle cx=" 533" cy="712" r="274" fill="rgb(42, 22, 247)" fill-opacity = "7.94736738536535590000e-01" />
<circle cx=" 728" cy="10" r="296" fill="rgb(69, 15, 121)" fill-opacity = "1.23436923535503510000e-01" />
<circle cx=" 551" cy="445" r="3" fill="rgb(246, 188, 187)" fill-opacity = "7.61655469645391660000e-01" />
<circle cx=" 672" cy="868" r="308" fill="rgb(120, 84, 63)" fill-opacity = "9.68518491625718460000e-01" />
<circle cx=" 71" cy="229" r="293" fill="rgb(14, 84, 40)" fill-opacity = "6.22278414481715280000e-01" />
<circle cx=" 741" cy="637" r="260" fill="rgb(71, 154, 219)" fill-opacity = "4.86367590799776650000e-01" />
<circle cx=" 205" cy="873" r="371" fill="rgb(26, 191, 207)" fill-opacity = "7.31515828816158290000e-01" />
<circle cx=" 166" cy="304" r="251" fill="rgb(24, 206, 129)" fill-opacity = "7.79864537440824180000e-02" />
<circle cx=" 170" cy="12" r="399" fill="rgb(256, 162, 233)" fill-opacity = "8.41253454420458620000e-02" />
<circle cx=" 967" cy="391" r="15" fill="rgb(145, 131, 240)" fill-opacity = "6.19692730405794420000e-01" />
<circle cx=" 660" cy="366" r="214" fill="rgb(181, 170, 219)" fill-opacity = "8.85236566146379580000e-01" />
<circle cx=" 627" cy="766" r="183" fill="rgb(39, 191, 2)" fill-opacity = "6.64547884883956770000e-01" />
<circle cx=" 74" cy="744" r="310" fill="rgb(223, 74, 164)" fill-opacity = "8.25332561528677510000e-01" />
<circle cx=" 729" cy="718" r="76" fill="rgb(109, 49, 166)" fill-opacity = "5.72739980807298380000e-01" />
<circle cx=" 416" cy="438" r="367" fill="rgb(168, 132, 100)" fill-opacity = "8.97624956476083420000e-01" />
<circle cx=" 679" cy="907" r="374" fill="rgb(22, 115, 135)" fill-opacity = "9.61754829783565410000e-02" />
<circle cx=" 437" cy="928" r="193" fill="rgb(168, 2, 224)" fill-opacity = "6.36403387296224920000e-02" />
<circle cx=" 757" cy="568" r="109" fill="rgb(127, 83, 18)" fill-opacity = "4.37470032681377410000e-01" />
<circle cx=" 259" cy="525" r="258" fill="rgb(221, 34, 100)" fill-opacity = "2.32374924480595050000e-01" />
<circle cx=" 326" cy="268" r="331" fill="rgb(22, 29, 226)" fill-opacity = "7.36732359261514260000e-01" />
<circle cx=" 697" cy="880" r="86" fill="rgb(80, 75, 116)" fill-opacity = "1.78244530971959580000e-01" />
<circle cx=" 169" cy="431" r="64" fill="rgb(218, 64, 123)" fill-opacity = "8.93692091056475510000e-01" />
<circle cx=" 599" cy="799" r="288" fill="rgb(199, 21, 222)" fill-opacity = "9.49593763282947200000e-01" />
<circle cx=" 556" cy="758" r="122" fill="rgb(150, 224, 50)" fill-opacity = "2.23253245418724160000e-01" />
<circle cx=" 151" cy="156" r="386" fill="rgb(233, 14, 23)" fill-opacity = "5.88044748603363980000e-01" />
<circle cx=" 944" cy="884" r="107" fill="rgb(82, 206, 6)" fill-opacity = "1.77888834711570580000e-01" />
<circle cx=" 965" cy="943" r="197" fill="rgb(53, 232, 196)" fill-opacity = "1.45915151288930290000e-01" />
<circle cx=" 436" cy="117" r="238" fill="rgb(136, 207, 26)" fill-opacity = "2.30186648377006310000e-01" />
<circle cx=" 701" cy="981" r="95" fill="rgb(167, 87, 60)" fill-opacity = "6.94075810684033460000e-01" />
<circle cx=" 672" cy="277" r="101" fill="rgb(59, 245, 173)" fill-opacity = "5.43320273986841680000e-01" />
<circle cx=" 631" cy="834" r="351" fill="rgb(231, 233, 165)" fill-opacity = "3.28978660318800520000e-01" />
<circle cx=" 873" cy="728" r="319" fill="rgb(80, 234, 47)" fill-opacity = "9.32332182898387260000e-01" />
<circle cx=" 83" cy="567" r="138" fill="rgb(151, 93, 187)" fill-opacity = "6.67356410251307430000e-01" />
<circle cx=" 848" cy="1003" r="346" fill="rgb(221, 179, 123)" fill-opacity = "9.94079002996640760000e-01" />
<circle cx=" 830" cy="121" r="56" fill="rgb(129, 32, 13)" fill-opacity = "4.08469989631945470000e-01" />
<circle cx=" 331" cy="632" r="34" fill="rgb(30, 253, 68)" fill-opacity = "2.30607602732366690000e-01" />
<circle cx=" 613" cy="838" r="378" fill="rgb(221, 187, 114)" fill-opacity = "3.01416315129025670000e-01" />
<circle cx=" 808" cy="764" r="165" fill="rgb(142, 123, 156)" fill-opacity = "7.10459692298297530000e-01" />
<circle cx=" 925" cy="227" r="139" fill="rgb(80, 121, 35)" fill-opacity = "4.26593425605997110000e-01" />
<circle cx=" 704" cy="221" r="177" fill="rgb(134, 58, 228)" fill-opacity = "4.08169609273275840000e-01" />
<circle cx=" 547" cy="771" r="347" fill="rgb(122, 109, 192)" fill-opacity = "7.59310055950308980000e-01" />
<circle cx=" 775" cy="11" r="252" fill="rgb(204, 202, 64)" fill-opacity = "3.37811042745221890000e-01" />
<circle cx=" 295" cy="744" r="384" fill="rgb(50, 69, 174)" fill-opacity = "4.42266424093358810000e-01" />
<circle cx=" 287" cy="78" r="313" fill="rgb(13, 184, 66)" fill-opacity = "6.79807623487212460000e-01" />
<circle cx=" 832" cy="851" r="193" fill="rgb(150, 66, 208)" fill-opacity = "5.59607768297582630000e-01" />
<circle cx=" 989" cy="565" r="158" fill="rgb(148, 182, 168)" fill-opacity = "3.81500012514282450000e-01" />
<circle cx=" 125" cy="945" r="209" fill="rgb(160, 114, 57)" fill-opacity = "6.89850494538506890000e-01" />
<circle cx=" 244" cy="144" r="322" fill="rgb(230, 242, 119)" fill-opacity = "1.60246981968351850000e-01" />
<circle cx=" 516" cy="882" r="350" fill="rgb(190, 40, 11)" fill-opacity = "3.10006536154476380000e-01" />
<circle cx=" 443" cy="133" r="304" fill="rgb(163, 127, 64)" fill-opacity = "8.83825921831344230000e-01" />
<circle cx=" 569" cy="142" r="94" fill="rgb(97, 74, 112)" fill-opacity = "2.17464315525792930000e-01" />
<circle cx=" 763" cy="406" r="328" fill="rgb(142, 135, 59)" fill-opacity = "7.95485748590297970000e-01" />
<circle cx=" 618" cy="680" r="321" fill="rgb(138, 128, 3)" fill-opacity = "2.54334067249207150000e-01" />
<circle cx=" 519" cy="326" r="200" fill="rgb(242, 46, 59)" fill-opacity = "8.33028780330368200000e-01" />
<circle cx=" 1010" cy="90" r="284" fill="rgb(170, 223, 192)" fill-opacity = "3.45637836218939840000e-01" />
<circle cx=" 815" cy="454" r="265" fill="rgb(70, 147, 17)" fill-opacity = "1.91101175215566910000e-01" />
<circle cx=" 823" cy="423" r="14" fill="rgb(38, 112, 101)" fill-opacity = "5.16755163998341430000e-01" />
<circle cx=" 694" cy="606" r="338" fill="rgb(152, 50, 86)" fill-opacity = "2.74002103935500950000e-01" />
<circle cx=" 716" cy="98" r="101" fill="rgb(23, 232, 60)" fill-opacity = "2.71587187941498160000e-01" />
<circle cx=" 895" cy="328" r="155" fill="rgb(256, 36, 10)" fill-opacity = "9.86883164383010050000e-02" />
<circle cx=" 422" cy="850" r="270" fill="rgb(117, 83, 105)" fill-opacity = "7.67071669731415610000e-01" />
<circle cx=" 656" cy="200" r="349" fill="rgb(146, 220, 3)" fill-opacity = "1.62740482520156600000e-01" />
<circle cx=" 155" cy="310" r="72" fill="rgb(125, 197, 145)" fill-opacity = "4.28893679214941590000e-01" />
<circle cx=" 464" cy="259" r="264" fill="rgb(128, 63, 13)" fill-opacity = "5.31672401885222580000e-01" />
<circle cx=" 666" cy="883" r="265" fill="rgb(192, 147, 170)" fill-opacity = "1.64997757223039440000e-01" />
<circle cx=" 300" cy="292" r="371" fill="rgb(222, 202, 49)" fill-opacity = "3.82238789888936110000e-01" />
<circle cx=" 120" cy="626" r="307" fill="rgb(70, 36, 16)" fill-opacity = "9.49071562313530630000e-01" />
<circle cx=" 941" cy="840" r="316" fill="rgb(17, 57, 94)" fill-opacity = "9.96632520348770030000e-01" />
<circle cx=" 222" cy="400" r="226" fill="rgb(15, 138, 59)" fill-opacity = "1.03719689422968390000e-01" />
<circle cx=" 409" cy="758" r="201" fill="rgb(141, 26, 8)" fill-opacity = "6.79514828632950210000e-01" />
<circle cx=" 426" cy="926" r="152" fill="rgb(158, 12, 18)" fill-opacity = "1.04397741740420710000e-01" />
<circle cx=" 807" cy="654" r="369" fill="rgb(100, 87, 8)" fill-opacity = "6.37724498808428960000e-01" />
</svg>
