<svg height="1024" width="1024">
<circle cx=" 570" cy="182" r="322" fill="rgb(100, 32, 8)" fill-opacity = "4.46942667619190330000e-01" />
<circle cx=" 100" cy="371" r="211" fill="rgb(116, 47, 6)" fill-opacity = "8.05358533045079650000e-01" />
<circle cx=" 969" cy="246" r="201" fill="rgb(213, 114, 4)" fill-opacity = "2.41407254244396800000e-01" />
<circle cx=" 222" cy="400" r="394" fill="rgb(65, 50, 99)" fill-opacity = "2.30690152850759890000e-01" />
<circle cx=" 363" cy="452" r="208" fill="rgb(91, 242, 130)" fill-opacity = "5.41478838558411500000e-01" />
<circle cx=" 107" cy="684" r="13" fill="rgb(64, 62, 16)" fill-opacity = "3.21607632386369020000e-01" />
<circle cx=" 636" cy="951" r="285" fill="rgb(108, 69, 251)" fill-opacity = "1.34984345221011550000e-01" />
<circle cx=" 940" cy="744" r="16" fill="rgb(110, 53, 42)" fill-opacity = "8.26026660686753680000e-01" />
<circle cx=" 50" cy="574" r="303" fill="rgb(248, 18, 13)" fill-opacity = "6.75853955404918770000e-01" />
<circle cx=" 257" cy="335" r="172" fill="rgb(13, 161, 36)" fill-opacity = "5.02608201260240420000e-01" />
<circle cx=" 898" cy="387" r="172" fill="rgb(172, 7, 43)" fill-opacity = "1.46994392661909060000e-01" />
<circle cx=" 791" cy="15" r="187" fill="rgb(117, 14, 41)" fill-opacity = "7.67071669731415610000e-01" />
<circle cx=" 606" cy="837" r="227" fill="rgb(155, 21, 68)" fill-opacity = "4.97878669030832550000e-01" />
<circle cx=" 128" cy="333" r="101" fill="rgb(160, 89, 148)" fill-opacity = "3.68793971622235930000e-01" />
<circle cx=" 950" cy="116" r="249" fill="rgb(110, 111, 90)" fill-opacity = "7.67800141393583320000e-01" />
<circle cx=" 517" cy="738" r="348" fill="rgb(218, 87, 86)" fill-opacity = "1.82085791795030260000e-02" />
<circle cx=" 680" cy="199" r="65" fill="rgb(83, 74, 98)" fill-opacity = "8.54251959451427290000e-01" />
<circle cx=" 828" cy="52" r="97" fill="rgb(145, 64, 92)" fill-opacity = "3.17388596470570940000e-01" />
<circle cx=" 579" cy="492" r="151" fill="rgb(172, 202, 94)" fill-opacity = "5.49677304727026030000e-01" />
<circle cx=" 194" cy="788" r="217" fill="rgb(134, 3, 163)" fill-opacity = "1.23084843748809460000e-01" />
<circle cx=" 564" cy="567" r="239" fill="rgb(8, 124, 51)" fill-opacity = "7.95485748590297970000e-01" />
<circle cx=" 914" cy="979" r="202" fill="rgb(50, 32, 152)" fill-opacity = "8.06519298800224770000e-01" />
<circle cx=" 489" cy="12" r="175" fill="rgb(65, 63, 8)" fill-opacity = "8.81373976681205210000e-01" />
<circle cx=" 73" cy="244" r="225" fill="rgb(144, 58, 36)" fill-opacity = "2.51241237113770670000e-02" />
<circle cx=" 210" cy="551" r="227" fill="rgb(103, 23, 174)" fill-opacity = "5.77579699678288700000e-01" />
<circle cx=" 870" cy="714" r="365" fill="rgb(99, 224, 23)" fill-opacity = "7.93606372182754210000e-01" />
<circle cx=" 838" cy="740" r="129" fill="rgb(224, 174, 93)" fill-opacity = "4.55381728203940740000e-02" />
<circle cx=" 581" cy="163" r="380" fill="rgb(119, 93, 6)" fill-opacity = "5.32466142378098750000e-01" />
<circle cx=" 635" cy="1" r="161" fill="rgb(206, 30, 25)" fill-opacity = "6.11187518622530620000e-01" />
<circle cx=" 301" cy="744" r="356" fill="rgb(227, 166, 48)" fill-opacity = "3.29123391234151800000e-02" />
<circle cx=" 998" cy="180" r="199" fill="rgb(162, 132, 64)" fill-opacity = "6.98031560829869950000e-01" />
<circle cx=" 239" cy="249" r="26" fill="rgb(186, 39, 34)" fill-opacity = "7.14446084936120050000e-02" />
<circle cx=" 214" cy="329" r="189" fill="rgb(167, 58, 106)" fill-opacity = "7.17713775427459840000e-01" />
<circle cx=" 956" cy="620" r="169" fill="rgb(125, 4, 35)" fill-opacity = "9.85783918974436400000e-01" />
<circle cx=" 786" cy="637" r="394" fill="rgb(142, 205, 102)" fill-opacity = "3.86211034801302590000e-02" />
<circle cx=" 528" cy="738" r="250" fill="rgb(54, 106, 162)" fill-opacity = "4.29215064799240760000e-01" />
<circle cx=" 331" cy="127" r="396" fill="rgb(139, 175, 3)" fill-opacity = "9.61956021570526070000e-01" />
<circle cx=" 124" cy="143" r="161" fill="rgb(39, 63, 117)" fill-opacity = "4.98049471524606930000e-01" />
<circle cx=" 920" cy="30" r="208" fill="rgb(39, 132, 27)" fill-opacity = "8.37837130549567880000e-01" />
<circle cx=" 132" cy="499" r="145" fill="rgb(176, 208, 9)" fill-opacity = "6.67356410251307430000e-01" />
<circle cx=" 773" cy="782" r="123" fill="rgb(39, 200, 196)" fill-opacity = "1.59343132884600220000e-01" />
<circle cx=" 631" cy="836" r="14" fill="rgb(86, 77, 89)" fill-opacity = "4.95345580025484460000e-01" />
<circle cx=" 930" cy="613" r="262" fill="rgb(237, 245, 188)" fill-opacity = "4.99426053580559690000e-01" />
<circle cx=" 969" cy="981" r="134" fill="rgb(19, 1, 149)" fill-opacity = "2.34275251576439250000e-01" />
<circle cx=" 556" cy="765" r="60" fill="rgb(56, 219, 190)" fill-opacity = "8.77830752976153760000e-01" />
<circle cx=" 109" cy="29" r="87" fill="rgb(13, 12, 106)" fill-opacity = "1.78231320106768900000e-01" />
<circle cx=" 307" cy="191" r="265" fill="rgb(117, 210, 143)" fill-opacity = "1.77888834711570580000e-01" />
<circle cx=" 134" cy="343" r="143" fill="rgb(165, 80, 27)" fill-opacity = "4.05459574003197210000e-01" />
<circle cx=" 889" cy="758" r="293" fill="rgb(208, 126, 177)" fill-opacity = "2.66725725993059330000e-01" />
<circle cx=" 44" cy="925" r="104" fill="rgb(96, 106, 222)" fill-opacity = "6.93054394799257790000e-01" />
<circle cx=" 713" cy="577" r="387" fill="rgb(46, 224, 86)" fill-opacity = "8.54094608999470760000e-01" />
<circle cx=" 859" cy="695" r="99" fill="rgb(117, 99, 14)" fill-opacity = "2.69523732505513540000e-01" />
<circle cx=" 931" cy="281" r="331" fill="rgb(52, 186, 194)" fill-opacity = "7.67017410736257950000e-01" />
<circle cx=" 821" cy="390" r="18" fill="rgb(64, 204, 168)" fill-opacity = "2.30842123485968110000e-01" />
<circle cx=" 932" cy="256" r="28" fill="rgb(240, 122, 157)" fill-opacity = "3.81064182849647940000e-01" />
<circle cx=" 801" cy="385" r="73" fill="rgb(45, 237, 179)" fill-opacity = "1.20976735686147750000e-01" />
<circle cx=" 679" cy="984" r="206" fill="rgb(78, 115, 95)" fill-opacity = "6.24019936906057730000e-01" />
<circle cx=" 23" cy="722" r="370" fill="rgb(228, 59, 203)" fill-opacity = "7.08198983271814960000e-01" />
<circle cx=" 961" cy="939" r="76" fill="rgb(109, 231, 30)" fill-opacity = "7.71344484394254290000e-01" />
<circle cx=" 185" cy="115" r="153" fill="rgb(44, 167, 21)" fill-opacity = "9.27918661531186740000e-01" />
<circle cx=" 239" cy="489" r="126" fill="rgb(202, 231, 62)" fill-opacity = "8.91847959350496660000e-01" />
<circle cx=" 176" cy="366" r="150" fill="rgb(25, 94, 202)" fill-opacity = "1.27915158755413930000e-01" />
<circle cx=" 326" cy="150" r="139" fill="rgb(145, 236, 131)" fill-opacity = "6.19692730405794420000e-01" />
<circle cx=" 170" cy="717" r="205" fill="rgb(211, 124, 185)" fill-opacity = "9.64264857476091360000e-01" />
<circle cx=" 921" cy="488" r="188" fill="rgb(226, 245, 163)" fill-opacity = "3.54281365769919530000e-02" />
<circle cx=" 145" cy="795" r="182" fill="rgb(26, 149, 24)" fill-opacity = "7.20764599070519370000e-01" />
<circle cx=" 223" cy="719" r="251" fill="rgb(220, 48, 30)" fill-opacity = "5.95545629815361190000e-01" />
<circle cx=" 731" cy="229" r="315" fill="rgb(61, 1, 134)" fill-opacity = "8.65238565921373710000e-01" />
<circle cx=" 791" cy="334" r="387" fill="rgb(112, 76, 102)" fill-opacity = "2.72883879670025030000e-01" />
<circle cx=" 55" cy="74" r="182" fill="rgb(105, 31, 60)" fill-opacity = "2.53131540295444600000e-01" />
<circle cx=" 728" cy="369" r="309" fill="rgb(197, 97, 139)" fill-opacity = "4.41902210499463430000e-01" />
<circle cx=" 992" cy="676" r="274" fill="rgb(15, 72, 233)" fill-opacity = "9.71050296558964020000e-01" />
<circle cx=" 605" cy="505" r="114" fill="rgb(227, 196, 75)" fill-opacity = "9.05544930206670710000e-01" />
<circle cx=" 217" cy="43" r="45" fill="rgb(18, 3, 65)" fill-opacity = "8.35461300246240550000e-01" />
<circle cx=" 459" cy="603" r="321" fill="rgb(20, 181, 176)" fill-opacity = "1.12711362328808740000e-01" />
<circle cx=" 795" cy="433" r="38" fill="rgb(211, 145, 140)" fill-opacity = "1.58788380731649250000e-02" />
<circle cx=" 217" cy="476" r="248" fill="rgb(37, 98, 169)" fill-opacity = "9.45692575406946070000e-01" />
<circle cx=" 701" cy="443" r="135" fill="rgb(59, 79, 212)" fill-opacity = "4.71915037525597820000e-01" />
<circle cx=" 272" cy="676" r="274" fill="rgb(85, 81, 185)" fill-opacity = "1.28355050112505250000e-02" />
<circle cx=" 862" cy="10" r="279" fill="rgb(69, 1, 50)" fill-opacity = "6.97813464762413680000e-01" />
<circle cx=" 166" cy="711" r="190" fill="rgb(156, 225, 67)" fill-opacity = "2.35733640626182960000e-01" />
<circle cx=" 48" cy="86" r="250" fill="rgb(225, 159, 26)" fill-opacity = "8.80456304931298120000e-01" />
<circle cx=" 635" cy="759" r="225" fill="rgb(61, 168, 237)" fill-opacity = "6.96185032088693420000e-01" />
<circle cx=" 844" cy="736" r="251" fill="rgb(71, 241, 66)" fill-opacity = "6.56670765579009610000e-01" />
<circle cx=" 740" cy="873" r="371" fill="rgb(26, 191, 138)" fill-opacity = "7.04185499156451790000e-01" />
<circle cx=" 80" cy="488" r="126" fill="rgb(37, 245, 44)" fill-opacity = "5.34153864050442630000e-01" />
<circle cx=" 170" cy="717" r="10" fill="rgb(110, 77, 196)" fill-opacity = "4.22282703507588230000e-02" />
<circle cx=" 984" cy="246" r="356" fill="rgb(16, 109, 22)" fill-opacity = "5.27194044826494460000e-01" />
<circle cx=" 558" cy="366" r="258" fill="rgb(239, 192, 184)" fill-opacity = "1.27915158755413930000e-01" />
<circle cx=" 831" cy="574" r="251" fill="rgb(9, 89, 252)" fill-opacity = "1.15020871689635040000e-02" />
<circle cx=" 550" cy="698" r="283" fill="rgb(187, 254, 45)" fill-opacity = "7.80574849208918620000e-01" />
<circle cx=" 903" cy="848" r="396" fill="rgb(18, 160, 47)" fill-opacity = "7.71344484394254290000e-01" />
<circle cx=" 157" cy="831" r="293" fill="rgb(228, 132, 50)" fill-opacity = "6.83054643903289630000e-01" />
<circle cx=" 679" cy="241" r="110" fill="rgb(78, 244, 158)" fill-opacity = "3.81811034858025700000e-01" />
<circle cx=" 613" cy="906" r="192" fill="rgb(44, 31, 46)" fill-opacity = "9.88372115469154710000e-01" />
<circle cx=" 893" cy="256" r="28" fill="rgb(15, 83, 178)" fill-opacity = "3.33378817754498960000e-01" />
<circle cx=" 636" cy="1000" r="245" fill="rgb(221, 156, 216)" fill-opacity = "2.30842123485968110000e-01" />
<circle cx=" 236" cy="701" r="331" fill="rgb(118, 125, 172)" fill-opacity = "2.77770977709264950000e-01" />
<circle cx=" 159" cy="824" r="375" fill="rgb(200, 11, 147)" fill-opacity = "6.20106125252008590000e-01" />
<circle cx=" 713" cy="673" r="387" fill="rgb(46, 64, 105)" fill-opacity = "8.08852532400066160000e-01" />
<circle cx=" 604" cy="289" r="69" fill="rgb(234, 28, 81)" fill-opacity = "1.07669724804368980000e-01" />
<circle cx=" 417" cy="758" r="186" fill="rgb(124, 226, 67)" fill-opacity = "1.08284079135935630000e-01" />
<circle cx=" 95" cy="624" r="240" fill="rgb(21, 7, 210)" fill-opacity = "4.57062171933472430000e-01" />
<circle cx=" 809" cy="191" r="266" fill="rgb(49, 256, 210)" fill-opacity = "1.77888834711570580000e-01" />
<circle cx=" 77" cy="339" r="87" fill="rgb(47, 185, 196)" fill-opacity = "4.71076957981152900000e-01" />
<circle cx=" 99" cy="770" r="150" fill="rgb(125, 256, 52)" fill-opacity = "2.30186648377006310000e-01" />
<circle cx=" 624" cy="812" r="395" fill="rgb(17, 84, 171)" fill-opacity = "5.25700588553205780000e-01" />
<circle cx=" 520" cy="330" r="214" fill="rgb(2, 245, 173)" fill-opacity = "8.24608248264654400000e-01" />
<circle cx=" 821" cy="678" r="14" fill="rgb(231, 254, 207)" fill-opacity = "6.52557077105749060000e-01" />
<circle cx=" 281" cy="216" r="319" fill="rgb(177, 234, 137)" fill-opacity = "1.44448997199507100000e-01" />
<circle cx=" 448" cy="499" r="69" fill="rgb(130, 39, 9)" fill-opacity = "6.67356410251307430000e-01" />
<circle cx=" 524" cy="786" r="341" fill="rgb(6, 179, 28)" fill-opacity = "8.37837130549567880000e-01" />
<circle cx=" 232" cy="549" r="245" fill="rgb(39, 169, 19)" fill-opacity = "2.91960069257757300000e-02" />
<circle cx=" 496" cy="58" r="46" fill="rgb(171, 248, 62)" fill-opacity = "1.81992811292843060000e-01" />
<circle cx=" 46" cy="760" r="273" fill="rgb(115, 177, 128)" fill-opacity = "7.75863995807390520000e-01" />
<circle cx=" 911" cy="297" r="159" fill="rgb(7, 163, 155)" fill-opacity = "4.78014009977207670000e-01" />
<circle cx=" 443" cy="409" r="66" fill="rgb(243, 121, 61)" fill-opacity = "2.74458024898333490000e-01" />
<circle cx=" 865" cy="400" r="131" fill="rgb(167, 133, 182)" fill-opacity = "2.21811599726077450000e-01" />
<circle cx=" 818" cy="142" r="357" fill="rgb(57, 51, 32)" fill-opacity = "2.99850226357225580000e-01" />
<circle cx=" 570" cy="747" r="252" fill="rgb(205, 202, 235)" fill-opacity = "9.88802536284844270000e-01" />
<circle cx=" 295" cy="982" r="104" fill="rgb(93, 169, 235)" fill-opacity = "1.16840605706083340000e-01" />
<circle cx=" 494" cy="78" r="161" fill="rgb(163, 30, 148)" fill-opacity = "2.28583799162271670000e-01" />
<circle cx=" 438" cy="751" r="265" fill="rgb(47, 72, 245)" fill-opacity = "9.74651212680776260000e-01" />
<circle cx=" 838" cy="355" r="74" fill="rgb(52, 222, 168)" fill-opacity = "2.66412290822692910000e-01" />
<circle cx=" 47" cy="329" r="128" fill="rgb(38, 116, 90)" fill-opacity = "8.77233862843011640000e-01" />
<circle cx=" 764" cy="515" r="328" fill="rgb(230, 43, 144)" fill-opacity = "1.33829237797814080000e-01" />
<circle cx=" 73" cy="244" r="294" fill="rgb(94, 100, 11)" fill-opacity = "1.26139873437752130000e-01" />
<circle cx=" 481" cy="536" r="240" fill="rgb(128, 54, 174)" fill-opacity = "2.93647260988785020000e-01" />
<circle cx=" 260" cy="585" r="197" fill="rgb(176, 102, 111)" fill-opacity = "9.05710285476626130000e-01" />
<circle cx=" 547" cy="451" r="324" fill="rgb(8, 57, 59)" fill-opacity = "8.73203671298306010000e-01" />
<circle cx=" 173" cy="778" r="343" fill="rgb(17, 5, 169)" fill-opacity = "5.28377532287027000000e-01" />
<circle cx=" 45" cy="374" r="258" fill="rgb(180, 57, 95)" fill-opacity = "4.11349140014132250000e-01" />
<circle cx=" 180" cy="228" r="254" fill="rgb(110, 238, 95)" fill-opacity = "3.17388596470570940000e-01" />
<circle cx=" 369" cy="377" r="341" fill="rgb(47, 40, 58)" fill-opacity = "7.65840615084369960000e-02" />
<circle cx=" 384" cy="423" r="203" fill="rgb(71, 3, 137)" fill-opacity = "4.92885179108635500000e-01" />
<circle cx=" 694" cy="155" r="178" fill="rgb(251, 111, 92)" fill-opacity = "5.97533945823736530000e-01" />
<circle cx=" 716" cy="400" r="111" fill="rgb(139, 147, 159)" fill-opacity = "2.71587187941498160000e-01" />
<circle cx=" 854" cy="328" r="130" fill="rgb(95, 83, 44)" fill-opacity = "9.86883164383010050000e-02" />
<circle cx=" 494" cy="512" r="360" fill="rgb(117, 188, 154)" fill-opacity = "2.16242875387947730000e-01" />
<circle cx=" 898" cy="387" r="260" fill="rgb(195, 154, 3)" fill-opacity = "5.08258176817927730000e-01" />
<circle cx=" 257" cy="934" r="72" fill="rgb(114, 48, 122)" fill-opacity = "1.69147543802962710000e-01" />
<circle cx=" 601" cy="685" r="264" fill="rgb(128, 100, 113)" fill-opacity = "8.19271605382312360000e-02" />
<circle cx=" 666" cy="828" r="16" fill="rgb(46, 216, 178)" fill-opacity = "8.56056634553577940000e-01" />
<circle cx=" 300" cy="723" r="63" fill="rgb(103, 142, 149)" fill-opacity = "2.84298410632129570000e-01" />
<circle cx=" 799" cy="696" r="381" fill="rgb(98, 1, 23)" fill-opacity = "9.49071562313530630000e-01" />
<circle cx=" 363" cy="606" r="321" fill="rgb(5, 113, 27)" fill-opacity = "5.55085848963819520000e-01" />
<circle cx=" 62" cy="839" r="300" fill="rgb(6, 138, 59)" fill-opacity = "8.82021132537231580000e-01" />
<circle cx=" 603" cy="183" r="201" fill="rgb(20, 156, 76)" fill-opacity = "2.90238080098382150000e-01" />
<circle cx=" 264" cy="97" r="356" fill="rgb(124, 7, 15)" fill-opacity = "2.35866751303936750000e-01" />
<circle cx=" 413" cy="654" r="369" fill="rgb(134, 74, 8)" fill-opacity = "8.37804028254709680000e-01" />
</svg>
