<svg height="1024" width="1024">
<circle cx=" 960" cy="606" r="215" fill="rgb(166, 218, 104)" fill-opacity = "4.96387658238044870000e-01" />
<circle cx=" 220" cy="499" r="249" fill="rgb(73, 13, 69)" fill-opacity = "7.18712777143028610000e-01" />
<circle cx=" 663" cy="999" r="44" fill="rgb(215, 186, 45)" fill-opacity = "2.78062272459074000000e-01" />
<circle cx=" 951" cy="499" r="223" fill="rgb(191, 155, 194)" fill-opacity = "7.80050877195166860000e-01" />
<circle cx=" 46" cy="606" r="348" fill="rgb(185, 65, 40)" fill-opacity = "5.55085848963819520000e-01" />
<circle cx=" 942" cy="651" r="307" fill="rgb(218, 36, 14)" fill-opacity = "3.72740928555901800000e-01" />
<circle cx=" 924" cy="19" r="400" fill="rgb(236, 38, 72)" fill-opacity = "3.36547440374946440000e-01" />
<circle cx=" 969" cy="386" r="235" fill="rgb(21, 244, 39)" fill-opacity = "2.57541157341857560000e-01" />
<circle cx=" 462" cy="449" r="344" fill="rgb(184, 185, 13)" fill-opacity = "7.61758036113961980000e-01" />
<circle cx=" 953" cy="591" r="16" fill="rgb(51, 195, 77)" fill-opacity = "2.39546014228189770000e-01" />
<circle cx=" 23" cy="324" r="228" fill="rgb(133, 226, 58)" fill-opacity = "2.93187972033362330000e-01" />
<circle cx=" 144" cy="720" r="317" fill="rgb(100, 9, 179)" fill-opacity = "3.35314307018289130000e-01" />
<circle cx=" 177" cy="56" r="42" fill="rgb(67, 99, 169)" fill-opacity = "5.07449247011006130000e-01" />
<circle cx=" 726" cy="67" r="392" fill="rgb(158, 234, 163)" fill-opacity = "3.84405322427643360000e-01" />
<circle cx=" 331" cy="606" r="376" fill="rgb(170, 161, 92)" fill-opacity = "9.43877768360571690000e-01" />
<circle cx=" 550" cy="962" r="348" fill="rgb(187, 5, 105)" fill-opacity = "5.71648268052538100000e-03" />
<circle cx=" 828" cy="49" r="393" fill="rgb(163, 147, 51)" fill-opacity = "5.36266735882267920000e-01" />
<circle cx=" 180" cy="941" r="234" fill="rgb(159, 20, 69)" fill-opacity = "5.22654347520796090000e-01" />
<circle cx=" 473" cy="379" r="19" fill="rgb(145, 138, 119)" fill-opacity = "7.46079157788168690000e-02" />
<circle cx=" 161" cy="203" r="200" fill="rgb(237, 73, 118)" fill-opacity = "8.65974930368854870000e-01" />
<circle cx=" 133" cy="118" r="259" fill="rgb(221, 238, 79)" fill-opacity = "9.11125995820977640000e-01" />
<circle cx=" 858" cy="411" r="390" fill="rgb(121, 51, 111)" fill-opacity = "6.27407015260972420000e-01" />
<circle cx=" 320" cy="916" r="28" fill="rgb(37, 168, 131)" fill-opacity = "8.89233260858290910000e-02" />
<circle cx=" 612" cy="693" r="281" fill="rgb(140, 59, 91)" fill-opacity = "6.31838500505831570000e-01" />
<circle cx=" 561" cy="594" r="391" fill="rgb(230, 209, 69)" fill-opacity = "8.38439933944761240000e-01" />
<circle cx=" 723" cy="476" r="238" fill="rgb(16, 107, 75)" fill-opacity = "7.86061687687947150000e-01" />
<circle cx=" 19" cy="310" r="383" fill="rgb(31, 4, 82)" fill-opacity = "1.01752640639085620000e-01" />
<circle cx=" 555" cy="76" r="213" fill="rgb(165, 160, 110)" fill-opacity = "5.32466142378098750000e-01" />
<circle cx=" 467" cy="355" r="329" fill="rgb(238, 30, 153)" fill-opacity = "8.95605000639418950000e-01" />
<circle cx=" 995" cy="564" r="316" fill="rgb(203, 244, 125)" fill-opacity = "7.10971843793407390000e-01" />
<circle cx=" 670" cy="969" r="231" fill="rgb(49, 144, 188)" fill-opacity = "3.37811042745221890000e-01" />
<circle cx=" 955" cy="75" r="18" fill="rgb(75, 70, 147)" fill-opacity = "8.84818806103314650000e-01" />
<circle cx=" 372" cy="120" r="358" fill="rgb(226, 246, 105)" fill-opacity = "8.66618867616238630000e-01" />
<circle cx=" 568" cy="44" r="188" fill="rgb(132, 246, 162)" fill-opacity = "6.26194761580255890000e-01" />
<circle cx=" 984" cy="981" r="175" fill="rgb(172, 77, 22)" fill-opacity = "4.66285994509227920000e-01" />
<circle cx=" 301" cy="356" r="244" fill="rgb(220, 231, 60)" fill-opacity = "2.65011736962098120000e-01" />
<circle cx=" 285" cy="982" r="337" fill="rgb(51, 98, 211)" fill-opacity = "1.61395962537149720000e-01" />
<circle cx=" 89" cy="807" r="200" fill="rgb(149, 221, 163)" fill-opacity = "1.11542584535236470000e-01" />
<circle cx=" 857" cy="949" r="97" fill="rgb(245, 63, 230)" fill-opacity = "3.61609791435040910000e-01" />
<circle cx=" 608" cy="30" r="177" fill="rgb(135, 167, 122)" fill-opacity = "6.67356410251307430000e-01" />
<circle cx=" 902" cy="782" r="339" fill="rgb(215, 222, 17)" fill-opacity = "1.65635833657100000000e-01" />
<circle cx=" 2" cy="336" r="144" fill="rgb(47, 36, 62)" fill-opacity = "3.81849358534193770000e-01" />
<circle cx=" 627" cy="279" r="352" fill="rgb(142, 150, 116)" fill-opacity = "1.47946436064416710000e-03" />
<circle cx=" 509" cy="751" r="274" fill="rgb(17, 1, 78)" fill-opacity = "2.53868920545940350000e-01" />
<circle cx=" 853" cy="912" r="20" fill="rgb(19, 237, 5)" fill-opacity = "6.89359876303861090000e-01" />
<circle cx=" 651" cy="889" r="49" fill="rgb(30, 60, 251)" fill-opacity = "8.62420316006549110000e-01" />
<circle cx=" 809" cy="53" r="86" fill="rgb(1, 124, 127)" fill-opacity = "5.24658774328386590000e-01" />
<circle cx=" 580" cy="160" r="195" fill="rgb(121, 200, 138)" fill-opacity = "5.70507761411265250000e-01" />
<circle cx=" 886" cy="729" r="66" fill="rgb(149, 202, 12)" fill-opacity = "8.56594811538768040000e-01" />
<circle cx=" 1006" cy="646" r="264" fill="rgb(241, 32, 70)" fill-opacity = "2.97927533787323280000e-04" />
<circle cx=" 466" cy="108" r="337" fill="rgb(66, 64, 58)" fill-opacity = "5.44466663147291640000e-01" />
<circle cx=" 16" cy="860" r="83" fill="rgb(148, 210, 235)" fill-opacity = "1.24556976112431880000e-01" />
<circle cx=" 236" cy="577" r="340" fill="rgb(35, 224, 137)" fill-opacity = "6.04805883188372920000e-01" />
<circle cx=" 964" cy="721" r="375" fill="rgb(251, 33, 217)" fill-opacity = "5.41897391522416780000e-02" />
<circle cx=" 9" cy="347" r="48" fill="rgb(114, 139, 153)" fill-opacity = "2.08247899584157460000e-02" />
<circle cx=" 926" cy="400" r="183" fill="rgb(169, 126, 43)" fill-opacity = "4.36179647963577550000e-01" />
<circle cx=" 661" cy="651" r="57" fill="rgb(214, 33, 126)" fill-opacity = "3.18938831325469960000e-01" />
<circle cx=" 276" cy="274" r="141" fill="rgb(127, 249, 89)" fill-opacity = "8.30687326892572740000e-01" />
<circle cx=" 678" cy="218" r="113" fill="rgb(92, 91, 12)" fill-opacity = "7.71344484394254290000e-01" />
<circle cx=" 21" cy="679" r="61" fill="rgb(157, 56, 246)" fill-opacity = "3.29936770995743700000e-01" />
<circle cx=" 730" cy="86" r="34" fill="rgb(108, 69, 188)" fill-opacity = "5.39952678256255590000e-01" />
<circle cx=" 946" cy="566" r="102" fill="rgb(247, 223, 136)" fill-opacity = "7.77508094951083750000e-01" />
<circle cx=" 794" cy="687" r="53" fill="rgb(195, 10, 65)" fill-opacity = "6.46306827522660220000e-02" />
<circle cx=" 656" cy="237" r="170" fill="rgb(111, 39, 211)" fill-opacity = "9.49857918380070170000e-01" />
<circle cx=" 903" cy="181" r="194" fill="rgb(206, 8, 124)" fill-opacity = "8.16558079527335500000e-01" />
<circle cx=" 711" cy="175" r="150" fill="rgb(144, 123, 118)" fill-opacity = "9.83166412690992590000e-01" />
<circle cx=" 900" cy="669" r="204" fill="rgb(48, 99, 117)" fill-opacity = "5.92233779559139250000e-01" />
<circle cx=" 477" cy="160" r="349" fill="rgb(217, 188, 59)" fill-opacity = "1.91524440426378730000e-01" />
<circle cx=" 657" cy="950" r="308" fill="rgb(55, 171, 120)" fill-opacity = "9.23538690431949030000e-01" />
<circle cx=" 557" cy="232" r="244" fill="rgb(246, 232, 74)" fill-opacity = "1.24425718402362500000e-01" />
<circle cx=" 692" cy="952" r="397" fill="rgb(110, 219, 163)" fill-opacity = "7.31650121278923260000e-01" />
<circle cx=" 240" cy="755" r="111" fill="rgb(161, 233, 61)" fill-opacity = "1.70202190909370720000e-01" />
<circle cx=" 646" cy="947" r="125" fill="rgb(112, 21, 44)" fill-opacity = "9.15200035875930240000e-01" />
<circle cx=" 669" cy="109" r="216" fill="rgb(256, 44, 217)" fill-opacity = "8.89801505442370910000e-01" />
<circle cx=" 548" cy="756" r="305" fill="rgb(20, 72, 158)" fill-opacity = "9.96494295895847370000e-01" />
<circle cx=" 459" cy="673" r="146" fill="rgb(42, 128, 155)" fill-opacity = "2.61900179056053340000e-01" />
<circle cx=" 648" cy="137" r="163" fill="rgb(93, 139, 57)" fill-opacity = "8.81287006588205470000e-01" />
<circle cx=" 564" cy="443" r="234" fill="rgb(140, 205, 142)" fill-opacity = "8.47429728228021210000e-01" />
<circle cx=" 167" cy="974" r="327" fill="rgb(76, 106, 150)" fill-opacity = "1.64714293597956420000e-01" />
<circle cx=" 153" cy="585" r="113" fill="rgb(182, 36, 182)" fill-opacity = "2.17440792138046120000e-01" />
<circle cx=" 1022" cy="493" r="397" fill="rgb(210, 66, 206)" fill-opacity = "4.11581895213421590000e-01" />
<circle cx=" 29" cy="625" r="257" fill="rgb(150, 142, 144)" fill-opacity = "8.13721638255369470000e-01" />
<circle cx=" 945" cy="835" r="340" fill="rgb(193, 74, 9)" fill-opacity = "8.80250517043428050000e-01" />
<circle cx=" 515" cy="805" r="142" fill="rgb(147, 231, 59)" fill-opacity = "1.06639073293255620000e-01" />
<circle cx=" 778" cy="169" r="320" fill="rgb(249, 151, 15)" fill-opacity = "8.30494955583155560000e-01" />
<circle cx=" 963" cy="889" r="198" fill="rgb(69, 82, 198)" fill-opacity = "6.20467516927463820000e-01" />
<circle cx=" 44" cy="337" r="56" fill="rgb(206, 77, 10)" fill-opacity = "1.42837999651032720000e-01" />
<circle cx=" 257" cy="521" r="167" fill="rgb(15, 152, 177)" fill-opacity = "1.67644967556945800000e-02" />
<circle cx=" 967" cy="177" r="131" fill="rgb(182, 192, 247)" fill-opacity = "2.10670591102939400000e-02" />
<circle cx=" 627" cy="473" r="15" fill="rgb(154, 12, 99)" fill-opacity = "8.96056211289322220000e-01" />
<circle cx=" 227" cy="992" r="50" fill="rgb(140, 251, 16)" fill-opacity = "3.35753342636116340000e-01" />
<circle cx=" 499" cy="896" r="300" fill="rgb(134, 161, 77)" fill-opacity = "7.32849339616519210000e-01" />
<circle cx=" 821" cy="897" r="251" fill="rgb(109, 216, 9)" fill-opacity = "9.81551010120214950000e-01" />
<circle cx=" 146" cy="879" r="192" fill="rgb(168, 115, 240)" fill-opacity = "8.73128051159808740000e-01" />
<circle cx=" 916" cy="173" r="104" fill="rgb(88, 49, 165)" fill-opacity = "7.85940391513560770000e-01" />
<circle cx=" 582" cy="254" r="89" fill="rgb(2, 44, 88)" fill-opacity = "9.76003792551982660000e-01" />
<circle cx=" 799" cy="390" r="274" fill="rgb(104, 139, 126)" fill-opacity = "6.91006963615631080000e-01" />
<circle cx=" 389" cy="501" r="360" fill="rgb(120, 19, 194)" fill-opacity = "7.67017410736257950000e-01" />
<circle cx=" 989" cy="16" r="331" fill="rgb(54, 71, 12)" fill-opacity = "7.48752729671783080000e-01" />
<circle cx=" 709" cy="513" r="158" fill="rgb(143, 163, 55)" fill-opacity = "6.90019670090913360000e-01" />
<circle cx=" 803" cy="387" r="288" fill="rgb(229, 21, 247)" fill-opacity = "8.09378356019610390000e-01" />
<circle cx=" 886" cy="985" r="267" fill="rgb(238, 98, 137)" fill-opacity = "7.62149480142013450000e-01" />
<circle cx=" 784" cy="603" r="210" fill="rgb(159, 57, 103)" fill-opacity = "6.29871336577230380000e-01" />
<circle cx=" 612" cy="416" r="346" fill="rgb(251, 194, 129)" fill-opacity = "7.73269253673813940000e-02" />
<circle cx=" 947" cy="864" r="51" fill="rgb(47, 224, 61)" fill-opacity = "9.53113815943624100000e-01" />
<circle cx=" 124" cy="395" r="96" fill="rgb(19, 182, 100)" fill-opacity = "9.93372863248737750000e-01" />
<circle cx=" 315" cy="454" r="283" fill="rgb(78, 54, 106)" fill-opacity = "7.73269595037644030000e-01" />
<circle cx=" 906" cy="772" r="398" fill="rgb(246, 19, 200)" fill-opacity = "2.77956111766219930000e-01" />
<circle cx=" 872" cy="898" r="71" fill="rgb(24, 46, 186)" fill-opacity = "4.40878304093828220000e-01" />
<circle cx=" 625" cy="356" r="158" fill="rgb(96, 151, 155)" fill-opacity = "1.44448997199507100000e-01" />
<circle cx=" 162" cy="707" r="275" fill="rgb(105, 187, 40)" fill-opacity = "6.53955788228953840000e-01" />
<circle cx=" 538" cy="724" r="60" fill="rgb(50, 106, 230)" fill-opacity = "5.23013922602879600000e-01" />
<circle cx=" 89" cy="856" r="151" fill="rgb(13, 175, 117)" fill-opacity = "4.08469989631945470000e-01" />
<circle cx=" 906" cy="122" r="263" fill="rgb(81, 236, 133)" fill-opacity = "1.36300593951628190000e-01" />
<circle cx=" 513" cy="889" r="258" fill="rgb(158, 155, 138)" fill-opacity = "5.71862607695756360000e-01" />
<circle cx=" 404" cy="327" r="195" fill="rgb(146, 110, 190)" fill-opacity = "8.37561131966526150000e-01" />
<circle cx=" 735" cy="751" r="66" fill="rgb(163, 106, 166)" fill-opacity = "5.84624716372703630000e-01" />
<circle cx=" 687" cy="280" r="142" fill="rgb(219, 49, 121)" fill-opacity = "6.55259720446574770000e-01" />
<circle cx=" 772" cy="645" r="101" fill="rgb(187, 51, 175)" fill-opacity = "7.59418412559668350000e-01" />
<circle cx=" 455" cy="545" r="279" fill="rgb(84, 49, 135)" fill-opacity = "2.49745416520744000000e-01" />
<circle cx=" 618" cy="924" r="185" fill="rgb(176, 121, 71)" fill-opacity = "4.69762847926347820000e-01" />
<circle cx=" 861" cy="381" r="366" fill="rgb(62, 216, 166)" fill-opacity = "7.51201836938064420000e-01" />
<circle cx=" 753" cy="946" r="381" fill="rgb(85, 243, 216)" fill-opacity = "8.20789731548407180000e-01" />
<circle cx=" 143" cy="334" r="73" fill="rgb(224, 190, 203)" fill-opacity = "7.36711070201527150000e-01" />
<circle cx=" 474" cy="215" r="159" fill="rgb(160, 71, 10)" fill-opacity = "7.14488050112778830000e-01" />
<circle cx=" 270" cy="388" r="320" fill="rgb(235, 29, 10)" fill-opacity = "4.22503269662241940000e-01" />
<circle cx=" 834" cy="703" r="269" fill="rgb(191, 244, 50)" fill-opacity = "5.12630630720782850000e-01" />
<circle cx=" 462" cy="292" r="159" fill="rgb(177, 127, 71)" fill-opacity = "8.89186399675907400000e-01" />
<circle cx=" 626" cy="805" r="347" fill="rgb(115, 204, 137)" fill-opacity = "6.82057880185046760000e-01" />
<circle cx=" 123" cy="542" r="265" fill="rgb(15, 107, 56)" fill-opacity = "1.66989392597267190000e-01" />
<circle cx=" 859" cy="403" r="217" fill="rgb(53, 31, 113)" fill-opacity = "1.00326140907392560000e-01" />
<circle cx=" 23" cy="334" r="200" fill="rgb(145, 29, 67)" fill-opacity = "1.45576194788401110000e-01" />
<circle cx=" 572" cy="963" r="188" fill="rgb(190, 153, 188)" fill-opacity = "9.33680566553604760000e-01" />
<circle cx=" 966" cy="888" r="219" fill="rgb(23, 104, 8)" fill-opacity = "5.31908796816382700000e-01" />
<circle cx=" 438" cy="395" r="351" fill="rgb(225, 92, 95)" fill-opacity = "9.36951818321608790000e-01" />
<circle cx=" 694" cy="718" r="157" fill="rgb(170, 203, 74)" fill-opacity = "3.88284366774469090000e-01" />
<circle cx=" 694" cy="683" r="378" fill="rgb(16, 143, 113)" fill-opacity = "5.65439327956618330000e-01" />
<circle cx=" 16" cy="703" r="116" fill="rgb(181, 148, 142)" fill-opacity = "8.42919758580640060000e-01" />
<circle cx=" 196" cy="719" r="375" fill="rgb(117, 41, 101)" fill-opacity = "6.39784123162091770000e-01" />
<circle cx=" 870" cy="659" r="228" fill="rgb(50, 31, 4)" fill-opacity = "1.16609915638069770000e-01" />
<circle cx=" 57" cy="934" r="79" fill="rgb(97, 14, 158)" fill-opacity = "3.72792757631298100000e-01" />
<circle cx=" 46" cy="931" r="16" fill="rgb(128, 139, 181)" fill-opacity = "6.48560191981296440000e-01" />
<circle cx=" 530" cy="403" r="336" fill="rgb(152, 110, 26)" fill-opacity = "7.47266922216028640000e-01" />
<circle cx=" 505" cy="798" r="162" fill="rgb(177, 158, 32)" fill-opacity = "1.80504597131537550000e-01" />
<circle cx=" 917" cy="44" r="330" fill="rgb(93, 100, 16)" fill-opacity = "3.91949059147489450000e-01" />
<circle cx=" 508" cy="913" r="152" fill="rgb(237, 167, 226)" fill-opacity = "3.39556237421080150000e-01" />
<circle cx=" 664" cy="631" r="381" fill="rgb(242, 128, 72)" fill-opacity = "8.36367789486081040000e-03" />
<circle cx=" 724" cy="80" r="272" fill="rgb(123, 109, 121)" fill-opacity = "1.70653548524393180000e-01" />
<circle cx=" 521" cy="371" r="330" fill="rgb(207, 50, 156)" fill-opacity = "1.54166969555420860000e-01" />
<circle cx=" 665" cy="685" r="376" fill="rgb(9, 12, 25)" fill-opacity = "9.34994998980490430000e-01" />
</svg>
