<svg height="1024" width="1024">
<circle cx=" 450" cy="845" r="316" fill="rgb(162, 75, 23)" fill-opacity = "8.37804028254709680000e-01" />
<circle cx=" 35" cy="780" r="364" fill="rgb(116, 43, 239)" fill-opacity = "6.28986928601313890000e-01" />
<circle cx=" 124" cy="294" r="219" fill="rgb(20, 114, 45)" fill-opacity = "6.82882898805027060000e-01" />
<circle cx=" 404" cy="944" r="338" fill="rgb(113, 155, 142)" fill-opacity = "7.52538428831898810000e-01" />
<circle cx=" 432" cy="536" r="122" fill="rgb(121, 242, 200)" fill-opacity = "5.55085848963819520000e-01" />
<circle cx=" 430" cy="217" r="375" fill="rgb(113, 200, 203)" fill-opacity = "7.38715132191226200000e-01" />
<circle cx=" 806" cy="19" r="367" fill="rgb(72, 29, 41)" fill-opacity = "3.48312474184986340000e-03" />
<circle cx=" 181" cy="109" r="336" fill="rgb(254, 154, 91)" fill-opacity = "8.07697560184004850000e-01" />
<circle cx=" 908" cy="478" r="334" fill="rgb(202, 27, 13)" fill-opacity = "2.49234319895289770000e-01" />
<circle cx=" 257" cy="781" r="316" fill="rgb(60, 195, 158)" fill-opacity = "8.24694991781533380000e-01" />
<circle cx=" 547" cy="268" r="347" fill="rgb(33, 154, 195)" fill-opacity = "3.86647801181868480000e-01" />
<circle cx=" 632" cy="854" r="189" fill="rgb(197, 102, 69)" fill-opacity = "8.84014749950864150000e-01" />
<circle cx=" 606" cy="114" r="51" fill="rgb(93, 116, 153)" fill-opacity = "3.71639072332987650000e-02" />
<circle cx=" 354" cy="965" r="194" fill="rgb(94, 51, 163)" fill-opacity = "3.68793971622235930000e-01" />
<circle cx=" 469" cy="116" r="376" fill="rgb(161, 203, 8)" fill-opacity = "2.96721211941672220000e-01" />
<circle cx=" 31" cy="836" r="28" fill="rgb(44, 50, 155)" fill-opacity = "1.65892605861793770000e-01" />
<circle cx=" 313" cy="209" r="338" fill="rgb(163, 33, 241)" fill-opacity = "5.31908796816382700000e-01" />
<circle cx=" 782" cy="658" r="287" fill="rgb(110, 73, 182)" fill-opacity = "7.46612669457647820000e-01" />
<circle cx=" 928" cy="153" r="245" fill="rgb(217, 181, 119)" fill-opacity = "6.22099891489610980000e-01" />
<circle cx=" 618" cy="802" r="217" fill="rgb(177, 128, 135)" fill-opacity = "9.08324278459105900000e-01" />
<circle cx=" 978" cy="793" r="384" fill="rgb(194, 106, 207)" fill-opacity = "4.83984214045309890000e-01" />
<circle cx=" 533" cy="243" r="96" fill="rgb(238, 102, 186)" fill-opacity = "6.11810293971569500000e-01" />
<circle cx=" 817" cy="913" r="230" fill="rgb(38, 182, 8)" fill-opacity = "1.35489941894703310000e-01" />
<circle cx=" 367" cy="186" r="187" fill="rgb(28, 214, 8)" fill-opacity = "8.40665645033751300000e-02" />
<circle cx=" 585" cy="420" r="125" fill="rgb(80, 86, 219)" fill-opacity = "2.01872069319267490000e-01" />
<circle cx=" 84" cy="714" r="265" fill="rgb(216, 174, 119)" fill-opacity = "9.15644012840626240000e-01" />
<circle cx=" 858" cy="586" r="286" fill="rgb(193, 55, 166)" fill-opacity = "4.70157365080243530000e-01" />
<circle cx=" 966" cy="163" r="301" fill="rgb(75, 73, 190)" fill-opacity = "2.81147686295429410000e-01" />
<circle cx=" 256" cy="858" r="250" fill="rgb(30, 30, 105)" fill-opacity = "9.23607291741266320000e-02" />
<circle cx=" 93" cy="115" r="38" fill="rgb(93, 22, 246)" fill-opacity = "9.32499613326549290000e-01" />
<circle cx=" 967" cy="811" r="231" fill="rgb(34, 177, 235)" fill-opacity = "3.63234179052061460000e-01" />
<circle cx=" 358" cy="771" r="5" fill="rgb(226, 126, 195)" fill-opacity = "8.05121337822354400000e-01" />
<circle cx=" 936" cy="571" r="131" fill="rgb(42, 49, 154)" fill-opacity = "1.94032292169949550000e-01" />
<circle cx=" 956" cy="44" r="188" fill="rgb(100, 65, 50)" fill-opacity = "2.74458024898333490000e-01" />
<circle cx=" 911" cy="115" r="21" fill="rgb(142, 56, 155)" fill-opacity = "1.98033565620228560000e-01" />
<circle cx=" 419" cy="522" r="181" fill="rgb(76, 106, 173)" fill-opacity = "1.67791062201849250000e-01" />
<circle cx=" 697" cy="811" r="244" fill="rgb(82, 46, 58)" fill-opacity = "1.61395962537149720000e-01" />
<circle cx=" 450" cy="553" r="161" fill="rgb(195, 49, 109)" fill-opacity = "5.46300350577020310000e-02" />
<circle cx=" 857" cy="170" r="138" fill="rgb(39, 132, 27)" fill-opacity = "3.51612714040125510000e-01" />
<circle cx=" 49" cy="499" r="65" fill="rgb(77, 85, 255)" fill-opacity = "4.73696733199452160000e-01" />
<circle cx=" 281" cy="690" r="29" fill="rgb(159, 129, 3)" fill-opacity = "1.44090343173290500000e-01" />
<circle cx=" 149" cy="487" r="349" fill="rgb(199, 146, 207)" fill-opacity = "9.73306690789560670000e-01" />
<circle cx=" 520" cy="11" r="398" fill="rgb(197, 36, 131)" fill-opacity = "9.69547300783556660000e-01" />
<circle cx=" 374" cy="373" r="298" fill="rgb(166, 1, 63)" fill-opacity = "3.98031091569733820000e-01" />
<circle cx=" 853" cy="30" r="60" fill="rgb(217, 189, 221)" fill-opacity = "6.01654937697524210000e-01" />
<circle cx=" 304" cy="489" r="134" fill="rgb(47, 184, 195)" fill-opacity = "4.33822627437107090000e-01" />
<circle cx=" 631" cy="918" r="381" fill="rgb(37, 211, 61)" fill-opacity = "8.18381729916796360000e-01" />
<circle cx=" 81" cy="832" r="268" fill="rgb(74, 60, 27)" fill-opacity = "9.98389522781554910000e-01" />
<circle cx=" 507" cy="54" r="5" fill="rgb(208, 202, 12)" fill-opacity = "1.36622964977028080000e-01" />
<circle cx=" 468" cy="646" r="19" fill="rgb(96, 250, 38)" fill-opacity = "4.28726424272109610000e-01" />
<circle cx=" 713" cy="484" r="140" fill="rgb(46, 14, 95)" fill-opacity = "1.90497897571749510000e-01" />
<circle cx=" 408" cy="478" r="343" fill="rgb(115, 75, 14)" fill-opacity = "3.07092774663901890000e-01" />
<circle cx=" 236" cy="906" r="388" fill="rgb(90, 54, 73)" fill-opacity = "6.04805883188372920000e-01" />
<circle cx=" 498" cy="942" r="202" fill="rgb(120, 141, 171)" fill-opacity = "6.83352519981620170000e-01" />
<circle cx=" 776" cy="568" r="337" fill="rgb(36, 195, 14)" fill-opacity = "2.33488824340658540000e-01" />
<circle cx=" 238" cy="512" r="63" fill="rgb(31, 114, 239)" fill-opacity = "9.88372115469154710000e-01" />
<circle cx=" 679" cy="866" r="41" fill="rgb(243, 53, 188)" fill-opacity = "7.26306112541138860000e-01" />
<circle cx=" 89" cy="722" r="251" fill="rgb(196, 244, 100)" fill-opacity = "6.61169844452776710000e-01" />
<circle cx=" 731" cy="23" r="70" fill="rgb(104, 30, 161)" fill-opacity = "3.56798298599321660000e-01" />
<circle cx=" 812" cy="115" r="219" fill="rgb(253, 64, 7)" fill-opacity = "3.93771721737451230000e-01" />
<circle cx=" 524" cy="29" r="383" fill="rgb(150, 241, 226)" fill-opacity = "8.70463516248213720000e-01" />
<circle cx=" 946" cy="274" r="150" fill="rgb(203, 157, 230)" fill-opacity = "7.92695302464649030000e-01" />
<circle cx=" 92" cy="551" r="166" fill="rgb(58, 131, 83)" fill-opacity = "3.24633188569629640000e-02" />
<circle cx=" 96" cy="237" r="254" fill="rgb(4, 38, 199)" fill-opacity = "7.31563074134886190000e-01" />
<circle cx=" 707" cy="510" r="19" fill="rgb(68, 97, 117)" fill-opacity = "3.94549167790356760000e-02" />
<circle cx=" 349" cy="874" r="316" fill="rgb(233, 65, 203)" fill-opacity = "6.29882021182683440000e-01" />
<circle cx=" 568" cy="3" r="54" fill="rgb(48, 241, 217)" fill-opacity = "6.56670765579009610000e-01" />
<circle cx=" 616" cy="258" r="395" fill="rgb(61, 84, 240)" fill-opacity = "6.96185032088693420000e-01" />
<circle cx=" 786" cy="878" r="350" fill="rgb(216, 76, 102)" fill-opacity = "2.72883879670025030000e-01" />
<circle cx=" 255" cy="580" r="397" fill="rgb(74, 179, 60)" fill-opacity = "7.70810891121155530000e-01" />
<circle cx=" 903" cy="960" r="303" fill="rgb(40, 45, 204)" fill-opacity = "6.18673780171065780000e-01" />
<circle cx=" 114" cy="330" r="274" fill="rgb(82, 170, 172)" fill-opacity = "9.97156323898318320000e-02" />
<circle cx=" 366" cy="443" r="101" fill="rgb(219, 147, 152)" fill-opacity = "4.41488279124996330000e-01" />
<circle cx=" 859" cy="476" r="216" fill="rgb(256, 137, 45)" fill-opacity = "4.46739932111428480000e-02" />
<circle cx=" 78" cy="24" r="255" fill="rgb(138, 214, 200)" fill-opacity = "1.84971740027429550000e-01" />
<circle cx=" 676" cy="220" r="245" fill="rgb(123, 209, 37)" fill-opacity = "5.60630078751110260000e-01" />
<circle cx=" 6" cy="1005" r="115" fill="rgb(32, 247, 25)" fill-opacity = "8.93492245117778690000e-01" />
<circle cx=" 477" cy="694" r="283" fill="rgb(238, 132, 145)" fill-opacity = "9.09982631496871750000e-01" />
<circle cx=" 701" cy="761" r="274" fill="rgb(99, 167, 195)" fill-opacity = "3.86843683380287520000e-01" />
<circle cx=" 192" cy="10" r="296" fill="rgb(207, 219, 251)" fill-opacity = "7.18118543657041420000e-01" />
<circle cx=" 55" cy="979" r="397" fill="rgb(177, 61, 116)" fill-opacity = "7.70810891121155530000e-01" />
<circle cx=" 32" cy="645" r="92" fill="rgb(251, 169, 144)" fill-opacity = "4.50267432408827160000e-01" />
<circle cx=" 524" cy="461" r="387" fill="rgb(207, 78, 198)" fill-opacity = "1.50687435547422370000e-01" />
<circle cx=" 310" cy="842" r="320" fill="rgb(51, 169, 65)" fill-opacity = "3.39238509743387430000e-01" />
<circle cx=" 909" cy="734" r="133" fill="rgb(239, 169, 128)" fill-opacity = "7.76433328875130610000e-01" />
<circle cx=" 432" cy="708" r="199" fill="rgb(168, 245, 44)" fill-opacity = "1.37846620392539480000e-01" />
<circle cx=" 170" cy="211" r="327" fill="rgb(239, 252, 228)" fill-opacity = "1.42837999651032720000e-01" />
<circle cx=" 417" cy="947" r="284" fill="rgb(197, 131, 45)" fill-opacity = "7.45000072460054840000e-01" />
<circle cx=" 656" cy="366" r="73" fill="rgb(142, 206, 136)" fill-opacity = "1.54073422258400590000e-01" />
<circle cx=" 11" cy="815" r="34" fill="rgb(54, 208, 12)" fill-opacity = "4.08156031129844440000e-01" />
<circle cx=" 809" cy="304" r="187" fill="rgb(59, 10, 146)" fill-opacity = "6.71949752459701340000e-01" />
<circle cx=" 544" cy="718" r="327" fill="rgb(106, 170, 107)" fill-opacity = "1.01312069841725580000e-01" />
<circle cx=" 764" cy="757" r="288" fill="rgb(227, 226, 100)" fill-opacity = "9.10144764026026730000e-01" />
<circle cx=" 399" cy="565" r="41" fill="rgb(20, 240, 158)" fill-opacity = "7.26306112541138860000e-01" />
<circle cx=" 618" cy="326" r="319" fill="rgb(17, 256, 113)" fill-opacity = "5.34592993909794870000e-01" />
<circle cx=" 68" cy="563" r="278" fill="rgb(173, 40, 231)" fill-opacity = "5.36077327991946180000e-01" />
<circle cx=" 517" cy="631" r="298" fill="rgb(50, 23, 41)" fill-opacity = "5.77195913324274560000e-01" />
<circle cx=" 130" cy="268" r="263" fill="rgb(231, 39, 57)" fill-opacity = "4.57781449879186120000e-01" />
<circle cx=" 801" cy="330" r="393" fill="rgb(210, 40, 9)" fill-opacity = "2.73712495041898760000e-01" />
<circle cx=" 360" cy="701" r="185" fill="rgb(239, 64, 81)" fill-opacity = "9.21832698964586190000e-01" />
<circle cx=" 914" cy="560" r="90" fill="rgb(188, 65, 162)" fill-opacity = "2.47009446584295580000e-01" />
<circle cx=" 779" cy="985" r="354" fill="rgb(86, 82, 4)" fill-opacity = "3.90251762459262070000e-01" />
<circle cx=" 88" cy="633" r="143" fill="rgb(66, 152, 50)" fill-opacity = "7.90216039708377950000e-02" />
<circle cx=" 3" cy="191" r="40" fill="rgb(87, 211, 40)" fill-opacity = "5.84218130545442800000e-01" />
<circle cx=" 966" cy="45" r="206" fill="rgb(253, 219, 99)" fill-opacity = "2.82455690164928000000e-01" />
<circle cx=" 268" cy="117" r="136" fill="rgb(163, 181, 25)" fill-opacity = "9.76610601013633280000e-01" />
<circle cx=" 386" cy="454" r="64" fill="rgb(114, 19, 209)" fill-opacity = "5.42595877809506360000e-01" />
<circle cx=" 700" cy="939" r="398" fill="rgb(246, 20, 5)" fill-opacity = "5.41840368696364760000e-01" />
<circle cx=" 631" cy="157" r="14" fill="rgb(152, 115, 23)" fill-opacity = "2.14497508089557700000e-01" />
<circle cx=" 65" cy="172" r="88" fill="rgb(36, 99, 78)" fill-opacity = "9.17174404645770380000e-01" />
<circle cx=" 156" cy="129" r="275" fill="rgb(66, 65, 164)" fill-opacity = "6.67356410251307430000e-01" />
<circle cx=" 524" cy="387" r="82" fill="rgb(167, 170, 123)" fill-opacity = "4.00964223254427490000e-01" />
<circle cx=" 754" cy="121" r="200" fill="rgb(214, 119, 117)" fill-opacity = "2.84192662206144140000e-01" />
<circle cx=" 475" cy="493" r="281" fill="rgb(51, 248, 174)" fill-opacity = "3.28585537459407110000e-02" />
<circle cx=" 185" cy="54" r="305" fill="rgb(198, 17, 76)" fill-opacity = "3.01416315129025670000e-01" />
<circle cx=" 73" cy="352" r="400" fill="rgb(198, 54, 190)" fill-opacity = "7.10459692298297530000e-01" />
<circle cx=" 443" cy="345" r="152" fill="rgb(70, 6, 154)" fill-opacity = "3.47453574192596370000e-01" />
<circle cx=" 331" cy="45" r="64" fill="rgb(88, 58, 21)" fill-opacity = "3.98930004264019140000e-01" />
<circle cx=" 536" cy="493" r="68" fill="rgb(201, 84, 212)" fill-opacity = "1.23123090692268460000e-01" />
<circle cx=" 167" cy="694" r="268" fill="rgb(205, 171, 26)" fill-opacity = "4.68664110403121730000e-01" />
<circle cx=" 365" cy="494" r="11" fill="rgb(135, 240, 87)" fill-opacity = "3.12890298029170790000e-01" />
<circle cx=" 119" cy="764" r="313" fill="rgb(63, 30, 225)" fill-opacity = "5.27930619566530090000e-02" />
<circle cx=" 564" cy="946" r="381" fill="rgb(29, 72, 5)" fill-opacity = "7.12290339011065980000e-01" />
<circle cx=" 419" cy="235" r="216" fill="rgb(187, 76, 200)" fill-opacity = "3.81500012514282450000e-01" />
<circle cx=" 395" cy="945" r="163" fill="rgb(103, 44, 41)" fill-opacity = "8.41361476037625120000e-01" />
<circle cx=" 764" cy="431" r="320" fill="rgb(15, 224, 195)" fill-opacity = "1.33829237797814080000e-01" />
<circle cx=" 675" cy="225" r="51" fill="rgb(112, 114, 50)" fill-opacity = "6.28424406679448650000e-02" />
<circle cx=" 956" cy="326" r="170" fill="rgb(159, 141, 240)" fill-opacity = "1.35489941894703310000e-01" />
<circle cx=" 15" cy="116" r="229" fill="rgb(173, 115, 189)" fill-opacity = "6.93428766107309520000e-01" />
<circle cx=" 378" cy="176" r="240" fill="rgb(209, 43, 57)" fill-opacity = "4.31259569663643650000e-01" />
<circle cx=" 412" cy="403" r="247" fill="rgb(186, 61, 136)" fill-opacity = "7.76743077349852930000e-01" />
<circle cx=" 616" cy="340" r="200" fill="rgb(242, 152, 112)" fill-opacity = "1.93076387208058530000e-01" />
<circle cx=" 651" cy="298" r="234" fill="rgb(190, 222, 60)" fill-opacity = "5.43196796143874390000e-03" />
<circle cx=" 938" cy="172" r="377" fill="rgb(52, 104, 98)" fill-opacity = "8.54251959451427290000e-01" />
<circle cx=" 690" cy="897" r="55" fill="rgb(137, 121, 72)" fill-opacity = "4.07239561348334390000e-01" />
<circle cx=" 423" cy="331" r="157" fill="rgb(1, 120, 2)" fill-opacity = "2.41615488810876580000e-01" />
<circle cx=" 187" cy="527" r="101" fill="rgb(231, 74, 175)" fill-opacity = "3.66489173196831160000e-01" />
<circle cx=" 247" cy="192" r="341" fill="rgb(196, 44, 7)" fill-opacity = "3.70275463412750310000e-01" />
<circle cx=" 688" cy="238" r="373" fill="rgb(165, 89, 41)" fill-opacity = "5.86156590403389190000e-01" />
<circle cx=" 406" cy="387" r="260" fill="rgb(133, 110, 3)" fill-opacity = "4.57474087738866770000e-01" />
<circle cx=" 754" cy="310" r="227" fill="rgb(13, 107, 128)" fill-opacity = "5.08392217320048800000e-01" />
<circle cx=" 29" cy="875" r="307" fill="rgb(8, 29, 50)" fill-opacity = "5.31672401885222580000e-01" />
<circle cx=" 666" cy="69" r="55" fill="rgb(46, 117, 180)" fill-opacity = "6.40568993872471020000e-01" />
<circle cx=" 593" cy="479" r="294" fill="rgb(177, 148, 5)" fill-opacity = "1.80504597131537550000e-01" />
<circle cx=" 936" cy="217" r="20" fill="rgb(155, 57, 4)" fill-opacity = "6.24849337694627360000e-01" />
<circle cx=" 108" cy="675" r="149" fill="rgb(91, 1, 27)" fill-opacity = "8.15143381995285240000e-01" />
<circle cx=" 148" cy="988" r="51" fill="rgb(234, 36, 43)" fill-opacity = "6.75486936471363380000e-01" />
<circle cx=" 724" cy="750" r="349" fill="rgb(83, 26, 82)" fill-opacity = "3.68495833631859340000e-01" />
<circle cx=" 679" cy="371" r="359" fill="rgb(76, 50, 15)" fill-opacity = "2.35866751303936750000e-01" />
<circle cx=" 426" cy="685" r="322" fill="rgb(81, 93, 52)" fill-opacity = "6.37724498808428960000e-01" />
</svg>
