<svg height="1024" width="1024">
<circle cx=" 419" cy="158" r="42" fill="rgb(241, 28, 64)" fill-opacity = "2.57218210659228230000e-01" />
<circle cx=" 264" cy="812" r="173" fill="rgb(116, 136, 48)" fill-opacity = "1.73459723407408890000e-01" />
<circle cx=" 798" cy="285" r="165" fill="rgb(244, 185, 4)" fill-opacity = "9.64751965536831960000e-02" />
<circle cx=" 989" cy="884" r="51" fill="rgb(15, 31, 33)" fill-opacity = "6.78958313651664370000e-01" />
<circle cx=" 21" cy="937" r="15" fill="rgb(203, 116, 17)" fill-opacity = "4.28716363578084620000e-01" />
<circle cx=" 124" cy="336" r="345" fill="rgb(64, 229, 136)" fill-opacity = "8.10087145460622660000e-01" />
<circle cx=" 593" cy="909" r="389" fill="rgb(171, 198, 12)" fill-opacity = "8.05093993227871670000e-01" />
<circle cx=" 833" cy="973" r="16" fill="rgb(85, 118, 178)" fill-opacity = "7.30526023887016150000e-01" />
<circle cx=" 29" cy="665" r="359" fill="rgb(199, 207, 77)" fill-opacity = "3.43808133476146250000e-01" />
<circle cx=" 429" cy="160" r="169" fill="rgb(60, 235, 229)" fill-opacity = "8.66186351191178260000e-04" />
<circle cx=" 123" cy="281" r="179" fill="rgb(84, 104, 195)" fill-opacity = "1.11121325937055810000e-01" />
<circle cx=" 30" cy="549" r="101" fill="rgb(100, 45, 104)" fill-opacity = "5.70744491400943850000e-01" />
<circle cx=" 45" cy="117" r="348" fill="rgb(181, 53, 8)" fill-opacity = "5.70288083065694010000e-01" />
<circle cx=" 519" cy="399" r="226" fill="rgb(112, 25, 159)" fill-opacity = "6.84685776316878330000e-01" />
<circle cx=" 840" cy="321" r="352" fill="rgb(75, 86, 161)" fill-opacity = "4.95498500383981800000e-01" />
<circle cx=" 495" cy="853" r="348" fill="rgb(166, 215, 111)" fill-opacity = "5.51680724625528200000e-01" />
<circle cx=" 456" cy="394" r="140" fill="rgb(151, 79, 6)" fill-opacity = "5.69069548126388440000e-01" />
<circle cx=" 54" cy="90" r="238" fill="rgb(145, 218, 17)" fill-opacity = "6.75809783872921120000e-01" />
<circle cx=" 680" cy="340" r="138" fill="rgb(180, 46, 236)" fill-opacity = "2.34089298517758950000e-01" />
<circle cx=" 618" cy="698" r="145" fill="rgb(147, 91, 104)" fill-opacity = "1.70570620146885510000e-01" />
<circle cx=" 806" cy="406" r="396" fill="rgb(132, 51, 133)" fill-opacity = "4.74756479639524500000e-01" />
<circle cx=" 978" cy="585" r="102" fill="rgb(81, 87, 208)" fill-opacity = "7.89026645338992690000e-02" />
<circle cx=" 507" cy="754" r="350" fill="rgb(3, 235, 47)" fill-opacity = "2.27313000518086560000e-01" />
<circle cx=" 367" cy="3" r="150" fill="rgb(127, 243, 31)" fill-opacity = "2.89958032180313020000e-02" />
<circle cx=" 370" cy="434" r="231" fill="rgb(126, 214, 243)" fill-opacity = "3.69065182218027750000e-01" />
<circle cx=" 828" cy="714" r="247" fill="rgb(75, 49, 126)" fill-opacity = "7.30778935310302470000e-01" />
<circle cx=" 161" cy="310" r="30" fill="rgb(90, 1, 39)" fill-opacity = "9.82064353246084210000e-01" />
<circle cx=" 648" cy="170" r="313" fill="rgb(105, 36, 172)" fill-opacity = "5.01425564751250660000e-01" />
<circle cx=" 467" cy="109" r="178" fill="rgb(165, 70, 199)" fill-opacity = "3.02931359903090500000e-01" />
<circle cx=" 160" cy="744" r="260" fill="rgb(50, 152, 183)" fill-opacity = "7.10971843793407390000e-01" />
<circle cx=" 34" cy="482" r="199" fill="rgb(247, 90, 62)" fill-opacity = "1.58568871437581030000e-01" />
<circle cx=" 728" cy="286" r="294" fill="rgb(83, 8, 156)" fill-opacity = "1.23123090692268460000e-01" />
<circle cx=" 287" cy="67" r="110" fill="rgb(223, 187, 231)" fill-opacity = "5.00145503933902000000e-02" />
<circle cx=" 528" cy="922" r="169" fill="rgb(79, 65, 50)" fill-opacity = "8.38081267253208750000e-01" />
<circle cx=" 73" cy="341" r="309" fill="rgb(190, 169, 141)" fill-opacity = "7.72901700431713130000e-01" />
<circle cx=" 562" cy="305" r="258" fill="rgb(46, 113, 238)" fill-opacity = "1.28063149935921940000e-02" />
<circle cx=" 992" cy="798" r="377" fill="rgb(43, 248, 49)" fill-opacity = "3.85747598136413130000e-01" />
<circle cx=" 629" cy="124" r="313" fill="rgb(198, 42, 19)" fill-opacity = "9.00568798095607860000e-01" />
<circle cx=" 3" cy="233" r="18" fill="rgb(2, 252, 203)" fill-opacity = "1.09169979310760560000e-01" />
<circle cx=" 288" cy="288" r="69" fill="rgb(78, 102, 115)" fill-opacity = "7.18016613898714070000e-01" />
<circle cx=" 89" cy="905" r="103" fill="rgb(256, 153, 116)" fill-opacity = "7.52616541767366140000e-01" />
<circle cx=" 622" cy="422" r="144" fill="rgb(94, 222, 215)" fill-opacity = "4.85932060525027240000e-01" />
<circle cx=" 825" cy="339" r="398" fill="rgb(142, 73, 173)" fill-opacity = "4.68166248344069390000e-01" />
<circle cx=" 254" cy="981" r="184" fill="rgb(17, 1, 102)" fill-opacity = "7.46270957660911450000e-01" />
<circle cx=" 394" cy="765" r="60" fill="rgb(206, 9, 196)" fill-opacity = "7.54924807255520140000e-01" />
<circle cx=" 265" cy="612" r="134" fill="rgb(154, 13, 33)" fill-opacity = "7.28704534269491780000e-01" />
<circle cx=" 612" cy="327" r="266" fill="rgb(175, 36, 249)" fill-opacity = "4.26594103409145830000e-01" />
<circle cx=" 998" cy="319" r="186" fill="rgb(71, 98, 47)" fill-opacity = "2.32147354664796750000e-01" />
<circle cx=" 779" cy="509" r="261" fill="rgb(188, 198, 153)" fill-opacity = "4.36441541469866360000e-01" />
<circle cx=" 121" cy="177" r="72" fill="rgb(216, 198, 226)" fill-opacity = "4.54894479589439850000e-01" />
<circle cx=" 169" cy="440" r="230" fill="rgb(165, 14, 95)" fill-opacity = "3.38921302457520670000e-01" />
<circle cx=" 51" cy="105" r="86" fill="rgb(58, 156, 217)" fill-opacity = "5.09925131148700190000e-01" />
<circle cx=" 236" cy="376" r="252" fill="rgb(223, 56, 129)" fill-opacity = "2.77770977709264950000e-01" />
<circle cx=" 522" cy="201" r="291" fill="rgb(64, 250, 231)" fill-opacity = "1.01357175707101450000e-01" />
<circle cx=" 893" cy="568" r="107" fill="rgb(98, 182, 76)" fill-opacity = "3.09638360894344710000e-01" />
<circle cx=" 916" cy="870" r="120" fill="rgb(9, 136, 96)" fill-opacity = "7.75874172538423950000e-01" />
<circle cx=" 82" cy="926" r="118" fill="rgb(214, 19, 138)" fill-opacity = "9.61754829783565410000e-02" />
<circle cx=" 7" cy="52" r="48" fill="rgb(168, 208, 254)" fill-opacity = "1.47240542668613640000e-01" />
<circle cx=" 903" cy="896" r="9" fill="rgb(33, 174, 75)" fill-opacity = "1.86382758848324230000e-01" />
<circle cx=" 656" cy="977" r="372" fill="rgb(253, 192, 252)" fill-opacity = "2.26294958717782490000e-01" />
<circle cx=" 743" cy="418" r="355" fill="rgb(124, 159, 22)" fill-opacity = "2.84997961874724930000e-01" />
<circle cx=" 449" cy="61" r="82" fill="rgb(247, 192, 235)" fill-opacity = "1.27915158755413930000e-01" />
<circle cx=" 778" cy="480" r="7" fill="rgb(174, 80, 22)" fill-opacity = "5.27194044826494460000e-01" />
<circle cx=" 44" cy="407" r="335" fill="rgb(116, 18, 148)" fill-opacity = "9.64264857476091360000e-01" />
<circle cx=" 841" cy="372" r="265" fill="rgb(226, 159, 156)" fill-opacity = "3.28032980158190490000e-01" />
<circle cx=" 100" cy="741" r="235" fill="rgb(94, 98, 128)" fill-opacity = "5.12387299066269450000e-01" />
<circle cx=" 900" cy="23" r="266" fill="rgb(99, 154, 217)" fill-opacity = "8.19242523916685620000e-01" />
<circle cx=" 945" cy="668" r="359" fill="rgb(164, 176, 81)" fill-opacity = "3.06568817204174500000e-01" />
<circle cx=" 752" cy="137" r="308" fill="rgb(10, 41, 102)" fill-opacity = "4.67487020243003930000e-01" />
<circle cx=" 869" cy="876" r="341" fill="rgb(235, 75, 78)" fill-opacity = "1.36305652801038680000e-01" />
<circle cx=" 728" cy="390" r="399" fill="rgb(69, 72, 50)" fill-opacity = "4.32479802454294400000e-01" />
<circle cx=" 651" cy="800" r="29" fill="rgb(206, 93, 9)" fill-opacity = "4.97060940820309440000e-01" />
<circle cx=" 140" cy="57" r="192" fill="rgb(93, 196, 200)" fill-opacity = "1.51459345914612080000e-01" />
<circle cx=" 950" cy="1005" r="59" fill="rgb(201, 129, 104)" fill-opacity = "4.46739932111428480000e-02" />
<circle cx=" 80" cy="376" r="146" fill="rgb(18, 145, 194)" fill-opacity = "5.19410992131743800000e-01" />
<circle cx=" 379" cy="892" r="121" fill="rgb(99, 105, 30)" fill-opacity = "8.43448556980386230000e-02" />
<circle cx=" 952" cy="815" r="248" fill="rgb(32, 181, 53)" fill-opacity = "3.78615875506526760000e-01" />
<circle cx=" 274" cy="609" r="135" fill="rgb(34, 78, 152)" fill-opacity = "8.85423513362211260000e-01" />
<circle cx=" 985" cy="330" r="222" fill="rgb(95, 106, 46)" fill-opacity = "3.86843683380287520000e-01" />
<circle cx=" 91" cy="377" r="296" fill="rgb(110, 25, 20)" fill-opacity = "4.41902210499463430000e-01" />
<circle cx=" 78" cy="375" r="140" fill="rgb(48, 33, 74)" fill-opacity = "6.25595458298387590000e-01" />
<circle cx=" 41" cy="625" r="68" fill="rgb(42, 152, 72)" fill-opacity = "8.16710595929798000000e-01" />
<circle cx=" 668" cy="193" r="371" fill="rgb(193, 85, 24)" fill-opacity = "1.27140485818670880000e-02" />
<circle cx=" 937" cy="580" r="175" fill="rgb(210, 154, 65)" fill-opacity = "6.56670765579009610000e-01" />
<circle cx=" 778" cy="759" r="85" fill="rgb(178, 20, 118)" fill-opacity = "3.91961724148327750000e-01" />
<circle cx=" 834" cy="951" r="260" fill="rgb(65, 8, 124)" fill-opacity = "4.14858415627401780000e-01" />
<circle cx=" 957" cy="535" r="344" fill="rgb(231, 178, 248)" fill-opacity = "6.48668862819173240000e-01" />
<circle cx=" 203" cy="86" r="54" fill="rgb(156, 254, 14)" fill-opacity = "8.04125925858869990000e-01" />
<circle cx=" 459" cy="566" r="102" fill="rgb(100, 212, 213)" fill-opacity = "1.01217158322582270000e-01" />
<circle cx=" 99" cy="22" r="214" fill="rgb(82, 148, 145)" fill-opacity = "6.96671141945971680000e-01" />
<circle cx=" 439" cy="314" r="41" fill="rgb(211, 102, 63)" fill-opacity = "3.49407166940583820000e-01" />
<circle cx=" 601" cy="251" r="327" fill="rgb(53, 174, 77)" fill-opacity = "2.43705460371586690000e-01" />
<circle cx=" 765" cy="722" r="341" fill="rgb(168, 246, 138)" fill-opacity = "4.14222121195686910000e-01" />
<circle cx=" 860" cy="956" r="155" fill="rgb(87, 113, 161)" fill-opacity = "1.42381454127856740000e-01" />
<circle cx=" 6" cy="456" r="170" fill="rgb(81, 26, 159)" fill-opacity = "9.88372115469154710000e-01" />
<circle cx=" 372" cy="77" r="266" fill="rgb(68, 189, 115)" fill-opacity = "8.37997567289807680000e-02" />
<circle cx=" 517" cy="209" r="384" fill="rgb(221, 44, 155)" fill-opacity = "2.70867259473216880000e-01" />
<circle cx=" 681" cy="156" r="174" fill="rgb(56, 87, 235)" fill-opacity = "9.01606157694652130000e-02" />
<circle cx=" 843" cy="323" r="331" fill="rgb(34, 165, 82)" fill-opacity = "1.24556976112431880000e-01" />
<circle cx=" 110" cy="812" r="59" fill="rgb(46, 39, 37)" fill-opacity = "2.20937181475072690000e-01" />
<circle cx=" 753" cy="149" r="354" fill="rgb(127, 186, 159)" fill-opacity = "8.93575192582084400000e-01" />
<circle cx=" 947" cy="394" r="207" fill="rgb(236, 126, 25)" fill-opacity = "8.96146565545383740000e-01" />
<circle cx=" 618" cy="160" r="303" fill="rgb(248, 227, 20)" fill-opacity = "4.19499321887630840000e-02" />
<circle cx=" 631" cy="191" r="328" fill="rgb(104, 166, 157)" fill-opacity = "9.33300531361821670000e-01" />
<circle cx=" 243" cy="36" r="69" fill="rgb(12, 123, 106)" fill-opacity = "1.17782257385609770000e-01" />
<circle cx=" 853" cy="413" r="279" fill="rgb(12, 20, 26)" fill-opacity = "7.54924807255520140000e-01" />
<circle cx=" 718" cy="373" r="148" fill="rgb(127, 105, 101)" fill-opacity = "6.15569998377208720000e-01" />
<circle cx=" 696" cy="113" r="12" fill="rgb(7, 238, 163)" fill-opacity = "8.58530316228705460000e-01" />
<circle cx=" 631" cy="308" r="278" fill="rgb(104, 178, 215)" fill-opacity = "7.69609593992742090000e-01" />
<circle cx=" 65" cy="892" r="246" fill="rgb(178, 174, 3)" fill-opacity = "2.83842510263400790000e-01" />
<circle cx=" 158" cy="485" r="380" fill="rgb(195, 89, 47)" fill-opacity = "8.75570439421023530000e-01" />
<circle cx=" 100" cy="949" r="199" fill="rgb(189, 238, 73)" fill-opacity = "4.00964223254427490000e-01" />
<circle cx=" 845" cy="293" r="63" fill="rgb(15, 46, 101)" fill-opacity = "1.47179074076379650000e-01" />
<circle cx=" 365" cy="632" r="364" fill="rgb(73, 56, 64)" fill-opacity = "1.61395962537149720000e-01" />
<circle cx=" 97" cy="53" r="219" fill="rgb(9, 223, 109)" fill-opacity = "1.69983582799855260000e-01" />
<circle cx=" 765" cy="748" r="299" fill="rgb(228, 186, 256)" fill-opacity = "2.35875452918666630000e-01" />
<circle cx=" 139" cy="922" r="346" fill="rgb(182, 238, 236)" fill-opacity = "5.32738218401520580000e-01" />
<circle cx=" 698" cy="971" r="299" fill="rgb(253, 115, 50)" fill-opacity = "2.86137327370711240000e-01" />
<circle cx=" 446" cy="53" r="8" fill="rgb(98, 79, 63)" fill-opacity = "2.95153065094701180000e-01" />
<circle cx=" 465" cy="848" r="104" fill="rgb(205, 140, 151)" fill-opacity = "4.86026200394036770000e-01" />
<circle cx=" 523" cy="722" r="137" fill="rgb(212, 10, 79)" fill-opacity = "1.27705863478285050000e-01" />
<circle cx=" 861" cy="871" r="311" fill="rgb(106, 159, 162)" fill-opacity = "6.59599115491496410000e-01" />
<circle cx=" 789" cy="144" r="19" fill="rgb(168, 66, 172)" fill-opacity = "4.35254583221906800000e-02" />
<circle cx=" 627" cy="634" r="388" fill="rgb(252, 253, 12)" fill-opacity = "3.81500012514282450000e-01" />
<circle cx=" 939" cy="557" r="137" fill="rgb(14, 227, 90)" fill-opacity = "4.26476586627847270000e-01" />
<circle cx=" 467" cy="368" r="231" fill="rgb(26, 115, 144)" fill-opacity = "3.32594586529014300000e-01" />
<circle cx=" 684" cy="3" r="222" fill="rgb(191, 213, 216)" fill-opacity = "5.12945521219505540000e-01" />
<circle cx=" 443" cy="981" r="240" fill="rgb(37, 182, 83)" fill-opacity = "1.96450067481395150000e-01" />
<circle cx=" 202" cy="767" r="186" fill="rgb(36, 216, 137)" fill-opacity = "2.41277673012518350000e-01" />
<circle cx=" 747" cy="542" r="151" fill="rgb(98, 62, 113)" fill-opacity = "4.51179482367578820000e-01" />
<circle cx=" 692" cy="73" r="249" fill="rgb(43, 27, 156)" fill-opacity = "5.24018490709966200000e-01" />
<circle cx=" 616" cy="421" r="73" fill="rgb(242, 2, 119)" fill-opacity = "8.33028780330368200000e-01" />
<circle cx=" 888" cy="262" r="161" fill="rgb(190, 90, 174)" fill-opacity = "6.04952504528432740000e-01" />
<circle cx=" 256" cy="625" r="140" fill="rgb(79, 47, 17)" fill-opacity = "8.54251959451427290000e-01" />
<circle cx=" 396" cy="738" r="193" fill="rgb(206, 215, 123)" fill-opacity = "8.15260594671771700000e-01" />
<circle cx=" 694" cy="75" r="237" fill="rgb(56, 61, 145)" fill-opacity = "9.20574519098842360000e-01" />
<circle cx=" 289" cy="422" r="194" fill="rgb(94, 17, 53)" fill-opacity = "3.68793971622235930000e-01" />
<circle cx=" 384" cy="215" r="227" fill="rgb(200, 237, 28)" fill-opacity = "8.45573819611658450000e-01" />
<circle cx=" 302" cy="719" r="21" fill="rgb(251, 213, 72)" fill-opacity = "4.65486612175719740000e-01" />
<circle cx=" 233" cy="616" r="112" fill="rgb(134, 245, 68)" fill-opacity = "4.47652790311362740000e-01" />
<circle cx=" 926" cy="591" r="133" fill="rgb(36, 250, 43)" fill-opacity = "7.60351977430802520000e-01" />
<circle cx=" 514" cy="483" r="138" fill="rgb(124, 66, 197)" fill-opacity = "5.31672401885222580000e-01" />
<circle cx=" 10" cy="194" r="16" fill="rgb(202, 69, 13)" fill-opacity = "3.46996942473137620000e-01" />
<circle cx=" 936" cy="784" r="4" fill="rgb(161, 58, 106)" fill-opacity = "4.35620932080055920000e-01" />
<circle cx=" 799" cy="867" r="149" fill="rgb(123, 137, 16)" fill-opacity = "9.65080590828335530000e-01" />
<circle cx=" 108" cy="803" r="55" fill="rgb(201, 150, 27)" fill-opacity = "9.21043847968258110000e-01" />
<circle cx=" 535" cy="335" r="391" fill="rgb(140, 13, 42)" fill-opacity = "6.75486936471363380000e-01" />
<circle cx=" 721" cy="999" r="323" fill="rgb(154, 26, 14)" fill-opacity = "9.80214317848756570000e-01" />
<circle cx=" 60" cy="887" r="350" fill="rgb(24, 43, 18)" fill-opacity = "7.73794894379060240000e-01" />
<circle cx=" 909" cy="654" r="314" fill="rgb(33, 26, 8)" fill-opacity = "6.37724498808428960000e-01" />
</svg>
