<svg height="1024" width="1024">
<circle cx=" 419" cy="654" r="380" fill="rgb(9, 105, 64)" fill-opacity = "2.90063490756416350000e-01" />
<circle cx=" 264" cy="371" r="356" fill="rgb(76, 12, 114)" fill-opacity = "2.35866751303936750000e-01" />
<circle cx=" 409" cy="999" r="272" fill="rgb(20, 8, 82)" fill-opacity = "6.79514828632950210000e-01" />
<circle cx=" 951" cy="400" r="51" fill="rgb(15, 59, 59)" fill-opacity = "6.75486936471363380000e-01" />
<circle cx=" 108" cy="687" r="181" fill="rgb(153, 16, 27)" fill-opacity = "9.96632520348770030000e-01" />
<circle cx=" 799" cy="629" r="381" fill="rgb(113, 41, 24)" fill-opacity = "5.34796123988997780000e-01" />
<circle cx=" 300" cy="951" r="4" fill="rgb(82, 20, 65)" fill-opacity = "1.34984345221011550000e-01" />
<circle cx=" 666" cy="811" r="16" fill="rgb(192, 36, 58)" fill-opacity = "7.47266922216028640000e-01" />
<circle cx=" 35" cy="614" r="391" fill="rgb(128, 144, 105)" fill-opacity = "5.31672401885222580000e-01" />
<circle cx=" 72" cy="222" r="72" fill="rgb(97, 235, 231)" fill-opacity = "2.67807462865690570000e-01" />
<circle cx=" 337" cy="587" r="260" fill="rgb(77, 50, 146)" fill-opacity = "6.76495694994463380000e-01" />
<circle cx=" 632" cy="600" r="295" fill="rgb(117, 7, 162)" fill-opacity = "7.67071669731415610000e-01" />
<circle cx=" 39" cy="114" r="227" fill="rgb(196, 83, 7)" fill-opacity = "6.97794975506407900000e-01" />
<circle cx=" 128" cy="400" r="83" fill="rgb(204, 234, 172)" fill-opacity = "5.65439327956618330000e-01" />
<circle cx=" 694" cy="116" r="157" fill="rgb(237, 111, 236)" fill-opacity = "2.51060033775673650000e-01" />
<circle cx=" 517" cy="423" r="130" fill="rgb(71, 3, 72)" fill-opacity = "4.77830912304839650000e-02" />
<circle cx=" 297" cy="377" r="257" fill="rgb(162, 104, 73)" fill-opacity = "8.51206004174058340000e-01" />
<circle cx=" 630" cy="90" r="254" fill="rgb(145, 222, 92)" fill-opacity = "9.27501169731901330000e-01" />
<circle cx=" 579" cy="492" r="284" fill="rgb(242, 46, 48)" fill-opacity = "5.49677304727026030000e-01" />
<circle cx=" 618" cy="242" r="247" fill="rgb(138, 86, 3)" fill-opacity = "5.47472208421507120000e-01" />
<circle cx=" 547" cy="10" r="392" fill="rgb(232, 16, 51)" fill-opacity = "4.74756479639524500000e-01" />
<circle cx=" 15" cy="27" r="102" fill="rgb(140, 62, 111)" fill-opacity = "7.47158828934818330000e-01" />
<circle cx=" 956" cy="325" r="374" fill="rgb(90, 63, 8)" fill-opacity = "2.85584479190785330000e-01" />
<circle cx=" 572" cy="244" r="150" fill="rgb(207, 212, 50)" fill-opacity = "6.08428041229889250000e-01" />
<circle cx=" 820" cy="347" r="211" fill="rgb(230, 28, 69)" fill-opacity = "2.57232206610671140000e-01" />
<circle cx=" 125" cy="900" r="109" fill="rgb(26, 116, 251)" fill-opacity = "6.89850494538506890000e-01" />
<circle cx=" 161" cy="228" r="144" fill="rgb(149, 174, 135)" fill-opacity = "7.34989765938971470000e-01" />
<circle cx=" 753" cy="798" r="265" fill="rgb(137, 209, 6)" fill-opacity = "7.12290339011065980000e-01" />
<circle cx=" 342" cy="109" r="366" fill="rgb(190, 30, 199)" fill-opacity = "2.28583799162271670000e-01" />
<circle cx=" 995" cy="982" r="268" fill="rgb(125, 56, 183)" fill-opacity = "4.69762847926347820000e-01" />
<circle cx=" 34" cy="886" r="338" fill="rgb(49, 3, 62)" fill-opacity = "1.11355556389362680000e-01" />
<circle cx=" 338" cy="142" r="99" fill="rgb(201, 45, 63)" fill-opacity = "1.23123090692268460000e-01" />
<circle cx=" 425" cy="431" r="1" fill="rgb(24, 133, 234)" fill-opacity = "4.92130740480317020000e-01" />
<circle cx=" 443" cy="409" r="293" fill="rgb(79, 31, 35)" fill-opacity = "2.74458024898333490000e-01" />
<circle cx=" 493" cy="764" r="400" fill="rgb(68, 54, 141)" fill-opacity = "6.52708492961253440000e-01" />
<circle cx=" 208" cy="349" r="219" fill="rgb(46, 144, 76)" fill-opacity = "4.29215064799240760000e-01" />
<circle cx=" 333" cy="127" r="215" fill="rgb(155, 248, 46)" fill-opacity = "1.61395962537149720000e-01" />
<circle cx=" 82" cy="121" r="56" fill="rgb(39, 144, 117)" fill-opacity = "7.44315060917368540000e-01" />
<circle cx=" 857" cy="49" r="18" fill="rgb(104, 170, 25)" fill-opacity = "9.94079002996640760000e-01" />
<circle cx=" 513" cy="499" r="169" fill="rgb(203, 149, 83)" fill-opacity = "6.67356410251307430000e-01" />
<circle cx=" 89" cy="172" r="127" fill="rgb(39, 234, 78)" fill-opacity = "8.79449320157516200000e-01" />
<circle cx=" 197" cy="834" r="168" fill="rgb(231, 254, 215)" fill-opacity = "3.28978660318800520000e-01" />
<circle cx=" 672" cy="330" r="262" fill="rgb(237, 245, 47)" fill-opacity = "5.41840368696364760000e-01" />
<circle cx=" 992" cy="981" r="123" fill="rgb(17, 1, 102)" fill-opacity = "7.49320686806258960000e-01" />
<circle cx=" 96" cy="765" r="28" fill="rgb(163, 9, 52)" fill-opacity = "4.83999960840087560000e-01" />
<circle cx=" 651" cy="731" r="87" fill="rgb(47, 13, 181)" fill-opacity = "4.22225523937426410000e-01" />
<circle cx=" 817" cy="191" r="136" fill="rgb(117, 206, 40)" fill-opacity = "9.30881997577671210000e-01" />
<circle cx=" 453" cy="624" r="306" fill="rgb(181, 27, 137)" fill-opacity = "2.32147354664796750000e-01" />
<circle cx=" 779" cy="758" r="362" fill="rgb(238, 131, 177)" fill-opacity = "1.46907909748676070000e-01" />
<circle cx=" 914" cy="177" r="104" fill="rgb(188, 211, 23)" fill-opacity = "2.47009446584295580000e-01" />
<circle cx=" 169" cy="513" r="252" fill="rgb(225, 227, 95)" fill-opacity = "4.50718415194880430000e-01" />
<circle cx=" 620" cy="965" r="86" fill="rgb(117, 72, 255)" fill-opacity = "5.80745395293496890000e-01" />
<circle cx=" 326" cy="898" r="388" fill="rgb(118, 231, 134)" fill-opacity = "5.72538297418985650000e-01" />
<circle cx=" 354" cy="631" r="41" fill="rgb(64, 243, 250)" fill-opacity = "4.99117787252147500000e-01" />
<circle cx=" 18" cy="568" r="62" fill="rgb(15, 83, 178)" fill-opacity = "3.79804489808358790000e-01" />
<circle cx=" 437" cy="995" r="319" fill="rgb(44, 2, 224)" fill-opacity = "1.20976735686147750000e-01" />
<circle cx=" 239" cy="565" r="57" fill="rgb(78, 115, 158)" fill-opacity = "9.61754829783565410000e-02" />
<circle cx=" 7" cy="527" r="141" fill="rgb(196, 175, 203)" fill-opacity = "1.47240542668613640000e-01" />
<circle cx=" 903" cy="718" r="173" fill="rgb(33, 30, 77)" fill-opacity = "5.72739980807298380000e-01" />
<circle cx=" 188" cy="776" r="153" fill="rgb(178, 97, 63)" fill-opacity = "7.80574849208918620000e-01" />
<circle cx=" 11" cy="104" r="66" fill="rgb(39, 208, 62)" fill-opacity = "1.23964802880843550000e-01" />
<circle cx=" 656" cy="782" r="358" fill="rgb(203, 223, 158)" fill-opacity = "2.97065999530446770000e-01" />
<circle cx=" 326" cy="947" r="17" fill="rgb(214, 221, 22)" fill-opacity = "8.62789148779028240000e-01" />
<circle cx=" 797" cy="225" r="10" fill="rgb(109, 18, 233)" fill-opacity = "1.21509376841538290000e-01" />
<circle cx=" 108" cy="488" r="199" fill="rgb(112, 236, 135)" fill-opacity = "8.16558079527335500000e-01" />
<circle cx=" 372" cy="873" r="371" fill="rgb(126, 85, 128)" fill-opacity = "5.12387299066269450000e-01" />
<circle cx=" 937" cy="637" r="177" fill="rgb(29, 154, 29)" fill-opacity = "3.39238509743387430000e-01" />
<circle cx=" 524" cy="461" r="225" fill="rgb(185, 179, 81)" fill-opacity = "6.96185032088693420000e-01" />
<circle cx=" 48" cy="137" r="308" fill="rgb(216, 185, 225)" fill-opacity = "7.03518886636092410000e-01" />
<circle cx=" 915" cy="445" r="397" fill="rgb(210, 192, 74)" fill-opacity = "4.17627346783329580000e-01" />
<circle cx=" 940" cy="236" r="66" fill="rgb(150, 172, 46)" fill-opacity = "4.41902210499463430000e-01" />
<circle cx=" 496" cy="350" r="274" fill="rgb(82, 3, 186)" fill-opacity = "4.97060940820309440000e-01" />
<circle cx=" 897" cy="804" r="355" fill="rgb(34, 196, 44)" fill-opacity = "8.85423513362211260000e-01" />
<circle cx=" 6" cy="686" r="324" fill="rgb(32, 3, 169)" fill-opacity = "8.93492245117778690000e-01" />
<circle cx=" 908" cy="603" r="98" fill="rgb(20, 145, 11)" fill-opacity = "4.55706489123341110000e-01" />
<circle cx=" 78" cy="774" r="321" fill="rgb(150, 200, 81)" fill-opacity = "8.43448556980386230000e-02" />
<circle cx=" 783" cy="109" r="98" fill="rgb(214, 32, 88)" fill-opacity = "5.99917648017884160000e-01" />
<circle cx=" 897" cy="57" r="135" fill="rgb(227, 79, 163)" fill-opacity = "1.51459345914612080000e-01" />
<circle cx=" 272" cy="330" r="274" fill="rgb(82, 197, 172)" fill-opacity = "1.64714293597956420000e-01" />
<circle cx=" 91" cy="42" r="395" fill="rgb(33, 40, 100)" fill-opacity = "6.27033694971719680000e-01" />
<circle cx=" 345" cy="705" r="397" fill="rgb(56, 208, 47)" fill-opacity = "6.25595458298387590000e-01" />
<circle cx=" 786" cy="141" r="372" fill="rgb(10, 46, 102)" fill-opacity = "5.00827521513532940000e-01" />
<circle cx=" 518" cy="229" r="51" fill="rgb(245, 84, 47)" fill-opacity = "9.37454320113912280000e-01" />
<circle cx=" 900" cy="165" r="251" fill="rgb(242, 91, 208)" fill-opacity = "6.44407577325300630000e-01" />
<circle cx=" 329" cy="514" r="151" fill="rgb(126, 191, 24)" fill-opacity = "3.00700376600941510000e-01" />
<circle cx=" 802" cy="384" r="158" fill="rgb(68, 206, 124)" fill-opacity = "7.79864537440824180000e-02" />
<circle cx=" 170" cy="717" r="205" fill="rgb(120, 178, 50)" fill-opacity = "4.34870074311369150000e-01" />
<circle cx=" 784" cy="627" r="356" fill="rgb(145, 131, 58)" fill-opacity = "6.19692730405794420000e-01" />
<circle cx=" 781" cy="401" r="301" fill="rgb(49, 192, 113)" fill-opacity = "5.70128812621946590000e-01" />
<circle cx=" 38" cy="749" r="272" fill="rgb(75, 180, 92)" fill-opacity = "3.66244759119767060000e-02" />
<circle cx=" 529" cy="115" r="219" fill="rgb(130, 195, 105)" fill-opacity = "3.93771721737451230000e-01" />
<circle cx=" 729" cy="792" r="76" fill="rgb(239, 87, 131)" fill-opacity = "9.96752431594553290000e-01" />
<circle cx=" 947" cy="366" r="251" fill="rgb(125, 254, 52)" fill-opacity = "6.21036880632703130000e-01" />
<circle cx=" 679" cy="241" r="374" fill="rgb(87, 242, 187)" fill-opacity = "2.67066554519347580000e-01" />
<circle cx=" 916" cy="385" r="193" fill="rgb(31, 19, 179)" fill-opacity = "9.88372115469154710000e-01" />
<circle cx=" 893" cy="832" r="30" fill="rgb(196, 214, 255)" fill-opacity = "4.37470032681377410000e-01" />
<circle cx=" 964" cy="157" r="258" fill="rgb(21, 195, 171)" fill-opacity = "2.37831478765025970000e-01" />
<circle cx=" 236" cy="281" r="331" fill="rgb(220, 80, 194)" fill-opacity = "7.67017410736257950000e-01" />
<circle cx=" 697" cy="323" r="83" fill="rgb(105, 75, 14)" fill-opacity = "7.91969764527199250000e-01" />
<circle cx=" 941" cy="713" r="387" fill="rgb(46, 120, 25)" fill-opacity = "2.20937181475072690000e-01" />
<circle cx=" 599" cy="289" r="288" fill="rgb(170, 21, 226)" fill-opacity = "5.42938120844852270000e-01" />
<circle cx=" 507" cy="156" r="66" fill="rgb(170, 100, 200)" fill-opacity = "5.84520105270581510000e-01" />
<circle cx=" 419" cy="747" r="268" fill="rgb(248, 55, 47)" fill-opacity = "2.93908027982189070000e-01" />
<circle cx=" 843" cy="191" r="266" fill="rgb(37, 211, 83)" fill-opacity = "9.04606350210786840000e-01" />
<circle cx=" 633" cy="803" r="139" fill="rgb(78, 184, 3)" fill-opacity = "3.17435264541541920000e-01" />
<circle cx=" 87" cy="117" r="271" fill="rgb(89, 149, 37)" fill-opacity = "7.75965674196542830000e-01" />
<circle cx=" 374" cy="373" r="134" fill="rgb(9, 84, 102)" fill-opacity = "2.34275251576439250000e-01" />
<circle cx=" 520" cy="12" r="398" fill="rgb(142, 245, 233)" fill-opacity = "5.00222367120509270000e-01" />
<circle cx=" 237" cy="905" r="253" fill="rgb(199, 30, 207)" fill-opacity = "2.19632032846687860000e-01" />
<circle cx=" 89" cy="690" r="123" fill="rgb(80, 184, 64)" fill-opacity = "1.44448997199507100000e-01" />
<circle cx=" 462" cy="499" r="35" fill="rgb(130, 47, 55)" fill-opacity = "3.78002762802617460000e-01" />
<circle cx=" 857" cy="49" r="234" fill="rgb(93, 9, 27)" fill-opacity = "8.37837130549567880000e-01" />
<circle cx=" 209" cy="553" r="161" fill="rgb(250, 46, 11)" fill-opacity = "4.55479633904709580000e-02" />
<circle cx=" 496" cy="127" r="377" fill="rgb(171, 46, 3)" fill-opacity = "1.81992811292843060000e-01" />
<circle cx=" 438" cy="522" r="350" fill="rgb(101, 55, 112)" fill-opacity = "9.66589722794600760000e-01" />
<circle cx=" 765" cy="774" r="397" fill="rgb(142, 120, 141)" fill-opacity = "2.35875452918666630000e-01" />
<circle cx=" 139" cy="922" r="123" fill="rgb(91, 65, 35)" fill-opacity = "5.32738218401520580000e-01" />
<circle cx=" 728" cy="221" r="131" fill="rgb(146, 123, 7)" fill-opacity = "4.08169609273275840000e-01" />
<circle cx=" 165" cy="305" r="294" fill="rgb(198, 126, 198)" fill-opacity = "4.58728123839650340000e-01" />
<circle cx=" 198" cy="747" r="199" fill="rgb(162, 169, 64)" fill-opacity = "3.37811042745221890000e-01" />
<circle cx=" 293" cy="827" r="308" fill="rgb(93, 46, 239)" fill-opacity = "4.42266424093358810000e-01" />
<circle cx=" 256" cy="328" r="140" fill="rgb(206, 199, 162)" fill-opacity = "8.30543103932131380000e-01" />
<circle cx=" 917" cy="144" r="266" fill="rgb(199, 66, 256)" fill-opacity = "4.39321912922778330000e-01" />
<circle cx=" 52" cy="558" r="158" fill="rgb(252, 174, 82)" fill-opacity = "4.36199349885360020000e-02" />
<circle cx=" 201" cy="714" r="365" fill="rgb(2, 48, 73)" fill-opacity = "5.38750620342358650000e-01" />
<circle cx=" 210" cy="434" r="231" fill="rgb(105, 256, 144)" fill-opacity = "2.01872069319267490000e-01" />
<circle cx=" 73" cy="960" r="158" fill="rgb(71, 127, 120)" fill-opacity = "7.83375668943929070000e-01" />
<circle cx=" 182" cy="981" r="240" fill="rgb(38, 182, 83)" fill-opacity = "6.92426666509725400000e-01" />
<circle cx=" 86" cy="585" r="197" fill="rgb(50, 7, 152)" fill-opacity = "2.41277673012518350000e-01" />
<circle cx=" 399" cy="771" r="83" fill="rgb(183, 62, 154)" fill-opacity = "5.35440761176565030000e-01" />
<circle cx=" 60" cy="203" r="217" fill="rgb(147, 144, 156)" fill-opacity = "4.39726071769180660000e-01" />
<circle cx=" 790" cy="389" r="2" fill="rgb(177, 202, 119)" fill-opacity = "7.45243067576676350000e-01" />
<circle cx=" 985" cy="885" r="284" fill="rgb(110, 186, 65)" fill-opacity = "3.17388596470570940000e-01" />
<circle cx=" 647" cy="881" r="398" fill="rgb(163, 24, 58)" fill-opacity = "5.31908796816382700000e-01" />
<circle cx=" 482" cy="738" r="203" fill="rgb(38, 133, 86)" fill-opacity = "5.71648268052538100000e-03" />
<circle cx=" 694" cy="891" r="254" fill="rgb(83, 14, 8)" fill-opacity = "9.20574519098842360000e-01" />
<circle cx=" 353" cy="704" r="194" fill="rgb(94, 17, 168)" fill-opacity = "3.68793971622235930000e-01" />
<circle cx=" 45" cy="717" r="333" fill="rgb(102, 59, 37)" fill-opacity = "6.63849158849897150000e-01" />
<circle cx=" 645" cy="500" r="360" fill="rgb(100, 209, 41)" fill-opacity = "2.16242875387947730000e-01" />
<circle cx=" 737" cy="582" r="303" fill="rgb(160, 50, 68)" fill-opacity = "4.47652790311362740000e-01" />
<circle cx=" 257" cy="934" r="72" fill="rgb(62, 154, 158)" fill-opacity = "5.02608201260240420000e-01" />
<circle cx=" 601" cy="478" r="210" fill="rgb(248, 112, 13)" fill-opacity = "3.43808133476146250000e-01" />
<circle cx=" 181" cy="403" r="16" fill="rgb(52, 81, 186)" fill-opacity = "8.07697560184004850000e-01" />
<circle cx=" 721" cy="1" r="367" fill="rgb(177, 129, 41)" fill-opacity = "1.21771226210148690000e-01" />
<circle cx=" 881" cy="217" r="180" fill="rgb(48, 254, 16)" fill-opacity = "4.37829194631839110000e-01" />
<circle cx=" 941" cy="115" r="114" fill="rgb(56, 1, 200)" fill-opacity = "5.39886882738476180000e-01" />
<circle cx=" 222" cy="739" r="338" fill="rgb(6, 50, 42)" fill-opacity = "5.44894894553065390000e-01" />
<circle cx=" 721" cy="183" r="201" fill="rgb(217, 81, 245)" fill-opacity = "6.82882898805027060000e-01" />
<circle cx=" 264" cy="796" r="259" fill="rgb(116, 43, 15)" fill-opacity = "6.28986928601313890000e-01" />
<circle cx=" 450" cy="203" r="322" fill="rgb(134, 32, 8)" fill-opacity = "8.76745557415668400000e-01" />
</svg>
