<svg height="1024" width="1024">
<circle cx=" 450" cy="685" r="24" fill="rgb(96, 96, 61)" fill-opacity = "8.60401566439652490000e-02" />
<circle cx=" 264" cy="883" r="356" fill="rgb(30, 12, 15)" fill-opacity = "2.35866751303936750000e-01" />
<circle cx=" 575" cy="750" r="378" fill="rgb(123, 26, 1)" fill-opacity = "6.51490085136029460000e-01" />
<circle cx=" 62" cy="959" r="391" fill="rgb(15, 36, 59)" fill-opacity = "8.82021132537231580000e-01" />
<circle cx=" 86" cy="913" r="55" fill="rgb(56, 150, 200)" fill-opacity = "5.80510636345021870000e-01" />
<circle cx=" 799" cy="429" r="375" fill="rgb(155, 41, 16)" fill-opacity = "5.34796123988997780000e-01" />
<circle cx=" 585" cy="916" r="139" fill="rgb(82, 20, 45)" fill-opacity = "4.31851219245492410000e-01" />
<circle cx=" 890" cy="403" r="16" fill="rgb(86, 126, 252)" fill-opacity = "2.57541157341857560000e-01" />
<circle cx=" 677" cy="478" r="16" fill="rgb(248, 191, 13)" fill-opacity = "1.56409345874445100000e-01" />
<circle cx=" 100" cy="61" r="72" fill="rgb(99, 235, 164)" fill-opacity = "5.09567620535532400000e-01" />
<circle cx=" 898" cy="587" r="260" fill="rgb(215, 50, 195)" fill-opacity = "6.53430198817394730000e-01" />
<circle cx=" 196" cy="500" r="360" fill="rgb(187, 2, 162)" fill-opacity = "7.67071669731415610000e-01" />
<circle cx=" 45" cy="114" r="227" fill="rgb(128, 83, 31)" fill-opacity = "8.68558572640158900000e-01" />
<circle cx=" 353" cy="400" r="83" fill="rgb(231, 155, 89)" fill-opacity = "2.57499193107351590000e-01" />
<circle cx=" 958" cy="116" r="249" fill="rgb(167, 111, 92)" fill-opacity = "2.51060033775673650000e-01" />
<circle cx=" 868" cy="738" r="254" fill="rgb(225, 3, 95)" fill-opacity = "6.88404802045418540000e-01" />
<circle cx=" 297" cy="377" r="96" fill="rgb(150, 104, 6)" fill-opacity = "8.54251959451427290000e-01" />
<circle cx=" 630" cy="90" r="112" fill="rgb(34, 153, 92)" fill-opacity = "4.65705313616567860000e-01" />
<circle cx=" 794" cy="349" r="73" fill="rgb(177, 127, 204)" fill-opacity = "4.87567836487062590000e-01" />
<circle cx=" 88" cy="203" r="213" fill="rgb(43, 156, 53)" fill-opacity = "5.47472208421507120000e-01" />
<circle cx=" 547" cy="10" r="239" fill="rgb(142, 50, 161)" fill-opacity = "1.76782531984589040000e-01" />
<circle cx=" 86" cy="27" r="300" fill="rgb(72, 7, 85)" fill-opacity = "5.35691946857546060000e-02" />
<circle cx=" 583" cy="325" r="170" fill="rgb(90, 37, 8)" fill-opacity = "2.16247836587759810000e-01" />
<circle cx=" 572" cy="215" r="69" fill="rgb(120, 8, 120)" fill-opacity = "8.77540373412674770000e-01" />
<circle cx=" 43" cy="434" r="101" fill="rgb(230, 252, 144)" fill-opacity = "2.60309900268031580000e-01" />
<circle cx=" 946" cy="822" r="159" fill="rgb(38, 48, 251)" fill-opacity = "6.89850494538506890000e-01" />
<circle cx=" 52" cy="544" r="186" fill="rgb(149, 217, 43)" fill-opacity = "1.01369115684125880000e-01" />
<circle cx=" 377" cy="703" r="381" fill="rgb(137, 95, 211)" fill-opacity = "4.84259897353106930000e-01" />
<circle cx=" 256" cy="875" r="366" fill="rgb(26, 109, 153)" fill-opacity = "1.22934109825699970000e-01" />
<circle cx=" 589" cy="955" r="268" fill="rgb(250, 138, 174)" fill-opacity = "6.68011288114982450000e-01" />
<circle cx=" 775" cy="886" r="199" fill="rgb(38, 177, 235)" fill-opacity = "2.08428593428764410000e-01" />
<circle cx=" 120" cy="142" r="294" fill="rgb(85, 69, 212)" fill-opacity = "1.23123090692268460000e-01" />
<circle cx=" 582" cy="221" r="282" fill="rgb(60, 123, 7)" fill-opacity = "3.98930004264019140000e-01" />
<circle cx=" 443" cy="908" r="57" fill="rgb(111, 212, 219)" fill-opacity = "3.92155631506991840000e-01" />
<circle cx=" 846" cy="774" r="267" fill="rgb(177, 79, 141)" fill-opacity = "4.14009149403311130000e-01" />
<circle cx=" 338" cy="579" r="140" fill="rgb(70, 223, 138)" fill-opacity = "7.75863995807390520000e-01" />
<circle cx=" 333" cy="376" r="281" fill="rgb(36, 248, 62)" fill-opacity = "1.61395962537149720000e-01" />
<circle cx=" 82" cy="258" r="306" fill="rgb(209, 46, 11)" fill-opacity = "5.46300350577020310000e-02" />
<circle cx=" 492" cy="786" r="18" fill="rgb(206, 221, 123)" fill-opacity = "9.94079002996640760000e-01" />
<circle cx=" 448" cy="499" r="311" fill="rgb(47, 151, 221)" fill-opacity = "2.64252140143406140000e-01" />
<circle cx=" 490" cy="216" r="255" fill="rgb(39, 129, 42)" fill-opacity = "9.49696260708623230000e-01" />
<circle cx=" 923" cy="834" r="168" fill="rgb(199, 2, 207)" fill-opacity = "7.74836334034246570000e-01" />
<circle cx=" 520" cy="963" r="319" fill="rgb(237, 227, 41)" fill-opacity = "5.80632978240079420000e-01" />
<circle cx=" 84" cy="981" r="153" fill="rgb(87, 162, 94)" fill-opacity = "2.34275251576439250000e-01" />
<circle cx=" 320" cy="657" r="190" fill="rgb(240, 182, 29)" fill-opacity = "7.54924807255520140000e-01" />
<circle cx=" 651" cy="864" r="87" fill="rgb(78, 219, 3)" fill-opacity = "8.62420316006549110000e-01" />
<circle cx=" 804" cy="191" r="126" fill="rgb(117, 206, 153)" fill-opacity = "1.77888834711570580000e-01" />
<circle cx=" 594" cy="624" r="268" fill="rgb(21, 127, 137)" fill-opacity = "2.93908027982189070000e-01" />
<circle cx=" 723" cy="758" r="362" fill="rgb(137, 27, 25)" fill-opacity = "6.96126549043925900000e-01" />
<circle cx=" 1006" cy="177" r="2" fill="rgb(188, 21, 222)" fill-opacity = "5.74621606139298140000e-01" />
<circle cx=" 169" cy="513" r="185" fill="rgb(225, 64, 11)" fill-opacity = "6.20380468886822970000e-01" />
<circle cx=" 643" cy="37" r="99" fill="rgb(169, 47, 243)" fill-opacity = "5.80745395293496890000e-01" />
<circle cx=" 268" cy="898" r="331" fill="rgb(159, 67, 246)" fill-opacity = "1.38484525688223000000e-01" />
<circle cx=" 840" cy="891" r="60" fill="rgb(21, 34, 122)" fill-opacity = "6.91006963615631080000e-01" />
<circle cx=" 950" cy="529" r="28" fill="rgb(15, 99, 136)" fill-opacity = "9.59378064915598070000e-01" />
<circle cx=" 916" cy="544" r="28" fill="rgb(180, 131, 224)" fill-opacity = "1.20976735686147750000e-01" />
<circle cx=" 679" cy="76" r="395" fill="rgb(78, 115, 151)" fill-opacity = "2.17425968633545350000e-01" />
<circle cx=" 7" cy="52" r="141" fill="rgb(109, 225, 109)" fill-opacity = "9.10389587395826540000e-01" />
<circle cx=" 903" cy="50" r="50" fill="rgb(16, 131, 26)" fill-opacity = "1.01312069841725580000e-01" />
<circle cx=" 188" cy="115" r="26" fill="rgb(178, 97, 16)" fill-opacity = "7.35922891040850400000e-01" />
<circle cx=" 324" cy="811" r="302" fill="rgb(23, 115, 62)" fill-opacity = "3.66244759119767060000e-02" />
<circle cx=" 656" cy="782" r="215" fill="rgb(133, 125, 113)" fill-opacity = "9.21379692213930350000e-01" />
<circle cx=" 757" cy="246" r="356" fill="rgb(156, 109, 22)" fill-opacity = "2.90998651378595600000e-01" />
<circle cx=" 170" cy="728" r="178" fill="rgb(22, 245, 199)" fill-opacity = "9.49857918380070170000e-01" />
<circle cx=" 189" cy="488" r="198" fill="rgb(37, 46, 118)" fill-opacity = "5.57479926981103710000e-02" />
<circle cx=" 201" cy="169" r="371" fill="rgb(244, 151, 128)" fill-opacity = "5.12387299066269450000e-01" />
<circle cx=" 223" cy="165" r="207" fill="rgb(63, 231, 208)" fill-opacity = "3.39238509743387430000e-01" />
<circle cx=" 524" cy="403" r="345" fill="rgb(185, 176, 139)" fill-opacity = "6.96185032088693420000e-01" />
<circle cx=" 817" cy="645" r="308" fill="rgb(249, 120, 184)" fill-opacity = "3.56106480626441790000e-01" />
<circle cx=" 915" cy="232" r="397" fill="rgb(134, 232, 74)" fill-opacity = "5.42967097800517660000e-01" />
<circle cx=" 748" cy="236" r="66" fill="rgb(33, 27, 100)" fill-opacity = "4.41902210499463430000e-01" />
<circle cx=" 272" cy="350" r="274" fill="rgb(82, 39, 186)" fill-opacity = "5.70993645234929350000e-01" />
<circle cx=" 331" cy="178" r="253" fill="rgb(227, 196, 57)" fill-opacity = "4.83239435043231860000e-01" />
<circle cx=" 950" cy="631" r="216" fill="rgb(147, 168, 185)" fill-opacity = "5.99917648017884160000e-01" />
<circle cx=" 541" cy="44" r="146" fill="rgb(24, 195, 132)" fill-opacity = "4.55706489123341110000e-01" />
<circle cx=" 865" cy="771" r="321" fill="rgb(168, 170, 11)" fill-opacity = "2.65664234949967380000e-01" />
<circle cx=" 859" cy="378" r="324" fill="rgb(214, 32, 111)" fill-opacity = "5.99917648017884160000e-01" />
<circle cx=" 140" cy="57" r="135" fill="rgb(227, 79, 130)" fill-opacity = "8.85423513362211260000e-01" />
<circle cx=" 128" cy="800" r="248" fill="rgb(82, 64, 186)" fill-opacity = "4.97060940820309440000e-01" />
<circle cx=" 91" cy="270" r="395" fill="rgb(108, 189, 50)" fill-opacity = "2.45344779548539500000e-01" />
<circle cx=" 345" cy="50" r="169" fill="rgb(77, 66, 77)" fill-opacity = "9.12099175702547170000e-01" />
<circle cx=" 764" cy="682" r="192" fill="rgb(163, 139, 102)" fill-opacity = "7.03518886636092410000e-01" />
<circle cx=" 524" cy="229" r="283" fill="rgb(8, 207, 57)" fill-opacity = "6.96185032088693420000e-01" />
<circle cx=" 771" cy="383" r="142" fill="rgb(33, 154, 65)" fill-opacity = "4.89364903515663310000e-02" />
<circle cx=" 778" cy="714" r="371" fill="rgb(47, 191, 118)" fill-opacity = "8.22781234052722970000e-01" />
<circle cx=" 30" cy="384" r="298" fill="rgb(96, 115, 194)" fill-opacity = "7.79864537440824180000e-02" />
<circle cx=" 911" cy="225" r="205" fill="rgb(40, 119, 245)" fill-opacity = "1.21509376841538290000e-01" />
<circle cx=" 704" cy="476" r="356" fill="rgb(145, 128, 232)" fill-opacity = "1.17652434556500650000e-01" />
<circle cx=" 946" cy="401" r="301" fill="rgb(203, 192, 247)" fill-opacity = "1.72395226680953200000e-01" />
<circle cx=" 11" cy="939" r="363" fill="rgb(52, 180, 62)" fill-opacity = "5.66651560170102100000e-01" />
<circle cx=" 601" cy="776" r="219" fill="rgb(130, 195, 63)" fill-opacity = "2.90402157286560940000e-01" />
<circle cx=" 403" cy="529" r="258" fill="rgb(239, 127, 131)" fill-opacity = "9.96752431594553290000e-01" />
<circle cx=" 7" cy="183" r="259" fill="rgb(125, 59, 52)" fill-opacity = "2.24044901485885410000e-01" />
<circle cx=" 679" cy="565" r="57" fill="rgb(78, 113, 239)" fill-opacity = "7.85519505519537420000e-01" />
<circle cx=" 577" cy="400" r="319" fill="rgb(169, 19, 34)" fill-opacity = "7.85940391513560770000e-01" />
<circle cx=" 273" cy="568" r="38" fill="rgb(114, 83, 255)" fill-opacity = "4.37470032681377410000e-01" />
<circle cx=" 964" cy="952" r="18" fill="rgb(21, 97, 4)" fill-opacity = "4.60801676264776640000e-01" />
<circle cx=" 236" cy="281" r="61" fill="rgb(90, 242, 14)" fill-opacity = "7.88488307444963230000e-01" />
<circle cx=" 550" cy="476" r="83" fill="rgb(163, 37, 135)" fill-opacity = "1.94663731521178550000e-01" />
<circle cx=" 169" cy="812" r="337" fill="rgb(46, 45, 58)" fill-opacity = "4.50718415194880430000e-01" />
<circle cx=" 782" cy="222" r="290" fill="rgb(58, 210, 23)" fill-opacity = "2.47009446584295580000e-01" />
<circle cx=" 957" cy="156" r="277" fill="rgb(11, 140, 91)" fill-opacity = "8.56594811538768040000e-01" />
<circle cx=" 211" cy="747" r="268" fill="rgb(51, 171, 138)" fill-opacity = "5.50930739678245460000e-01" />
<circle cx=" 843" cy="191" r="97" fill="rgb(199, 249, 96)" fill-opacity = "3.43534824858044980000e-02" />
<circle cx=" 651" cy="889" r="104" fill="rgb(50, 50, 3)" fill-opacity = "3.17435264541541920000e-01" />
<circle cx=" 903" cy="912" r="361" fill="rgb(217, 205, 233)" fill-opacity = "7.75965674196542830000e-01" />
<circle cx=" 188" cy="24" r="337" fill="rgb(150, 1, 102)" fill-opacity = "4.86529336866506900000e-01" />
<circle cx=" 200" cy="17" r="244" fill="rgb(237, 245, 47)" fill-opacity = "5.00222367120509270000e-01" />
<circle cx=" 197" cy="645" r="272" fill="rgb(110, 219, 215)" fill-opacity = "3.28978660318800520000e-01" />
<circle cx=" 446" cy="24" r="84" fill="rgb(9, 254, 20)" fill-opacity = "1.44448997199507100000e-01" />
<circle cx=" 288" cy="499" r="311" fill="rgb(203, 89, 9)" fill-opacity = "3.70585497402265760000e-01" />
<circle cx=" 549" cy="1003" r="78" fill="rgb(93, 73, 222)" fill-opacity = "8.37837130549567880000e-01" />
<circle cx=" 839" cy="553" r="138" fill="rgb(129, 144, 117)" fill-opacity = "7.44315060917368540000e-01" />
<circle cx=" 992" cy="860" r="386" fill="rgb(51, 80, 167)" fill-opacity = "3.09494623273153470000e-01" />
<circle cx=" 301" cy="522" r="82" fill="rgb(251, 37, 128)" fill-opacity = "9.66589722794600760000e-01" />
<circle cx=" 993" cy="673" r="397" fill="rgb(83, 54, 155)" fill-opacity = "2.35875452918666630000e-01" />
<circle cx=" 620" cy="317" r="85" fill="rgb(79, 241, 162)" fill-opacity = "7.00420322952365340000e-01" />
<circle cx=" 214" cy="221" r="202" fill="rgb(24, 133, 7)" fill-opacity = "4.08169609273275840000e-01" />
<circle cx=" 955" cy="438" r="57" fill="rgb(158, 70, 198)" fill-opacity = "2.76957381132064920000e-01" />
<circle cx=" 34" cy="245" r="338" fill="rgb(124, 79, 64)" fill-opacity = "2.49745416520744000000e-01" />
<circle cx=" 618" cy="938" r="308" fill="rgb(114, 86, 231)" fill-opacity = "4.42266424093358810000e-01" />
<circle cx=" 972" cy="345" r="149" fill="rgb(206, 155, 199)" fill-opacity = "6.90160829194240930000e-01" />
<circle cx=" 437" cy="246" r="266" fill="rgb(102, 205, 256)" fill-opacity = "1.57550977363256850000e-01" />
<circle cx=" 544" cy="828" r="158" fill="rgb(90, 174, 188)" fill-opacity = "4.36199349885360020000e-02" />
<circle cx=" 174" cy="215" r="58" fill="rgb(75, 46, 73)" fill-opacity = "9.91901685491824000000e-01" />
<circle cx=" 585" cy="434" r="231" fill="rgb(105, 20, 41)" fill-opacity = "7.70835296029353630000e-01" />
<circle cx=" 1003" cy="669" r="281" fill="rgb(169, 212, 105)" fill-opacity = "8.77540373412674770000e-01" />
<circle cx=" 760" cy="7" r="170" fill="rgb(6, 63, 183)" fill-opacity = "8.89233260858290910000e-02" />
<circle cx=" 869" cy="585" r="197" fill="rgb(121, 64, 112)" fill-opacity = "6.27407015260972420000e-01" />
<circle cx=" 399" cy="724" r="233" fill="rgb(183, 62, 5)" fill-opacity = "9.11125995820977640000e-01" />
<circle cx=" 645" cy="203" r="217" fill="rgb(118, 144, 156)" fill-opacity = "3.62214882469282460000e-01" />
<circle cx=" 769" cy="492" r="288" fill="rgb(242, 130, 67)" fill-opacity = "3.96493440170112340000e-01" />
<circle cx=" 425" cy="699" r="284" fill="rgb(170, 114, 67)" fill-opacity = "8.54591251449627890000e-01" />
<circle cx=" 309" cy="29" r="299" fill="rgb(222, 246, 116)" fill-opacity = "3.57029081761943700000e-01" />
<circle cx=" 798" cy="646" r="42" fill="rgb(248, 251, 60)" fill-opacity = "7.17759923019105630000e-01" />
<circle cx=" 694" cy="116" r="338" fill="rgb(83, 69, 160)" fill-opacity = "2.96721211941672220000e-01" />
<circle cx=" 28" cy="704" r="83" fill="rgb(204, 51, 163)" fill-opacity = "3.68793971622235930000e-01" />
<circle cx=" 606" cy="668" r="227" fill="rgb(31, 36, 176)" fill-opacity = "2.15602202499916910000e-01" />
<circle cx=" 632" cy="460" r="104" fill="rgb(173, 186, 41)" fill-opacity = "1.70721879099242630000e-02" />
<circle cx=" 682" cy="582" r="228" fill="rgb(34, 50, 195)" fill-opacity = "4.47652790311362740000e-01" />
<circle cx=" 443" cy="6" r="372" fill="rgb(51, 107, 158)" fill-opacity = "4.64929869591681920000e-01" />
<circle cx=" 347" cy="707" r="373" fill="rgb(98, 160, 13)" fill-opacity = "6.94399998933674660000e-02" />
<circle cx=" 589" cy="225" r="326" fill="rgb(191, 81, 19)" fill-opacity = "8.91876357409820300000e-01" />
<circle cx=" 597" cy="951" r="4" fill="rgb(162, 64, 165)" fill-opacity = "2.92899461361069370000e-01" />
<circle cx=" 799" cy="958" r="379" fill="rgb(48, 75, 23)" fill-opacity = "9.65080590828335530000e-01" />
<circle cx=" 947" cy="610" r="114" fill="rgb(9, 216, 200)" fill-opacity = "1.26340759576827550000e-01" />
<circle cx=" 83" cy="910" r="338" fill="rgb(65, 31, 28)" fill-opacity = "5.44894894553065390000e-01" />
<circle cx=" 721" cy="735" r="51" fill="rgb(207, 3, 108)" fill-opacity = "1.77470440700704390000e-02" />
<circle cx=" 60" cy="499" r="125" fill="rgb(254, 53, 49)" fill-opacity = "2.35866751303936750000e-01" />
<circle cx=" 450" cy="203" r="322" fill="rgb(134, 92, 8)" fill-opacity = "8.37804028254709680000e-01" />
</svg>
