<svg height="1024" width="1024">
<circle cx=" 688" cy="873" r="148" fill="rgb(164, 92, 64)" fill-opacity = "2.17951952844066540000e-01" />
<circle cx=" 60" cy="499" r="143" fill="rgb(155, 188, 114)" fill-opacity = "8.34188172547710270000e-01" />
<circle cx=" 724" cy="133" r="165" fill="rgb(215, 216, 187)" fill-opacity = "8.60355278677499500000e-01" />
<circle cx=" 951" cy="148" r="119" fill="rgb(138, 7, 19)" fill-opacity = "2.56508597053711540000e-01" />
<circle cx=" 46" cy="925" r="355" fill="rgb(9, 95, 97)" fill-opacity = "5.80510636345021870000e-01" />
<circle cx=" 799" cy="217" r="307" fill="rgb(218, 239, 73)" fill-opacity = "4.37829194631839110000e-01" />
<circle cx=" 113" cy="689" r="400" fill="rgb(215, 108, 1)" fill-opacity = "1.48020395748527100000e-02" />
<circle cx=" 378" cy="949" r="235" fill="rgb(161, 51, 91)" fill-opacity = "4.01191989356509900000e-01" />
<circle cx=" 847" cy="360" r="344" fill="rgb(35, 66, 144)" fill-opacity = "4.34968270709086280000e-02" />
<circle cx=" 235" cy="761" r="256" fill="rgb(170, 9, 77)" fill-opacity = "1.15812326478562430000e-01" />
<circle cx=" 547" cy="915" r="126" fill="rgb(134, 226, 58)" fill-opacity = "3.73276931474029180000e-01" />
<circle cx=" 387" cy="720" r="370" fill="rgb(74, 89, 89)" fill-opacity = "3.35314307018289130000e-01" />
<circle cx=" 456" cy="56" r="91" fill="rgb(67, 99, 169)" fill-opacity = "5.79675381184614920000e-01" />
<circle cx=" 519" cy="677" r="392" fill="rgb(158, 234, 121)" fill-opacity = "3.84405322427643360000e-01" />
<circle cx=" 958" cy="606" r="249" fill="rgb(237, 86, 2)" fill-opacity = "9.43877768360571690000e-01" />
<circle cx=" 550" cy="738" r="348" fill="rgb(220, 75, 130)" fill-opacity = "5.71648268052538100000e-03" />
<circle cx=" 828" cy="622" r="326" fill="rgb(163, 146, 12)" fill-opacity = "8.54251959451427290000e-01" />
<circle cx=" 464" cy="157" r="234" fill="rgb(159, 186, 17)" fill-opacity = "4.98880063991100630000e-01" />
<circle cx=" 595" cy="240" r="288" fill="rgb(6, 130, 106)" fill-opacity = "6.67155270715137580000e-01" />
<circle cx=" 787" cy="203" r="78" fill="rgb(43, 191, 156)" fill-opacity = "1.11591090375805500000e-01" />
<circle cx=" 133" cy="920" r="76" fill="rgb(16, 164, 10)" fill-opacity = "9.11125995820977640000e-01" />
<circle cx=" 858" cy="465" r="390" fill="rgb(121, 86, 241)" fill-opacity = "7.31794455968892030000e-01" />
<circle cx=" 320" cy="916" r="240" fill="rgb(38, 168, 201)" fill-opacity = "2.74076340179180590000e-01" />
<circle cx=" 612" cy="122" r="337" fill="rgb(121, 120, 91)" fill-opacity = "4.02815645407034410000e-01" />
<circle cx=" 299" cy="368" r="379" fill="rgb(231, 240, 69)" fill-opacity = "3.69065182218027750000e-01" />
<circle cx=" 174" cy="215" r="297" fill="rgb(16, 71, 90)" fill-opacity = "7.86061687687947150000e-01" />
<circle cx=" 19" cy="640" r="280" fill="rgb(128, 142, 82)" fill-opacity = "6.56806363665805910000e-01" />
<circle cx=" 753" cy="616" r="285" fill="rgb(228, 253, 110)" fill-opacity = "5.32466142378098750000e-01" />
<circle cx=" 413" cy="175" r="169" fill="rgb(238, 129, 19)" fill-opacity = "8.31718701521448110000e-01" />
<circle cx=" 1010" cy="722" r="316" fill="rgb(137, 244, 204)" fill-opacity = "6.68011288114982450000e-01" />
<circle cx=" 587" cy="466" r="231" fill="rgb(49, 173, 46)" fill-opacity = "9.46994585460162460000e-01" />
<circle cx=" 728" cy="513" r="294" fill="rgb(226, 147, 244)" fill-opacity = "8.05121337822354400000e-01" />
<circle cx=" 203" cy="731" r="202" fill="rgb(47, 43, 16)" fill-opacity = "3.98930004264019140000e-01" />
<circle cx=" 410" cy="44" r="337" fill="rgb(25, 27, 124)" fill-opacity = "2.95943301722866540000e-01" />
<circle cx=" 261" cy="513" r="130" fill="rgb(83, 156, 22)" fill-opacity = "4.78014009977207670000e-01" />
<circle cx=" 385" cy="53" r="200" fill="rgb(251, 37, 95)" fill-opacity = "3.62188516024221090000e-01" />
<circle cx=" 333" cy="503" r="386" fill="rgb(243, 98, 64)" fill-opacity = "1.61395962537149720000e-01" />
<circle cx=" 65" cy="553" r="362" fill="rgb(242, 136, 185)" fill-opacity = "1.11542584535236470000e-01" />
<circle cx=" 574" cy="553" r="180" fill="rgb(39, 135, 60)" fill-opacity = "9.54264742483728280000e-01" />
<circle cx=" 608" cy="30" r="177" fill="rgb(130, 149, 160)" fill-opacity = "6.67356410251307430000e-01" />
<circle cx=" 388" cy="369" r="7" fill="rgb(46, 39, 3)" fill-opacity = "8.79449320157516200000e-01" />
<circle cx=" 631" cy="856" r="144" fill="rgb(47, 148, 207)" fill-opacity = "5.85975237553436390000e-01" />
<circle cx=" 534" cy="646" r="352" fill="rgb(142, 117, 116)" fill-opacity = "6.10883816829863150000e-01" />
<circle cx=" 125" cy="373" r="76" fill="rgb(17, 1, 235)" fill-opacity = "5.89060640307290440000e-01" />
<circle cx=" 853" cy="201" r="28" fill="rgb(217, 64, 40)" fill-opacity = "7.66107652964103100000e-01" />
<circle cx=" 651" cy="612" r="49" fill="rgb(129, 60, 39)" fill-opacity = "8.62420316006549110000e-01" />
<circle cx=" 809" cy="53" r="81" fill="rgb(78, 124, 127)" fill-opacity = "5.24658774328386590000e-01" />
<circle cx=" 540" cy="767" r="323" fill="rgb(58, 200, 212)" fill-opacity = "2.32147354664796750000e-01" />
<circle cx=" 810" cy="426" r="43" fill="rgb(151, 202, 115)" fill-opacity = "1.46907909748676070000e-01" />
<circle cx=" 7" cy="431" r="301" fill="rgb(26, 240, 23)" fill-opacity = "6.51363338392985100000e-01" />
<circle cx=" 877" cy="108" r="203" fill="rgb(66, 14, 55)" fill-opacity = "6.07112890113008060000e-01" />
<circle cx=" 702" cy="860" r="83" fill="rgb(115, 29, 235)" fill-opacity = "1.24556976112431880000e-01" />
<circle cx=" 236" cy="991" r="340" fill="rgb(9, 224, 59)" fill-opacity = "1.94992104248920660000e-01" />
<circle cx=" 628" cy="721" r="375" fill="rgb(21, 87, 233)" fill-opacity = "5.41897391522416780000e-02" />
<circle cx=" 9" cy="347" r="37" fill="rgb(114, 126, 4)" fill-opacity = "5.85951511352972080000e-01" />
<circle cx=" 238" cy="105" r="225" fill="rgb(44, 49, 105)" fill-opacity = "5.81635783768568170000e-01" />
<circle cx=" 976" cy="95" r="57" fill="rgb(68, 113, 126)" fill-opacity = "7.26306112541138860000e-01" />
<circle cx=" 276" cy="274" r="114" fill="rgb(211, 143, 109)" fill-opacity = "8.30687326892572740000e-01" />
<circle cx=" 729" cy="814" r="179" fill="rgb(128, 56, 75)" fill-opacity = "7.71344484394254290000e-01" />
<circle cx=" 740" cy="679" r="61" fill="rgb(183, 91, 103)" fill-opacity = "3.18425009648994890000e-02" />
<circle cx=" 252" cy="418" r="383" fill="rgb(54, 69, 188)" fill-opacity = "6.40564397794427090000e-01" />
<circle cx=" 227" cy="775" r="162" fill="rgb(247, 223, 144)" fill-opacity = "5.15615823944720390000e-01" />
<circle cx=" 678" cy="687" r="296" fill="rgb(226, 131, 195)" fill-opacity = "7.27499149170080180000e-01" />
<circle cx=" 656" cy="301" r="396" fill="rgb(22, 39, 199)" fill-opacity = "8.43955915320326880000e-02" />
<circle cx=" 903" cy="510" r="127" fill="rgb(7, 8, 222)" fill-opacity = "4.60421923748319810000e-02" />
<circle cx=" 832" cy="175" r="138" fill="rgb(178, 65, 118)" fill-opacity = "9.83166412690992590000e-01" />
<circle cx=" 754" cy="964" r="177" fill="rgb(48, 154, 128)" fill-opacity = "5.92233779559139250000e-01" />
<circle cx=" 518" cy="160" r="387" fill="rgb(35, 49, 59)" fill-opacity = "9.37454320113912280000e-01" />
<circle cx=" 672" cy="276" r="227" fill="rgb(216, 171, 120)" fill-opacity = "2.72883879670025030000e-01" />
<circle cx=" 915" cy="232" r="77" fill="rgb(77, 51, 74)" fill-opacity = "3.93828163367432540000e-01" />
<circle cx=" 720" cy="433" r="94" fill="rgb(127, 25, 100)" fill-opacity = "4.41902210499463430000e-01" />
<circle cx=" 240" cy="4" r="274" fill="rgb(86, 68, 41)" fill-opacity = "1.89471711187186640000e-01" />
<circle cx=" 69" cy="331" r="101" fill="rgb(99, 21, 44)" fill-opacity = "4.74610972582535600000e-01" />
<circle cx=" 668" cy="631" r="118" fill="rgb(239, 44, 122)" fill-opacity = "2.95697509971096560000e-01" />
<circle cx=" 548" cy="980" r="305" fill="rgb(20, 209, 210)" fill-opacity = "9.96494295895847370000e-01" />
<circle cx=" 445" cy="313" r="229" fill="rgb(137, 145, 81)" fill-opacity = "2.61900179056053340000e-01" />
<circle cx=" 491" cy="137" r="203" fill="rgb(32, 214, 57)" fill-opacity = "6.69212019245590370000e-01" />
<circle cx=" 897" cy="443" r="234" fill="rgb(86, 153, 142)" fill-opacity = "6.86773298871101280000e-01" />
<circle cx=" 21" cy="330" r="165" fill="rgb(76, 119, 185)" fill-opacity = "8.45186957240422030000e-01" />
<circle cx=" 728" cy="585" r="104" fill="rgb(184, 223, 182)" fill-opacity = "8.26134519751170910000e-01" />
<circle cx=" 1022" cy="493" r="397" fill="rgb(56, 236, 158)" fill-opacity = "7.41135907828808000000e-01" />
<circle cx=" 885" cy="625" r="277" fill="rgb(150, 38, 102)" fill-opacity = "5.00827521513532940000e-01" />
<circle cx=" 994" cy="724" r="371" fill="rgb(193, 1, 102)" fill-opacity = "5.13775879055362590000e-02" />
<circle cx=" 771" cy="805" r="128" fill="rgb(35, 231, 208)" fill-opacity = "1.06639073293255620000e-01" />
<circle cx=" 778" cy="169" r="266" fill="rgb(126, 151, 85)" fill-opacity = "3.18885825105397200000e-02" />
<circle cx=" 963" cy="951" r="11" fill="rgb(115, 82, 198)" fill-opacity = "6.20467516927463820000e-01" />
<circle cx=" 372" cy="728" r="10" fill="rgb(206, 192, 179)" fill-opacity = "8.41253454420458620000e-02" />
<circle cx=" 802" cy="521" r="281" fill="rgb(137, 109, 219)" fill-opacity = "1.49179330155426730000e-02" />
<circle cx=" 967" cy="177" r="150" fill="rgb(205, 150, 247)" fill-opacity = "1.11681298611774780000e-01" />
<circle cx=" 71" cy="282" r="65" fill="rgb(154, 95, 1)" fill-opacity = "2.84997961874724930000e-01" />
<circle cx=" 660" cy="441" r="50" fill="rgb(26, 141, 63)" fill-opacity = "7.96003917737674320000e-01" />
<circle cx=" 489" cy="896" r="346" fill="rgb(134, 127, 210)" fill-opacity = "6.23329101622418500000e-01" />
<circle cx=" 729" cy="897" r="251" fill="rgb(125, 175, 9)" fill-opacity = "9.10144764026026730000e-01" />
<circle cx=" 146" cy="744" r="245" fill="rgb(203, 115, 166)" fill-opacity = "8.99686893617492660000e-01" />
<circle cx=" 916" cy="953" r="368" fill="rgb(169, 131, 96)" fill-opacity = "6.31197653784542730000e-01" />
<circle cx=" 893" cy="322" r="261" fill="rgb(224, 44, 118)" fill-opacity = "9.76003792551982660000e-01" />
<circle cx=" 283" cy="209" r="202" fill="rgb(104, 23, 193)" fill-opacity = "4.50125371072025880000e-01" />
<circle cx=" 831" cy="78" r="360" fill="rgb(120, 36, 250)" fill-opacity = "7.88488307444963230000e-01" />
<circle cx=" 697" cy="16" r="331" fill="rgb(54, 202, 183)" fill-opacity = "2.73712495041898760000e-01" />
<circle cx=" 160" cy="440" r="245" fill="rgb(143, 227, 81)" fill-opacity = "1.83430457725406890000e-01" />
<circle cx=" 803" cy="397" r="288" fill="rgb(252, 211, 160)" fill-opacity = "8.09378356019610390000e-01" />
<circle cx=" 957" cy="985" r="267" fill="rgb(238, 139, 34)" fill-opacity = "2.10556449250736130000e-01" />
<circle cx=" 81" cy="633" r="386" fill="rgb(159, 18, 103)" fill-opacity = "5.37091629411807770000e-01" />
<circle cx=" 277" cy="500" r="67" fill="rgb(175, 41, 205)" fill-opacity = "9.04606350210786840000e-01" />
<circle cx=" 1014" cy="864" r="98" fill="rgb(47, 146, 89)" fill-opacity = "9.94381122205663100000e-01" />
<circle cx=" 268" cy="381" r="28" fill="rgb(19, 164, 137)" fill-opacity = "6.59412156110415150000e-01" />
<circle cx=" 521" cy="487" r="139" fill="rgb(256, 193, 236)" fill-opacity = "1.11680546513367230000e-01" />
<circle cx=" 513" cy="67" r="398" fill="rgb(241, 19, 116)" fill-opacity = "2.77956111766219930000e-01" />
<circle cx=" 362" cy="834" r="71" fill="rgb(240, 240, 215)" fill-opacity = "3.28978660318800520000e-01" />
<circle cx=" 89" cy="600" r="345" fill="rgb(26, 129, 64)" fill-opacity = "1.44448997199507100000e-01" />
<circle cx=" 42" cy="512" r="126" fill="rgb(105, 60, 219)" fill-opacity = "5.76748349973470910000e-01" />
<circle cx=" 390" cy="284" r="360" fill="rgb(96, 78, 219)" fill-opacity = "9.70492455252272010000e-01" />
<circle cx=" 89" cy="856" r="200" fill="rgb(208, 175, 117)" fill-opacity = "2.84192662206144140000e-01" />
<circle cx=" 291" cy="860" r="30" fill="rgb(57, 209, 92)" fill-opacity = "1.36300593951628190000e-01" />
<circle cx=" 942" cy="875" r="203" fill="rgb(158, 26, 138)" fill-opacity = "3.01416315129025670000e-01" />
<circle cx=" 404" cy="327" r="400" fill="rgb(247, 37, 190)" fill-opacity = "7.54134996743791140000e-01" />
<circle cx=" 735" cy="908" r="66" fill="rgb(236, 241, 35)" fill-opacity = "2.16183277264485830000e-01" />
<circle cx=" 598" cy="280" r="146" fill="rgb(219, 49, 107)" fill-opacity = "6.55259720446574770000e-01" />
<circle cx=" 568" cy="645" r="141" fill="rgb(207, 8, 38)" fill-opacity = "7.59418412559668350000e-01" />
<circle cx=" 188" cy="11" r="338" fill="rgb(54, 182, 173)" fill-opacity = "5.50365391687053900000e-01" />
<circle cx=" 618" cy="610" r="152" fill="rgb(135, 121, 133)" fill-opacity = "4.69762847926347820000e-01" />
<circle cx=" 309" cy="881" r="208" fill="rgb(165, 141, 162)" fill-opacity = "7.51201836938064420000e-01" />
<circle cx=" 648" cy="14" r="40" fill="rgb(85, 135, 216)" fill-opacity = "4.39321912922778330000e-01" />
<circle cx=" 294" cy="334" r="295" fill="rgb(80, 55, 12)" fill-opacity = "7.36711070201527150000e-01" />
<circle cx=" 474" cy="701" r="15" fill="rgb(14, 38, 10)" fill-opacity = "6.51164364319197440000e-01" />
<circle cx=" 630" cy="388" r="320" fill="rgb(62, 82, 95)" fill-opacity = "7.67523257590974510000e-01" />
<circle cx=" 31" cy="3" r="158" fill="rgb(191, 214, 50)" fill-opacity = "7.96936404248458350000e-02" />
<circle cx=" 372" cy="124" r="170" fill="rgb(6, 127, 178)" fill-opacity = "1.35489941894703310000e-01" />
<circle cx=" 197" cy="805" r="221" fill="rgb(115, 204, 137)" fill-opacity = "6.27407015260972420000e-01" />
<circle cx=" 839" cy="542" r="265" fill="rgb(15, 223, 228)" fill-opacity = "1.76782531984589040000e-01" />
<circle cx=" 562" cy="605" r="249" fill="rgb(53, 31, 240)" fill-opacity = "5.47472208421507120000e-01" />
<circle cx=" 928" cy="334" r="6" fill="rgb(185, 199, 67)" fill-opacity = "9.51679306717183150000e-01" />
<circle cx=" 349" cy="89" r="195" fill="rgb(145, 133, 119)" fill-opacity = "9.33680566553604760000e-01" />
<circle cx=" 546" cy="137" r="159" fill="rgb(52, 189, 98)" fill-opacity = "5.31908796816382700000e-01" />
<circle cx=" 438" cy="270" r="56" fill="rgb(167, 133, 61)" fill-opacity = "1.59911962007002640000e-01" />
<circle cx=" 694" cy="718" r="50" fill="rgb(170, 203, 254)" fill-opacity = "3.88284366774469090000e-01" />
<circle cx=" 5" cy="67" r="83" fill="rgb(191, 155, 62)" fill-opacity = "5.65439327956618330000e-01" />
<circle cx=" 19" cy="91" r="304" fill="rgb(196, 148, 49)" fill-opacity = "8.54533334559690940000e-01" />
<circle cx=" 429" cy="719" r="377" fill="rgb(100, 139, 89)" fill-opacity = "3.76103901995404220000e-01" />
<circle cx=" 123" cy="659" r="228" fill="rgb(166, 227, 96)" fill-opacity = "6.53430198817394730000e-01" />
<circle cx=" 622" cy="160" r="318" fill="rgb(97, 43, 158)" fill-opacity = "4.85207909276279990000e-01" />
<circle cx=" 444" cy="737" r="300" fill="rgb(128, 139, 25)" fill-opacity = "7.39378155422992120000e-01" />
<circle cx=" 720" cy="513" r="336" fill="rgb(202, 118, 26)" fill-opacity = "6.53274389047360680000e-01" />
<circle cx=" 505" cy="798" r="139" fill="rgb(177, 15, 228)" fill-opacity = "2.55948211020855960000e-01" />
<circle cx=" 917" cy="225" r="379" fill="rgb(155, 147, 16)" fill-opacity = "3.91949059147489450000e-01" />
<circle cx=" 312" cy="913" r="152" fill="rgb(237, 1, 226)" fill-opacity = "3.39556237421080150000e-01" />
<circle cx=" 721" cy="560" r="51" fill="rgb(242, 36, 72)" fill-opacity = "8.36367789486081040000e-03" />
<circle cx=" 977" cy="403" r="174" fill="rgb(20, 109, 134)" fill-opacity = "5.15651912194023510000e-01" />
<circle cx=" 35" cy="371" r="173" fill="rgb(30, 76, 114)" fill-opacity = "5.00982256455925200000e-01" />
<circle cx=" 18" cy="718" r="376" fill="rgb(9, 92, 41)" fill-opacity = "9.20923469699312050000e-01" />
</svg>
