<svg height="1024" width="1024">
<circle cx=" 387" cy="850" r="118" fill="rgb(164, 69, 248)" fill-opacity = "2.75186917444956160000e-01" />
<circle cx=" 639" cy="14" r="18" fill="rgb(175, 198, 133)" fill-opacity = "1.65846378387803920000e-01" />
<circle cx=" 724" cy="735" r="165" fill="rgb(206, 116, 105)" fill-opacity = "1.62740988487446000000e-01" />
<circle cx=" 12" cy="907" r="352" fill="rgb(256, 128, 189)" fill-opacity = "2.56508597053711540000e-01" />
<circle cx=" 947" cy="530" r="122" fill="rgb(174, 116, 150)" fill-opacity = "4.97561854873413530000e-01" />
<circle cx=" 13" cy="434" r="177" fill="rgb(159, 231, 73)" fill-opacity = "9.65080590828335530000e-01" />
<circle cx=" 192" cy="260" r="126" fill="rgb(11, 241, 194)" fill-opacity = "1.80504597131537550000e-01" />
<circle cx=" 613" cy="69" r="7" fill="rgb(161, 110, 120)" fill-opacity = "5.48583288117405750000e-01" />
<circle cx=" 466" cy="206" r="132" fill="rgb(114, 252, 19)" fill-opacity = "5.31672401885222580000e-01" />
<circle cx=" 720" cy="761" r="372" fill="rgb(171, 129, 43)" fill-opacity = "6.31251144593576010000e-01" />
<circle cx=" 620" cy="701" r="232" fill="rgb(50, 226, 10)" fill-opacity = "1.45800664960935580000e-02" />
<circle cx=" 915" cy="27" r="250" fill="rgb(92, 240, 93)" fill-opacity = "2.01507839429079460000e-01" />
<circle cx=" 177" cy="537" r="238" fill="rgb(93, 201, 95)" fill-opacity = "9.59072925394197640000e-01" />
<circle cx=" 883" cy="878" r="179" fill="rgb(204, 54, 152)" fill-opacity = "7.88221486419731670000e-01" />
<circle cx=" 192" cy="767" r="58" fill="rgb(128, 120, 145)" fill-opacity = "1.88958377888012400000e-01" />
<circle cx=" 911" cy="648" r="165" fill="rgb(244, 92, 95)" fill-opacity = "9.36951818321608790000e-01" />
<circle cx=" 671" cy="985" r="237" fill="rgb(98, 146, 209)" fill-opacity = "6.64940194297181990000e-01" />
<circle cx=" 71" cy="97" r="281" fill="rgb(76, 118, 69)" fill-opacity = "1.12422933152071640000e-01" />
<circle cx=" 147" cy="249" r="359" fill="rgb(6, 171, 137)" fill-opacity = "4.20143653349338120000e-01" />
<circle cx=" 787" cy="981" r="348" fill="rgb(122, 14, 156)" fill-opacity = "9.75709234926471880000e-01" />
<circle cx=" 915" cy="168" r="144" fill="rgb(85, 15, 111)" fill-opacity = "4.28900954842098340000e-01" />
<circle cx=" 640" cy="246" r="215" fill="rgb(134, 128, 59)" fill-opacity = "7.31794455968892030000e-01" />
<circle cx=" 317" cy="754" r="71" fill="rgb(151, 168, 103)" fill-opacity = "3.85515797934957490000e-01" />
<circle cx=" 562" cy="638" r="110" fill="rgb(61, 79, 211)" fill-opacity = "1.60811239854798950000e-02" />
<circle cx=" 329" cy="380" r="54" fill="rgb(220, 41, 171)" fill-opacity = "9.18500831643521030000e-01" />
<circle cx=" 337" cy="557" r="161" fill="rgb(56, 63, 84)" fill-opacity = "4.55057315772418040000e-01" />
<circle cx=" 858" cy="392" r="212" fill="rgb(54, 146, 154)" fill-opacity = "1.96299018188710760000e-01" />
<circle cx=" 750" cy="649" r="223" fill="rgb(183, 98, 103)" fill-opacity = "3.84889634780073210000e-01" />
<circle cx=" 926" cy="797" r="267" fill="rgb(25, 206, 6)" fill-opacity = "3.75840885779239240000e-01" />
<circle cx=" 435" cy="52" r="272" fill="rgb(166, 138, 190)" fill-opacity = "3.26982312052842340000e-01" />
<circle cx=" 583" cy="456" r="25" fill="rgb(237, 38, 168)" fill-opacity = "3.37811042745221890000e-01" />
<circle cx=" 961" cy="992" r="232" fill="rgb(159, 84, 40)" fill-opacity = "4.64877913104007280000e-01" />
<circle cx=" 203" cy="142" r="154" fill="rgb(139, 187, 49)" fill-opacity = "2.96355052831549060000e-01" />
<circle cx=" 565" cy="185" r="93" fill="rgb(219, 55, 36)" fill-opacity = "2.95943301722866540000e-01" />
<circle cx=" 497" cy="71" r="193" fill="rgb(83, 160, 92)" fill-opacity = "9.96491680056702740000e-01" />
<circle cx=" 130" cy="305" r="292" fill="rgb(194, 4, 53)" fill-opacity = "2.07511474074028260000e-01" />
<circle cx=" 225" cy="855" r="386" fill="rgb(235, 204, 127)" fill-opacity = "6.85252213379388130000e-01" />
<circle cx=" 948" cy="532" r="87" fill="rgb(220, 124, 19)" fill-opacity = "6.74254897182756000000e-01" />
<circle cx=" 234" cy="350" r="325" fill="rgb(15, 106, 123)" fill-opacity = "9.55161058955159350000e-01" />
<circle cx=" 149" cy="247" r="126" fill="rgb(214, 1, 46)" fill-opacity = "8.19633556067340010000e-01" />
<circle cx=" 291" cy="521" r="253" fill="rgb(19, 245, 199)" fill-opacity = "8.55562608238749520000e-01" />
<circle cx=" 320" cy="836" r="170" fill="rgb(53, 40, 202)" fill-opacity = "5.69643819859454230000e-01" />
<circle cx=" 954" cy="692" r="325" fill="rgb(136, 117, 193)" fill-opacity = "7.82062731160627860000e-01" />
<circle cx=" 125" cy="454" r="363" fill="rgb(165, 1, 252)" fill-opacity = "5.89060640307290440000e-01" />
<circle cx=" 193" cy="170" r="274" fill="rgb(174, 148, 152)" fill-opacity = "9.84783203598293970000e-03" />
<circle cx=" 90" cy="683" r="258" fill="rgb(137, 195, 145)" fill-opacity = "3.29186693806131640000e-01" />
<circle cx=" 758" cy="256" r="148" fill="rgb(174, 211, 256)" fill-opacity = "8.73893087457826570000e-01" />
<circle cx=" 314" cy="118" r="81" fill="rgb(253, 200, 58)" fill-opacity = "7.84020887807415520000e-01" />
<circle cx=" 810" cy="998" r="132" fill="rgb(216, 82, 143)" fill-opacity = "1.76282358070918740000e-01" />
<circle cx=" 107" cy="965" r="25" fill="rgb(11, 116, 245)" fill-opacity = "8.08358314531387510000e-01" />
<circle cx=" 642" cy="93" r="203" fill="rgb(117, 14, 37)" fill-opacity = "6.99849474309771400000e-01" />
<circle cx=" 342" cy="104" r="99" fill="rgb(82, 235, 235)" fill-opacity = "4.55147925995208040000e-01" />
<circle cx=" 530" cy="791" r="25" fill="rgb(78, 150, 59)" fill-opacity = "6.14627714739501620000e-01" />
<circle cx=" 334" cy="780" r="375" fill="rgb(41, 24, 44)" fill-opacity = "5.41897391522416780000e-02" />
<circle cx=" 1024" cy="347" r="37" fill="rgb(114, 221, 229)" fill-opacity = "8.97808516927044660000e-01" />
<circle cx=" 250" cy="957" r="360" fill="rgb(54, 49, 224)" fill-opacity = "4.36179647963577550000e-01" />
<circle cx=" 82" cy="414" r="370" fill="rgb(200, 113, 179)" fill-opacity = "4.76866542514214010000e-01" />
<circle cx=" 340" cy="274" r="382" fill="rgb(211, 178, 82)" fill-opacity = "9.81551010120214950000e-01" />
<circle cx=" 748" cy="869" r="285" fill="rgb(121, 56, 114)" fill-opacity = "9.97621342733221450000e-02" />
<circle cx=" 165" cy="900" r="61" fill="rgb(236, 171, 94)" fill-opacity = "9.17233979102855200000e-01" />
<circle cx=" 462" cy="486" r="363" fill="rgb(54, 145, 42)" fill-opacity = "6.40564397794427090000e-01" />
<circle cx=" 797" cy="40" r="36" fill="rgb(139, 106, 144)" fill-opacity = "1.11681298611774780000e-01" />
<circle cx=" 76" cy="116" r="53" fill="rgb(150, 131, 56)" fill-opacity = "9.49219849003589020000e-01" />
<circle cx=" 621" cy="842" r="396" fill="rgb(120, 126, 73)" fill-opacity = "5.64144622327504620000e-01" />
<circle cx=" 141" cy="372" r="282" fill="rgb(140, 177, 21)" fill-opacity = "3.36894274219615040000e-01" />
<circle cx=" 832" cy="866" r="138" fill="rgb(195, 8, 22)" fill-opacity = "7.78402264092376670000e-01" />
<circle cx=" 177" cy="472" r="137" fill="rgb(83, 211, 59)" fill-opacity = "3.65357352222421610000e-01" />
<circle cx=" 391" cy="765" r="90" fill="rgb(210, 176, 187)" fill-opacity = "3.06568817204174500000e-01" />
<circle cx=" 350" cy="336" r="78" fill="rgb(140, 246, 120)" fill-opacity = "2.72883879670025030000e-01" />
<circle cx=" 247" cy="382" r="62" fill="rgb(77, 66, 2)" fill-opacity = "5.19948910532722630000e-01" />
<circle cx=" 1007" cy="612" r="253" fill="rgb(46, 215, 50)" fill-opacity = "5.21832977780916090000e-01" />
<circle cx=" 727" cy="94" r="80" fill="rgb(24, 230, 212)" fill-opacity = "4.66575176684356220000e-01" />
<circle cx=" 692" cy="331" r="292" fill="rgb(50, 153, 135)" fill-opacity = "7.92852159502958510000e-01" />
<circle cx=" 2" cy="1005" r="284" fill="rgb(115, 29, 248)" fill-opacity = "4.74922859982627180000e-01" />
<circle cx=" 405" cy="771" r="128" fill="rgb(125, 142, 195)" fill-opacity = "9.02390528888357360000e-01" />
<circle cx=" 445" cy="509" r="58" fill="rgb(228, 97, 81)" fill-opacity = "5.60630078751110260000e-01" />
<circle cx=" 491" cy="211" r="359" fill="rgb(202, 38, 56)" fill-opacity = "6.69212019245590370000e-01" />
<circle cx=" 100" cy="108" r="368" fill="rgb(78, 153, 43)" fill-opacity = "4.99135987487361990000e-01" />
<circle cx=" 933" cy="232" r="274" fill="rgb(120, 212, 64)" fill-opacity = "1.10325140462973480000e-01" />
<circle cx=" 728" cy="240" r="104" fill="rgb(209, 122, 140)" fill-opacity = "5.20825988802144040000e-01" />
<circle cx=" 1022" cy="918" r="397" fill="rgb(209, 159, 199)" fill-opacity = "1.40768205258314790000e-01" />
<circle cx=" 814" cy="625" r="246" fill="rgb(225, 246, 168)" fill-opacity = "8.16710595929798000000e-01" />
<circle cx=" 24" cy="724" r="30" fill="rgb(227, 84, 105)" fill-opacity = "7.87276713304477130000e-01" />
<circle cx=" 771" cy="383" r="121" fill="rgb(63, 38, 227)" fill-opacity = "6.86610522975889980000e-01" />
<circle cx=" 329" cy="74" r="133" fill="rgb(59, 48, 190)" fill-opacity = "1.35935195032032890000e-01" />
<circle cx=" 310" cy="951" r="225" fill="rgb(206, 82, 27)" fill-opacity = "6.31597866542201290000e-01" />
<circle cx=" 146" cy="145" r="367" fill="rgb(40, 57, 165)" fill-opacity = "6.85256813710019230000e-01" />
<circle cx=" 537" cy="562" r="103" fill="rgb(36, 105, 169)" fill-opacity = "9.08861706998665970000e-01" />
<circle cx=" 505" cy="366" r="62" fill="rgb(160, 72, 151)" fill-opacity = "7.14631570152648440000e-01" />
<circle cx=" 153" cy="873" r="395" fill="rgb(181, 106, 145)" fill-opacity = "1.01315610493515780000e-01" />
<circle cx=" 643" cy="590" r="379" fill="rgb(51, 64, 47)" fill-opacity = "6.45026539385263440000e-01" />
<circle cx=" 942" cy="370" r="209" fill="rgb(34, 228, 159)" fill-opacity = "6.40794874460945960000e-02" />
<circle cx=" 247" cy="88" r="112" fill="rgb(109, 144, 213)" fill-opacity = "3.95703209774173280000e-01" />
<circle cx=" 714" cy="762" r="280" fill="rgb(201, 246, 209)" fill-opacity = "7.84389171918350670000e-01" />
<circle cx=" 916" cy="547" r="37" fill="rgb(146, 26, 96)" fill-opacity = "4.24975983913224550000e-01" />
<circle cx=" 994" cy="965" r="38" fill="rgb(202, 154, 178)" fill-opacity = "3.82175707373617610000e-02" />
<circle cx=" 259" cy="767" r="182" fill="rgb(73, 1, 59)" fill-opacity = "9.59065238064320540000e-01" />
<circle cx=" 619" cy="78" r="252" fill="rgb(228, 199, 250)" fill-opacity = "1.89320630392753040000e-02" />
<circle cx=" 825" cy="374" r="356" fill="rgb(185, 192, 7)" fill-opacity = "9.29361889946457520000e-01" />
<circle cx=" 160" cy="812" r="309" fill="rgb(136, 227, 142)" fill-opacity = "3.89821627714065370000e-01" />
<circle cx=" 585" cy="529" r="313" fill="rgb(87, 194, 71)" fill-opacity = "6.59805189207599120000e-01" />
<circle cx=" 794" cy="484" r="258" fill="rgb(115, 30, 65)" fill-opacity = "2.10556449250736130000e-01" />
<circle cx=" 81" cy="725" r="195" fill="rgb(74, 177, 225)" fill-opacity = "2.41416288573590880000e-01" />
<circle cx=" 277" cy="455" r="130" fill="rgb(255, 22, 101)" fill-opacity = "4.40350037645775850000e-01" />
<circle cx=" 657" cy="900" r="9" fill="rgb(89, 134, 76)" fill-opacity = "9.94381122205663100000e-01" />
<circle cx=" 706" cy="950" r="258" fill="rgb(20, 209, 201)" fill-opacity = "7.92337007834855060000e-01" />
<circle cx=" 713" cy="190" r="274" fill="rgb(42, 210, 218)" fill-opacity = "1.11680546513367230000e-01" />
<circle cx=" 1016" cy="279" r="398" fill="rgb(69, 97, 76)" fill-opacity = "3.28555531500075660000e-01" />
<circle cx=" 923" cy="261" r="217" fill="rgb(166, 39, 248)" fill-opacity = "1.40752889874506070000e-01" />
<circle cx=" 171" cy="600" r="399" fill="rgb(85, 14, 36)" fill-opacity = "7.72072408949420640000e-01" />
<circle cx=" 466" cy="858" r="121" fill="rgb(168, 151, 5)" fill-opacity = "5.49580366244019290000e-01" />
<circle cx=" 931" cy="325" r="264" fill="rgb(180, 118, 219)" fill-opacity = "7.38255080664589560000e-01" />
<circle cx=" 89" cy="856" r="41" fill="rgb(36, 22, 153)" fill-opacity = "5.64517051211553600000e-01" />
<circle cx=" 208" cy="690" r="337" fill="rgb(141, 209, 211)" fill-opacity = "2.63314758740775370000e-01" />
<circle cx=" 463" cy="627" r="343" fill="rgb(158, 126, 38)" fill-opacity = "8.20822288718060730000e-01" />
<circle cx=" 325" cy="241" r="180" fill="rgb(246, 110, 247)" fill-opacity = "1.50470666768625970000e-01" />
<circle cx=" 923" cy="159" r="141" fill="rgb(117, 139, 136)" fill-opacity = "7.00420322952365340000e-01" />
<circle cx=" 894" cy="120" r="179" fill="rgb(47, 188, 173)" fill-opacity = "6.59329708535968840000e-01" />
<circle cx=" 521" cy="646" r="275" fill="rgb(133, 113, 254)" fill-opacity = "1.30467614914207000000e-02" />
<circle cx=" 492" cy="2" r="34" fill="rgb(57, 242, 204)" fill-opacity = "7.68357885172436190000e-01" />
<circle cx=" 216" cy="787" r="216" fill="rgb(109, 17, 141)" fill-opacity = "5.47417276929344720000e-01" />
<circle cx=" 654" cy="92" r="236" fill="rgb(198, 141, 176)" fill-opacity = "7.63616086377069570000e-01" />
<circle cx=" 862" cy="14" r="311" fill="rgb(126, 58, 102)" fill-opacity = "7.08580221992218820000e-02" />
<circle cx=" 19" cy="223" r="265" fill="rgb(163, 168, 150)" fill-opacity = "5.55675797855861960000e-01" />
<circle cx=" 474" cy="595" r="277" fill="rgb(70, 226, 45)" fill-opacity = "5.42961310066226940000e-01" />
<circle cx=" 887" cy="407" r="392" fill="rgb(161, 65, 202)" fill-opacity = "9.22911470866742740000e-01" />
<circle cx=" 31" cy="850" r="186" fill="rgb(36, 56, 50)" fill-opacity = "2.83972566301148980000e-01" />
<circle cx=" 372" cy="899" r="365" fill="rgb(108, 54, 42)" fill-opacity = "1.48508987442642850000e-01" />
<circle cx=" 123" cy="608" r="36" fill="rgb(195, 254, 175)" fill-opacity = "9.15939926536177400000e-01" />
<circle cx=" 557" cy="382" r="307" fill="rgb(137, 79, 221)" fill-opacity = "4.89799286833260790000e-01" />
<circle cx=" 587" cy="361" r="26" fill="rgb(188, 60, 254)" fill-opacity = "5.47472208421507120000e-01" />
<circle cx=" 575" cy="665" r="367" fill="rgb(185, 105, 214)" fill-opacity = "5.35934439020986360000e-01" />
<circle cx=" 291" cy="256" r="191" fill="rgb(93, 227, 128)" fill-opacity = "9.33680566553604760000e-01" />
<circle cx=" 492" cy="845" r="161" fill="rgb(51, 82, 123)" fill-opacity = "5.31908796816382700000e-01" />
<circle cx=" 214" cy="477" r="158" fill="rgb(167, 56, 105)" fill-opacity = "3.09117530195218930000e-01" />
<circle cx=" 547" cy="851" r="363" fill="rgb(170, 6, 82)" fill-opacity = "8.94251901697476810000e-01" />
<circle cx=" 49" cy="336" r="20" fill="rgb(191, 226, 150)" fill-opacity = "4.34674854658768430000e-01" />
<circle cx=" 161" cy="812" r="3" fill="rgb(108, 134, 187)" fill-opacity = "3.82628223078622650000e-01" />
<circle cx=" 285" cy="719" r="319" fill="rgb(100, 35, 19)" fill-opacity = "3.60223352924883720000e-01" />
<circle cx=" 776" cy="962" r="218" fill="rgb(20, 227, 96)" fill-opacity = "7.68500950301763460000e-01" />
<circle cx=" 272" cy="61" r="223" fill="rgb(154, 235, 252)" fill-opacity = "1.45015252769069790000e-01" />
<circle cx=" 592" cy="133" r="295" fill="rgb(184, 245, 135)" fill-opacity = "9.04348562113780560000e-01" />
<circle cx=" 807" cy="728" r="153" fill="rgb(190, 206, 185)" fill-opacity = "4.47322821501197680000e-01" />
<circle cx=" 925" cy="213" r="110" fill="rgb(216, 148, 179)" fill-opacity = "2.55948211020855960000e-01" />
<circle cx=" 282" cy="225" r="270" fill="rgb(155, 81, 90)" fill-opacity = "9.58092477125959800000e-01" />
<circle cx=" 754" cy="30" r="127" fill="rgb(171, 173, 24)" fill-opacity = "1.39671265814330150000e-01" />
<circle cx=" 62" cy="1013" r="51" fill="rgb(42, 212, 233)" fill-opacity = "5.57862338020139960000e-01" />
<circle cx=" 39" cy="201" r="174" fill="rgb(102, 175, 60)" fill-opacity = "9.19696509552966000000e-01" />
<circle cx=" 697" cy="371" r="373" fill="rgb(117, 152, 18)" fill-opacity = "6.02974323625743880000e-01" />
<circle cx=" 856" cy="256" r="145" fill="rgb(134, 33, 155)" fill-opacity = "2.50768963888799770000e-01" />
</svg>
