<svg height="1024" width="1024">
<circle cx=" 630" cy="814" r="37" fill="rgb(225, 69, 74)" fill-opacity = "2.75186917444956160000e-01" />
<circle cx=" 220" cy="304" r="216" fill="rgb(183, 97, 48)" fill-opacity = "3.23156892777985320000e-01" />
<circle cx=" 724" cy="285" r="226" fill="rgb(240, 37, 176)" fill-opacity = "6.04371584452661590000e-01" />
<circle cx=" 383" cy="610" r="391" fill="rgb(218, 155, 238)" fill-opacity = "9.61905776317038660000e-01" />
<circle cx=" 90" cy="653" r="54" fill="rgb(176, 116, 121)" fill-opacity = "3.82525327902068390000e-01" />
<circle cx=" 881" cy="217" r="350" fill="rgb(54, 11, 140)" fill-opacity = "5.57426968569568300000e-01" />
<circle cx=" 113" cy="736" r="179" fill="rgb(215, 7, 49)" fill-opacity = "1.48020395748527100000e-02" />
<circle cx=" 787" cy="922" r="59" fill="rgb(138, 118, 243)" fill-opacity = "7.83113775780162390000e-01" />
<circle cx=" 409" cy="781" r="91" fill="rgb(121, 178, 146)" fill-opacity = "7.39378155422992120000e-01" />
<circle cx=" 720" cy="761" r="72" fill="rgb(79, 43, 85)" fill-opacity = "5.47965107682885750000e-01" />
<circle cx=" 992" cy="241" r="130" fill="rgb(134, 104, 230)" fill-opacity = "1.11121325937055810000e-01" />
<circle cx=" 527" cy="719" r="384" fill="rgb(229, 8, 33)" fill-opacity = "2.56347075182595140000e-01" />
<circle cx=" 520" cy="56" r="51" fill="rgb(207, 113, 95)" fill-opacity = "2.15602202499916910000e-01" />
<circle cx=" 519" cy="438" r="117" fill="rgb(175, 65, 152)" fill-opacity = "8.43888977229050980000e-01" />
<circle cx=" 976" cy="606" r="303" fill="rgb(55, 86, 102)" fill-opacity = "9.43877768360571690000e-01" />
<circle cx=" 146" cy="648" r="340" fill="rgb(116, 5, 69)" fill-opacity = "6.78651034048739050000e-01" />
<circle cx=" 828" cy="622" r="49" fill="rgb(234, 96, 217)" fill-opacity = "6.64940194297181990000e-01" />
<circle cx=" 291" cy="714" r="84" fill="rgb(157, 168, 17)" fill-opacity = "7.00598164207709040000e-01" />
<circle cx=" 863" cy="193" r="180" fill="rgb(91, 223, 210)" fill-opacity = "8.25688994655056190000e-01" />
<circle cx=" 849" cy="679" r="343" fill="rgb(212, 4, 80)" fill-opacity = "3.31990229844044920000e-01" />
<circle cx=" 60" cy="920" r="384" fill="rgb(70, 164, 83)" fill-opacity = "7.64466263077163700000e-02" />
<circle cx=" 921" cy="343" r="309" fill="rgb(72, 252, 150)" fill-opacity = "4.48750731342797420000e-01" />
<circle cx=" 175" cy="952" r="230" fill="rgb(188, 63, 26)" fill-opacity = "1.89922472593619500000e-01" />
<circle cx=" 612" cy="743" r="146" fill="rgb(62, 243, 211)" fill-opacity = "8.12097174774851100000e-01" />
<circle cx=" 892" cy="195" r="222" fill="rgb(231, 42, 197)" fill-opacity = "8.02835430986108770000e-01" />
<circle cx=" 46" cy="258" r="372" fill="rgb(220, 232, 161)" fill-opacity = "8.78588076451277120000e-01" />
<circle cx=" 767" cy="913" r="217" fill="rgb(139, 142, 39)" fill-opacity = "4.92905178482400790000e-01" />
<circle cx=" 753" cy="721" r="200" fill="rgb(98, 143, 23)" fill-opacity = "7.91678240728769360000e-01" />
<circle cx=" 419" cy="646" r="7" fill="rgb(187, 249, 69)" fill-opacity = "3.08979732424750080000e-01" />
<circle cx=" 924" cy="267" r="21" fill="rgb(169, 227, 169)" fill-opacity = "3.81894354023593730000e-01" />
<circle cx=" 492" cy="460" r="225" fill="rgb(222, 38, 111)" fill-opacity = "7.83642350104795770000e-01" />
<circle cx=" 379" cy="951" r="115" fill="rgb(159, 66, 139)" fill-opacity = "5.84033792045784760000e-01" />
<circle cx=" 867" cy="366" r="202" fill="rgb(190, 79, 43)" fill-opacity = "1.45248531744747390000e-01" />
<circle cx=" 803" cy="478" r="112" fill="rgb(25, 205, 83)" fill-opacity = "3.80544619216447000000e-01" />
<circle cx=" 288" cy="513" r="38" fill="rgb(148, 245, 248)" fill-opacity = "4.78014009977207670000e-01" />
<circle cx=" 325" cy="53" r="223" fill="rgb(50, 206, 179)" fill-opacity = "4.52398610136987230000e-01" />
<circle cx=" 234" cy="748" r="158" fill="rgb(183, 121, 12)" fill-opacity = "6.38255495703337950000e-01" />
<circle cx=" 977" cy="496" r="306" fill="rgb(172, 124, 29)" fill-opacity = "8.12284709833472900000e-02" />
<circle cx=" 138" cy="49" r="9" fill="rgb(55, 244, 48)" fill-opacity = "9.88165969810619100000e-01" />
<circle cx=" 558" cy="607" r="70" fill="rgb(159, 54, 76)" fill-opacity = "3.75162040847454750000e-01" />
<circle cx=" 500" cy="905" r="288" fill="rgb(122, 146, 218)" fill-opacity = "7.33223084402813810000e-01" />
<circle cx=" 207" cy="623" r="144" fill="rgb(160, 199, 190)" fill-opacity = "1.91835483817866190000e-01" />
<circle cx=" 322" cy="67" r="334" fill="rgb(142, 52, 78)" fill-opacity = "9.25179543595610720000e-01" />
<circle cx=" 519" cy="748" r="79" fill="rgb(165, 208, 4)" fill-opacity = "7.99219014902002200000e-01" />
<circle cx=" 510" cy="223" r="258" fill="rgb(60, 64, 73)" fill-opacity = "7.77133864403642960000e-02" />
<circle cx=" 769" cy="612" r="270" fill="rgb(4, 13, 177)" fill-opacity = "5.02570677103021610000e-01" />
<circle cx=" 686" cy="32" r="266" fill="rgb(160, 236, 249)" fill-opacity = "5.55724332140322020000e-01" />
<circle cx=" 251" cy="733" r="81" fill="rgb(188, 198, 212)" fill-opacity = "5.18980983572030490000e-02" />
<circle cx=" 258" cy="888" r="274" fill="rgb(178, 86, 67)" fill-opacity = "2.73092400176718320000e-01" />
<circle cx=" 107" cy="617" r="112" fill="rgb(149, 150, 195)" fill-opacity = "3.91123890669897500000e-01" />
<circle cx=" 877" cy="907" r="307" fill="rgb(70, 211, 243)" fill-opacity = "7.49012945305239870000e-01" />
<circle cx=" 189" cy="942" r="230" fill="rgb(1, 202, 147)" fill-opacity = "1.24556976112431880000e-01" />
<circle cx=" 613" cy="499" r="17" fill="rgb(113, 157, 122)" fill-opacity = "7.54935505064788790000e-02" />
<circle cx=" 505" cy="579" r="277" fill="rgb(197, 240, 37)" fill-opacity = "6.94896084964170210000e-01" />
<circle cx=" 68" cy="725" r="60" fill="rgb(221, 42, 78)" fill-opacity = "9.24393651465509560000e-01" />
<circle cx=" 238" cy="400" r="398" fill="rgb(9, 62, 95)" fill-opacity = "5.32057850483816150000e-01" />
<circle cx=" 607" cy="645" r="335" fill="rgb(7, 100, 65)" fill-opacity = "9.97992273451260010000e-02" />
<circle cx=" 763" cy="209" r="132" fill="rgb(137, 187, 111)" fill-opacity = "8.30687326892572740000e-01" />
<circle cx=" 729" cy="877" r="182" fill="rgb(128, 147, 57)" fill-opacity = "7.08414874129769560000e-01" />
<circle cx=" 727" cy="1001" r="350" fill="rgb(68, 226, 33)" fill-opacity = "9.33234714463626160000e-01" />
<circle cx=" 997" cy="604" r="301" fill="rgb(61, 145, 145)" fill-opacity = "9.50354009641217080000e-01" />
<circle cx=" 969" cy="478" r="177" fill="rgb(208, 64, 47)" fill-opacity = "2.97065999530446770000e-01" />
<circle cx=" 817" cy="682" r="84" fill="rgb(137, 119, 175)" fill-opacity = "6.13597546143345610000e-01" />
<circle cx=" 515" cy="829" r="38" fill="rgb(230, 126, 54)" fill-opacity = "7.13993579470685310000e-01" />
<circle cx=" 986" cy="372" r="265" fill="rgb(255, 177, 139)" fill-opacity = "1.43952216840179230000e-01" />
<circle cx=" 603" cy="388" r="235" fill="rgb(217, 243, 176)" fill-opacity = "7.04699529824269750000e-01" />
<circle cx=" 935" cy="999" r="137" fill="rgb(159, 206, 67)" fill-opacity = "5.92233779559139250000e-01" />
<circle cx=" 648" cy="986" r="374" fill="rgb(49, 251, 25)" fill-opacity = "3.06568817204174500000e-01" />
<circle cx=" 350" cy="943" r="325" fill="rgb(129, 113, 165)" fill-opacity = "2.49714003240248060000e-01" />
<circle cx=" 480" cy="232" r="234" fill="rgb(86, 51, 44)" fill-opacity = "2.69644292254213710000e-01" />
<circle cx=" 486" cy="167" r="152" fill="rgb(69, 215, 36)" fill-opacity = "6.53399827254253160000e-01" />
<circle cx=" 917" cy="94" r="274" fill="rgb(82, 3, 9)" fill-opacity = "1.89193404725414460000e-01" />
<circle cx=" 366" cy="180" r="392" fill="rgb(103, 50, 200)" fill-opacity = "9.70616632150723910000e-01" />
<circle cx=" 713" cy="953" r="222" fill="rgb(244, 98, 176)" fill-opacity = "5.67780732486806050000e-01" />
<circle cx=" 625" cy="754" r="310" fill="rgb(18, 196, 241)" fill-opacity = "5.88322057934319580000e-01" />
<circle cx=" 116" cy="215" r="157" fill="rgb(194, 166, 21)" fill-opacity = "5.16568826699208120000e-01" />
<circle cx=" 516" cy="137" r="130" fill="rgb(74, 214, 217)" fill-opacity = "9.07878378714198520000e-01" />
<circle cx=" 905" cy="108" r="154" fill="rgb(213, 153, 159)" fill-opacity = "1.30450776924783130000e-01" />
<circle cx=" 739" cy="330" r="383" fill="rgb(222, 18, 153)" fill-opacity = "4.50367705535723580000e-01" />
<circle cx=" 728" cy="166" r="12" fill="rgb(173, 97, 92)" fill-opacity = "7.03072719901018940000e-01" />
<circle cx=" 247" cy="705" r="272" fill="rgb(62, 236, 93)" fill-opacity = "8.92861935900217670000e-01" />
<circle cx=" 100" cy="342" r="17" fill="rgb(146, 246, 203)" fill-opacity = "8.16710595929798000000e-01" />
<circle cx=" 41" cy="290" r="50" fill="rgb(106, 1, 31)" fill-opacity = "3.06330280282992360000e-01" />
<circle cx=" 518" cy="165" r="184" fill="rgb(189, 19, 183)" fill-opacity = "5.01143558005220150000e-01" />
<circle cx=" 511" cy="946" r="266" fill="rgb(201, 48, 186)" fill-opacity = "5.52789297580163370000e-01" />
<circle cx=" 326" cy="39" r="363" fill="rgb(49, 32, 27)" fill-opacity = "3.99494339943383010000e-01" />
<circle cx=" 946" cy="154" r="335" fill="rgb(197, 174, 232)" fill-opacity = "1.68577544000770630000e-01" />
<circle cx=" 76" cy="947" r="281" fill="rgb(141, 27, 219)" fill-opacity = "8.47228803620244440000e-01" />
<circle cx=" 958" cy="177" r="390" fill="rgb(100, 218, 5)" fill-opacity = "3.24983235969948490000e-01" />
<circle cx=" 388" cy="418" r="153" fill="rgb(54, 241, 188)" fill-opacity = "8.41253016726718710000e-01" />
<circle cx=" 691" cy="314" r="369" fill="rgb(26, 255, 162)" fill-opacity = "3.49407166940583820000e-01" />
<circle cx=" 129" cy="632" r="239" fill="rgb(183, 109, 40)" fill-opacity = "7.96368296733169330000e-01" />
<circle cx=" 306" cy="41" r="221" fill="rgb(201, 175, 29)" fill-opacity = "5.35290859956135570000e-01" />
<circle cx=" 331" cy="124" r="124" fill="rgb(19, 115, 84)" fill-opacity = "5.61447929497861150000e-01" />
<circle cx=" 282" cy="561" r="36" fill="rgb(77, 150, 184)" fill-opacity = "4.93748704829630290000e-01" />
<circle cx=" 959" cy="181" r="212" fill="rgb(165, 57, 65)" fill-opacity = "8.72980684881231370000e-01" />
<circle cx=" 1021" cy="891" r="122" fill="rgb(154, 95, 197)" fill-opacity = "7.96954782492730770000e-01" />
<circle cx=" 556" cy="702" r="383" fill="rgb(132, 237, 83)" fill-opacity = "8.77072544730646550000e-01" />
<circle cx=" 446" cy="785" r="18" fill="rgb(78, 222, 77)" fill-opacity = "3.42778693048514600000e-01" />
<circle cx=" 530" cy="993" r="393" fill="rgb(256, 208, 252)" fill-opacity = "6.75059104566333450000e-03" />
<circle cx=" 485" cy="646" r="72" fill="rgb(87, 231, 83)" fill-opacity = "8.18699470184152120000e-01" />
<circle cx=" 754" cy="366" r="38" fill="rgb(123, 141, 210)" fill-opacity = "2.10556449250736130000e-01" />
<circle cx=" 580" cy="885" r="211" fill="rgb(28, 57, 20)" fill-opacity = "5.37091629411807770000e-01" />
<circle cx=" 704" cy="256" r="263" fill="rgb(54, 250, 171)" fill-opacity = "4.40350037645775850000e-01" />
<circle cx=" 140" cy="287" r="369" fill="rgb(61, 60, 120)" fill-opacity = "7.88694221914869820000e-01" />
<circle cx=" 320" cy="950" r="71" fill="rgb(19, 120, 137)" fill-opacity = "9.55158653538057400000e-02" />
<circle cx=" 713" cy="558" r="210" fill="rgb(12, 204, 55)" fill-opacity = "3.06869784920574370000e-01" />
<circle cx=" 950" cy="460" r="89" fill="rgb(91, 233, 163)" fill-opacity = "5.38481854716160950000e-01" />
<circle cx=" 902" cy="707" r="48" fill="rgb(245, 30, 124)" fill-opacity = "9.94804389125095060000e-01" />
<circle cx=" 218" cy="319" r="193" fill="rgb(201, 210, 64)" fill-opacity = "8.11481383875884530000e-01" />
<circle cx=" 42" cy="359" r="211" fill="rgb(80, 143, 33)" fill-opacity = "2.79442170115832060000e-01" />
<circle cx=" 909" cy="337" r="360" fill="rgb(124, 78, 17)" fill-opacity = "5.05092614235192800000e-01" />
<circle cx=" 434" cy="494" r="385" fill="rgb(80, 9, 200)" fill-opacity = "9.85011295460658910000e-01" />
<circle cx=" 612" cy="354" r="30" fill="rgb(184, 56, 23)" fill-opacity = "7.95022715004182420000e-01" />
<circle cx=" 16" cy="3" r="143" fill="rgb(9, 146, 1)" fill-opacity = "7.80052501422313420000e-01" />
<circle cx=" 404" cy="527" r="81" fill="rgb(231, 84, 139)" fill-opacity = "5.96068115685885360000e-01" />
<circle cx=" 654" cy="709" r="98" fill="rgb(128, 163, 66)" fill-opacity = "2.26320051363384070000e-01" />
<circle cx=" 133" cy="280" r="65" fill="rgb(253, 166, 107)" fill-opacity = "7.14185969440473300000e-01" />
<circle cx=" 521" cy="142" r="83" fill="rgb(74, 182, 35)" fill-opacity = "7.62443636424298350000e-01" />
<circle cx=" 648" cy="110" r="287" fill="rgb(206, 107, 142)" fill-opacity = "9.23136573057096180000e-01" />
<circle cx=" 508" cy="142" r="272" fill="rgb(215, 127, 133)" fill-opacity = "9.08008293192730130000e-01" />
<circle cx=" 467" cy="577" r="208" fill="rgb(180, 52, 138)" fill-opacity = "5.27930619566530090000e-02" />
<circle cx=" 507" cy="645" r="19" fill="rgb(218, 120, 243)" fill-opacity = "4.35254583221906800000e-02" />
<circle cx=" 855" cy="431" r="234" fill="rgb(104, 103, 184)" fill-opacity = "1.96299018188710760000e-01" />
<circle cx=" 539" cy="612" r="214" fill="rgb(134, 141, 45)" fill-opacity = "5.42961310066226940000e-01" />
<circle cx=" 313" cy="705" r="320" fill="rgb(233, 17, 119)" fill-opacity = "8.48594291250059920000e-02" />
<circle cx=" 894" cy="700" r="194" fill="rgb(18, 50, 36)" fill-opacity = "6.64286079437439230000e-01" />
<circle cx=" 425" cy="124" r="268" fill="rgb(202, 127, 59)" fill-opacity = "5.26310438291360820000e-01" />
<circle cx=" 510" cy="596" r="326" fill="rgb(106, 220, 28)" fill-opacity = "2.07008010828637180000e-01" />
<circle cx=" 377" cy="699" r="121" fill="rgb(15, 103, 221)" fill-opacity = "1.76782531984589040000e-01" />
<circle cx=" 161" cy="981" r="106" fill="rgb(113, 31, 251)" fill-opacity = "5.24018490709966200000e-01" />
<circle cx=" 1011" cy="797" r="86" fill="rgb(6, 105, 221)" fill-opacity = "9.44737668020704690000e-01" />
<circle cx=" 449" cy="860" r="250" fill="rgb(42, 32, 14)" fill-opacity = "7.59253282933496370000e-01" />
<circle cx=" 671" cy="254" r="161" fill="rgb(79, 19, 244)" fill-opacity = "4.56412314839079960000e-01" />
<circle cx=" 438" cy="804" r="161" fill="rgb(165, 167, 111)" fill-opacity = "8.59835258104291180000e-01" />
<circle cx=" 398" cy="482" r="339" fill="rgb(170, 161, 150)" fill-opacity = "2.96721211941672220000e-01" />
<circle cx=" 88" cy="878" r="247" fill="rgb(118, 31, 62)" fill-opacity = "5.83220677099012490000e-01" />
<circle cx=" 83" cy="91" r="3" fill="rgb(208, 238, 94)" fill-opacity = "4.39006946743502270000e-01" />
<circle cx=" 739" cy="361" r="162" fill="rgb(39, 192, 98)" fill-opacity = "3.60223352924883720000e-01" />
<circle cx=" 469" cy="215" r="288" fill="rgb(14, 121, 123)" fill-opacity = "6.00822236655208510000e-01" />
<circle cx=" 749" cy="493" r="14" fill="rgb(211, 65, 197)" fill-opacity = "7.60351977430802520000e-01" />
<circle cx=" 442" cy="965" r="138" fill="rgb(34, 212, 187)" fill-opacity = "2.17626131463358740000e-01" />
<circle cx=" 541" cy="513" r="200" fill="rgb(85, 121, 112)" fill-opacity = "6.44517083353780330000e-01" />
<circle cx=" 470" cy="90" r="300" fill="rgb(128, 148, 48)" fill-opacity = "9.95243886680128310000e-01" />
<circle cx=" 552" cy="939" r="276" fill="rgb(57, 237, 74)" fill-opacity = "2.71170139673422960000e-01" />
<circle cx=" 106" cy="843" r="327" fill="rgb(201, 54, 80)" fill-opacity = "6.49374687741014480000e-01" />
<circle cx=" 152" cy="814" r="83" fill="rgb(140, 20, 45)" fill-opacity = "3.32720960410074930000e-01" />
<circle cx=" 977" cy="857" r="323" fill="rgb(76, 45, 14)" fill-opacity = "9.03757079695104440000e-01" />
<circle cx=" 215" cy="371" r="145" fill="rgb(15, 212, 253)" fill-opacity = "5.00982256455925200000e-01" />
<circle cx=" 254" cy="794" r="260" fill="rgb(35, 26, 155)" fill-opacity = "1.96580507652468480000e-01" />
</svg>
