<svg height="1024" width="1024">
<circle cx=" 243" cy="271" r="171" fill="rgb(217, 123, 148)" fill-opacity = "5.51301441727751310000e-01" />
<circle cx=" 228" cy="633" r="132" fill="rgb(60, 250, 198)" fill-opacity = "3.34492969626541510000e-01" />
<circle cx=" 100" cy="729" r="386" fill="rgb(219, 106, 73)" fill-opacity = "4.03773669347776920000e-01" />
<circle cx=" 91" cy="36" r="184" fill="rgb(140, 97, 107)" fill-opacity = "8.96122471913391780000e-01" />
<circle cx=" 60" cy="499" r="243" fill="rgb(133, 194, 162)" fill-opacity = "6.00591035982700250000e-01" />
<circle cx=" 666" cy="397" r="190" fill="rgb(135, 96, 11)" fill-opacity = "5.24417508151014510000e-01" />
<circle cx=" 1024" cy="950" r="385" fill="rgb(23, 203, 4)" fill-opacity = "9.74000357675797180000e-01" />
<circle cx=" 444" cy="128" r="137" fill="rgb(26, 94, 6)" fill-opacity = "6.60726494234194830000e-01" />
<circle cx=" 468" cy="732" r="333" fill="rgb(242, 88, 115)" fill-opacity = "2.19236235104075750000e-01" />
<circle cx=" 278" cy="675" r="130" fill="rgb(126, 112, 168)" fill-opacity = "5.34366187604451430000e-02" />
<circle cx=" 193" cy="630" r="202" fill="rgb(246, 180, 58)" fill-opacity = "7.07189163764062490000e-01" />
<circle cx=" 832" cy="488" r="388" fill="rgb(123, 86, 243)" fill-opacity = "3.97459477603778310000e-01" />
<circle cx=" 111" cy="337" r="270" fill="rgb(1, 211, 176)" fill-opacity = "9.80946360861758130000e-01" />
<circle cx=" 160" cy="861" r="232" fill="rgb(2, 42, 34)" fill-opacity = "2.56316539658114630000e-01" />
<circle cx=" 733" cy="364" r="265" fill="rgb(75, 123, 211)" fill-opacity = "5.52724478100699910000e-01" />
<circle cx=" 1023" cy="410" r="312" fill="rgb(174, 179, 90)" fill-opacity = "7.08705037866022900000e-01" />
<circle cx=" 937" cy="936" r="286" fill="rgb(176, 210, 238)" fill-opacity = "7.89181642925494750000e-01" />
<circle cx=" 105" cy="832" r="158" fill="rgb(115, 193, 30)" fill-opacity = "3.38951815503774730000e-01" />
<circle cx=" 1019" cy="556" r="398" fill="rgb(166, 223, 70)" fill-opacity = "4.66676593911070970000e-01" />
<circle cx=" 243" cy="507" r="349" fill="rgb(172, 3, 191)" fill-opacity = "2.00152590114096360000e-01" />
<circle cx=" 9" cy="924" r="261" fill="rgb(8, 180, 109)" fill-opacity = "4.47126789253127430000e-01" />
<circle cx=" 660" cy="207" r="318" fill="rgb(65, 188, 64)" fill-opacity = "1.76556679914456010000e-01" />
<circle cx=" 476" cy="149" r="348" fill="rgb(81, 197, 147)" fill-opacity = "1.82047594894199300000e-01" />
<circle cx=" 742" cy="295" r="343" fill="rgb(72, 181, 28)" fill-opacity = "4.74489109237004490000e-01" />
<circle cx=" 551" cy="395" r="183" fill="rgb(53, 217, 219)" fill-opacity = "1.72884341191403830000e-03" />
<circle cx=" 196" cy="47" r="384" fill="rgb(185, 76, 5)" fill-opacity = "9.89421165792184980000e-01" />
<circle cx=" 923" cy="654" r="322" fill="rgb(180, 250, 247)" fill-opacity = "1.92089154191187770000e-01" />
<circle cx=" 596" cy="521" r="33" fill="rgb(134, 72, 27)" fill-opacity = "2.02896868628784420000e-01" />
<circle cx=" 702" cy="714" r="186" fill="rgb(201, 124, 56)" fill-opacity = "8.22394507358656050000e-01" />
<circle cx=" 948" cy="738" r="246" fill="rgb(131, 104, 88)" fill-opacity = "1.23557202641218830000e-01" />
<circle cx=" 639" cy="847" r="351" fill="rgb(161, 223, 42)" fill-opacity = "3.57899916626677190000e-01" />
<circle cx=" 460" cy="231" r="145" fill="rgb(202, 26, 56)" fill-opacity = "4.16405301356070900000e-02" />
<circle cx=" 620" cy="771" r="347" fill="rgb(235, 46, 34)" fill-opacity = "4.56636543999776820000e-01" />
<circle cx=" 37" cy="715" r="308" fill="rgb(154, 7, 237)" fill-opacity = "6.25512450140846220000e-01" />
<circle cx=" 564" cy="290" r="339" fill="rgb(157, 163, 228)" fill-opacity = "2.62883362317977820000e-01" />
<circle cx=" 421" cy="264" r="371" fill="rgb(165, 230, 207)" fill-opacity = "8.13220077839572510000e-01" />
<circle cx=" 5" cy="611" r="323" fill="rgb(193, 228, 226)" fill-opacity = "3.59461634988698540000e-01" />
<circle cx=" 692" cy="572" r="81" fill="rgb(112, 199, 178)" fill-opacity = "2.13126666553414170000e-01" />
<circle cx=" 235" cy="797" r="391" fill="rgb(129, 19, 132)" fill-opacity = "9.47429854390320570000e-01" />
<circle cx=" 24" cy="761" r="259" fill="rgb(237, 210, 81)" fill-opacity = "4.16850424562641210000e-01" />
<circle cx=" 306" cy="596" r="314" fill="rgb(171, 174, 9)" fill-opacity = "7.56105107777112370000e-01" />
<circle cx=" 841" cy="64" r="152" fill="rgb(38, 251, 21)" fill-opacity = "4.58514279281879040000e-01" />
<circle cx=" 737" cy="692" r="371" fill="rgb(156, 114, 246)" fill-opacity = "7.38968078217833170000e-01" />
<circle cx=" 1000" cy="784" r="356" fill="rgb(167, 83, 52)" fill-opacity = "8.35499954840896230000e-01" />
<circle cx=" 543" cy="360" r="234" fill="rgb(188, 223, 67)" fill-opacity = "2.56472658949360440000e-01" />
<circle cx=" 861" cy="854" r="202" fill="rgb(49, 172, 157)" fill-opacity = "9.76675434827005140000e-01" />
<circle cx=" 73" cy="359" r="10" fill="rgb(29, 176, 163)" fill-opacity = "1.44514228565965520000e-01" />
<circle cx=" 238" cy="178" r="111" fill="rgb(109, 216, 135)" fill-opacity = "6.05005833649865380000e-01" />
<circle cx=" 118" cy="394" r="174" fill="rgb(72, 180, 87)" fill-opacity = "5.05894771492882530000e-01" />
<circle cx=" 983" cy="600" r="114" fill="rgb(86, 26, 23)" fill-opacity = "1.51564724532589070000e-01" />
<circle cx=" 829" cy="389" r="77" fill="rgb(207, 35, 208)" fill-opacity = "7.31523339677392360000e-01" />
<circle cx=" 528" cy="151" r="15" fill="rgb(36, 56, 237)" fill-opacity = "2.19590029531017360000e-01" />
<circle cx=" 983" cy="77" r="254" fill="rgb(177, 224, 67)" fill-opacity = "5.93255372520635540000e-01" />
<circle cx=" 357" cy="823" r="176" fill="rgb(226, 224, 146)" fill-opacity = "1.04537101429576400000e-01" />
<circle cx=" 636" cy="458" r="307" fill="rgb(22, 82, 138)" fill-opacity = "8.33561557765541310000e-01" />
<circle cx=" 662" cy="76" r="351" fill="rgb(60, 83, 242)" fill-opacity = "6.25165674960667550000e-01" />
<circle cx=" 730" cy="632" r="137" fill="rgb(89, 127, 232)" fill-opacity = "6.62121193186557380000e-01" />
<circle cx=" 447" cy="611" r="131" fill="rgb(42, 47, 178)" fill-opacity = "6.01623319822498730000e-01" />
<circle cx=" 864" cy="724" r="165" fill="rgb(235, 233, 251)" fill-opacity = "1.17825104268682420000e-01" />
<circle cx=" 255" cy="914" r="4" fill="rgb(200, 158, 56)" fill-opacity = "2.78702247245820270000e-01" />
<circle cx=" 905" cy="819" r="241" fill="rgb(40, 165, 132)" fill-opacity = "4.74542381144417380000e-01" />
<circle cx=" 898" cy="628" r="214" fill="rgb(193, 224, 122)" fill-opacity = "8.09432392468530490000e-01" />
<circle cx=" 773" cy="881" r="284" fill="rgb(174, 244, 55)" fill-opacity = "9.59227897220798820000e-01" />
<circle cx=" 796" cy="409" r="120" fill="rgb(140, 66, 205)" fill-opacity = "2.62576543294608560000e-01" />
<circle cx=" 227" cy="275" r="177" fill="rgb(4, 215, 188)" fill-opacity = "6.49107205887320180000e-01" />
<circle cx=" 304" cy="885" r="284" fill="rgb(153, 106, 209)" fill-opacity = "2.53082036552089830000e-01" />
<circle cx=" 288" cy="111" r="292" fill="rgb(229, 71, 60)" fill-opacity = "4.25471710486435620000e-01" />
<circle cx=" 338" cy="672" r="38" fill="rgb(163, 253, 13)" fill-opacity = "1.30685943448134890000e-01" />
<circle cx=" 816" cy="361" r="207" fill="rgb(35, 199, 35)" fill-opacity = "9.13727344405565910000e-01" />
<circle cx=" 504" cy="163" r="39" fill="rgb(15, 117, 106)" fill-opacity = "8.75707244427581520000e-02" />
<circle cx=" 657" cy="319" r="168" fill="rgb(147, 187, 19)" fill-opacity = "9.97273445296915640000e-01" />
<circle cx=" 201" cy="861" r="247" fill="rgb(254, 74, 102)" fill-opacity = "1.98947961628286760000e-01" />
<circle cx=" 330" cy="178" r="252" fill="rgb(60, 85, 150)" fill-opacity = "6.07058353709520880000e-01" />
<circle cx=" 718" cy="624" r="394" fill="rgb(127, 11, 70)" fill-opacity = "7.86928224316558070000e-01" />
<circle cx=" 812" cy="234" r="220" fill="rgb(191, 81, 89)" fill-opacity = "4.01669031639390940000e-01" />
<circle cx=" 122" cy="1021" r="254" fill="rgb(18, 233, 147)" fill-opacity = "5.28752092568329780000e-02" />
<circle cx=" 962" cy="211" r="203" fill="rgb(229, 86, 169)" fill-opacity = "6.49114207166736620000e-01" />
<circle cx=" 769" cy="844" r="179" fill="rgb(126, 47, 69)" fill-opacity = "4.96138207830059570000e-01" />
<circle cx=" 854" cy="402" r="53" fill="rgb(67, 138, 94)" fill-opacity = "1.50372068988821270000e-01" />
<circle cx=" 92" cy="288" r="131" fill="rgb(151, 35, 138)" fill-opacity = "3.86878903475876390000e-01" />
<circle cx=" 232" cy="372" r="393" fill="rgb(191, 47, 69)" fill-opacity = "7.59043338017246330000e-01" />
<circle cx=" 879" cy="580" r="158" fill="rgb(164, 113, 60)" fill-opacity = "3.68875761789198010000e-01" />
<circle cx=" 186" cy="633" r="82" fill="rgb(165, 51, 181)" fill-opacity = "4.72382097051633700000e-01" />
<circle cx=" 257" cy="533" r="172" fill="rgb(229, 249, 158)" fill-opacity = "3.21484439586286810000e-01" />
<circle cx=" 589" cy="111" r="345" fill="rgb(246, 216, 22)" fill-opacity = "8.99381835150410150000e-01" />
<circle cx=" 381" cy="211" r="309" fill="rgb(81, 124, 143)" fill-opacity = "3.84396581934393740000e-01" />
<circle cx=" 432" cy="991" r="171" fill="rgb(184, 25, 188)" fill-opacity = "8.07372482269307360000e-01" />
<circle cx=" 546" cy="392" r="374" fill="rgb(43, 132, 148)" fill-opacity = "3.39100741514404280000e-01" />
<circle cx=" 926" cy="962" r="330" fill="rgb(42, 164, 158)" fill-opacity = "9.54006774760426610000e-01" />
<circle cx=" 536" cy="212" r="340" fill="rgb(117, 124, 197)" fill-opacity = "6.27205004905110550000e-01" />
<circle cx=" 838" cy="989" r="49" fill="rgb(159, 77, 102)" fill-opacity = "4.19057294608886630000e-01" />
<circle cx=" 456" cy="179" r="353" fill="rgb(147, 218, 247)" fill-opacity = "7.58837551483646510000e-02" />
<circle cx=" 941" cy="397" r="118" fill="rgb(104, 234, 3)" fill-opacity = "6.54620423309942630000e-01" />
<circle cx=" 433" cy="404" r="23" fill="rgb(96, 140, 196)" fill-opacity = "7.38339343941879280000e-01" />
<circle cx=" 187" cy="333" r="6" fill="rgb(137, 64, 171)" fill-opacity = "8.85005770806573280000e-01" />
<circle cx=" 739" cy="664" r="329" fill="rgb(47, 158, 41)" fill-opacity = "4.96212826684480080000e-01" />
<circle cx=" 92" cy="515" r="32" fill="rgb(142, 97, 150)" fill-opacity = "3.54479002431164370000e-01" />
<circle cx=" 987" cy="550" r="83" fill="rgb(207, 171, 112)" fill-opacity = "8.70907982192823170000e-01" />
<circle cx=" 356" cy="186" r="312" fill="rgb(18, 124, 137)" fill-opacity = "3.00869267531131970000e-01" />
<circle cx=" 470" cy="691" r="340" fill="rgb(97, 50, 17)" fill-opacity = "8.55454773002659600000e-01" />
<circle cx=" 292" cy="628" r="397" fill="rgb(222, 110, 151)" fill-opacity = "3.42385733064190840000e-01" />
<circle cx=" 318" cy="178" r="377" fill="rgb(237, 53, 252)" fill-opacity = "6.55802448444034790000e-01" />
<circle cx=" 555" cy="394" r="85" fill="rgb(105, 96, 72)" fill-opacity = "8.33319967629119860000e-01" />
<circle cx=" 472" cy="933" r="218" fill="rgb(80, 169, 98)" fill-opacity = "4.22950905568552750000e-01" />
<circle cx=" 880" cy="683" r="363" fill="rgb(75, 138, 203)" fill-opacity = "1.90020535657396070000e-01" />
<circle cx=" 736" cy="237" r="288" fill="rgb(236, 44, 139)" fill-opacity = "5.66547307707532700000e-01" />
<circle cx=" 26" cy="113" r="216" fill="rgb(21, 84, 58)" fill-opacity = "3.97778687923697530000e-01" />
<circle cx=" 140" cy="188" r="389" fill="rgb(66, 123, 188)" fill-opacity = "9.58881535726395560000e-01" />
<circle cx=" 1005" cy="800" r="110" fill="rgb(146, 92, 209)" fill-opacity = "4.46429973686889970000e-01" />
<circle cx=" 170" cy="11" r="282" fill="rgb(7, 61, 123)" fill-opacity = "2.41892248222756350000e-01" />
<circle cx=" 344" cy="314" r="279" fill="rgb(96, 197, 44)" fill-opacity = "5.64546306849833530000e-01" />
<circle cx=" 967" cy="179" r="213" fill="rgb(150, 168, 225)" fill-opacity = "6.76184338923788260000e-01" />
<circle cx=" 369" cy="159" r="68" fill="rgb(210, 114, 101)" fill-opacity = "1.92611797656860870000e-03" />
<circle cx=" 342" cy="234" r="188" fill="rgb(117, 218, 54)" fill-opacity = "3.87227044224396360000e-01" />
<circle cx=" 916" cy="422" r="176" fill="rgb(34, 216, 79)" fill-opacity = "7.88508694705956080000e-01" />
<circle cx=" 802" cy="411" r="361" fill="rgb(217, 166, 107)" fill-opacity = "2.12425116652478870000e-01" />
<circle cx=" 418" cy="557" r="395" fill="rgb(204, 164, 246)" fill-opacity = "9.10801777835078760000e-01" />
<circle cx=" 171" cy="252" r="264" fill="rgb(226, 194, 217)" fill-opacity = "8.99569580673925450000e-01" />
<circle cx=" 864" cy="200" r="156" fill="rgb(239, 197, 16)" fill-opacity = "9.91581657125895080000e-03" />
<circle cx=" 479" cy="271" r="78" fill="rgb(51, 133, 167)" fill-opacity = "8.69258979365991720000e-01" />
<circle cx=" 894" cy="450" r="290" fill="rgb(151, 177, 189)" fill-opacity = "7.58555784165037220000e-01" />
<circle cx=" 597" cy="207" r="211" fill="rgb(66, 242, 93)" fill-opacity = "6.08522917750344840000e-01" />
<circle cx=" 774" cy="370" r="296" fill="rgb(157, 177, 106)" fill-opacity = "3.14883463997600370000e-01" />
<circle cx=" 359" cy="474" r="394" fill="rgb(205, 48, 116)" fill-opacity = "8.54801151813922470000e-01" />
<circle cx=" 673" cy="568" r="102" fill="rgb(45, 179, 157)" fill-opacity = "4.42060574937392700000e-01" />
<circle cx=" 713" cy="28" r="323" fill="rgb(256, 242, 237)" fill-opacity = "8.62167306241934160000e-01" />
<circle cx=" 37" cy="790" r="251" fill="rgb(163, 189, 240)" fill-opacity = "9.12972971787122670000e-02" />
<circle cx=" 862" cy="219" r="200" fill="rgb(16, 150, 64)" fill-opacity = "8.22222452732207510000e-01" />
<circle cx=" 480" cy="553" r="150" fill="rgb(213, 42, 208)" fill-opacity = "3.32806856968985930000e-01" />
<circle cx=" 214" cy="883" r="341" fill="rgb(19, 181, 114)" fill-opacity = "7.45911225592278070000e-01" />
<circle cx=" 648" cy="941" r="9" fill="rgb(143, 185, 211)" fill-opacity = "7.19314607836979540000e-01" />
<circle cx=" 646" cy="170" r="45" fill="rgb(231, 165, 129)" fill-opacity = "9.37380659207372350000e-01" />
<circle cx=" 841" cy="745" r="185" fill="rgb(69, 162, 24)" fill-opacity = "9.25394130617565920000e-01" />
<circle cx=" 950" cy="431" r="83" fill="rgb(65, 52, 50)" fill-opacity = "3.05298599684342920000e-01" />
<circle cx=" 596" cy="717" r="111" fill="rgb(22, 225, 200)" fill-opacity = "8.76743081146897700000e-01" />
<circle cx=" 377" cy="964" r="71" fill="rgb(110, 180, 29)" fill-opacity = "4.72355447750566930000e-01" />
<circle cx=" 528" cy="300" r="185" fill="rgb(112, 54, 155)" fill-opacity = "6.84908487689125820000e-01" />
<circle cx=" 417" cy="160" r="190" fill="rgb(99, 132, 132)" fill-opacity = "3.14307348996213820000e-01" />
<circle cx=" 664" cy="821" r="329" fill="rgb(220, 135, 16)" fill-opacity = "7.54500477587418230000e-01" />
<circle cx=" 411" cy="202" r="362" fill="rgb(90, 136, 84)" fill-opacity = "5.62304934994287460000e-01" />
<circle cx=" 258" cy="505" r="37" fill="rgb(6, 192, 199)" fill-opacity = "3.12482063768504400000e-01" />
<circle cx=" 51" cy="897" r="56" fill="rgb(196, 143, 101)" fill-opacity = "7.86243709114090810000e-01" />
<circle cx=" 730" cy="878" r="13" fill="rgb(200, 229, 84)" fill-opacity = "9.94091020447965930000e-01" />
<circle cx=" 787" cy="13" r="371" fill="rgb(250, 131, 26)" fill-opacity = "8.28077218602295110000e-01" />
<circle cx=" 205" cy="661" r="80" fill="rgb(174, 215, 33)" fill-opacity = "6.78432569427283690000e-01" />
<circle cx=" 610" cy="373" r="139" fill="rgb(74, 163, 75)" fill-opacity = "2.93785367152350490000e-01" />
<circle cx=" 271" cy="931" r="214" fill="rgb(93, 188, 69)" fill-opacity = "8.36411206081606910000e-01" />
<circle cx=" 776" cy="510" r="380" fill="rgb(22, 59, 34)" fill-opacity = "7.18883225232114450000e-01" />
<circle cx=" 977" cy="549" r="78" fill="rgb(174, 60, 57)" fill-opacity = "3.02881270180148650000e-02" />
<circle cx=" 281" cy="514" r="147" fill="rgb(200, 139, 160)" fill-opacity = "6.20701160361255220000e-01" />
</svg>
