<svg height="1024" width="1024">
<circle cx=" 859" cy="158" r="371" fill="rgb(19, 33, 5)" fill-opacity = "9.27722561749792620000e-01" />
<circle cx=" 342" cy="174" r="157" fill="rgb(154, 43, 188)" fill-opacity = "1.78813206855494840000e-01" />
<circle cx=" 594" cy="750" r="51" fill="rgb(186, 81, 118)" fill-opacity = "7.29018404827145970000e-01" />
<circle cx=" 157" cy="2" r="211" fill="rgb(113, 218, 168)" fill-opacity = "2.91099290878501280000e-01" />
<circle cx=" 965" cy="881" r="132" fill="rgb(218, 207, 235)" fill-opacity = "2.10454944688263090000e-01" />
<circle cx=" 582" cy="629" r="197" fill="rgb(113, 171, 74)" fill-opacity = "2.61995462037470260000e-01" />
<circle cx=" 211" cy="798" r="389" fill="rgb(255, 63, 244)" fill-opacity = "3.48312474184986340000e-03" />
<circle cx=" 958" cy="390" r="321" fill="rgb(85, 83, 36)" fill-opacity = "7.35210892949967440000e-01" />
<circle cx=" 972" cy="552" r="359" fill="rgb(202, 100, 174)" fill-opacity = "2.49234319895289770000e-01" />
<circle cx=" 972" cy="335" r="233" fill="rgb(79, 235, 180)" fill-opacity = "1.94156880325031090000e-01" />
<circle cx=" 599" cy="985" r="102" fill="rgb(77, 225, 44)" fill-opacity = "6.53430198817394730000e-01" />
<circle cx=" 138" cy="460" r="189" fill="rgb(39, 35, 104)" fill-opacity = "2.16242875387947730000e-01" />
<circle cx=" 638" cy="457" r="355" fill="rgb(68, 44, 8)" fill-opacity = "6.44233442199486860000e-01" />
<circle cx=" 629" cy="507" r="179" fill="rgb(30, 100, 234)" fill-opacity = "3.67918598131855570000e-01" />
<circle cx=" 85" cy="555" r="221" fill="rgb(83, 189, 161)" fill-opacity = "5.17823889637192390000e-01" />
<circle cx=" 746" cy="248" r="153" fill="rgb(230, 86, 34)" fill-opacity = "4.49603625358262700000e-01" />
<circle cx=" 41" cy="806" r="178" fill="rgb(98, 147, 18)" fill-opacity = "5.36266735882267920000e-01" />
<circle cx=" 733" cy="157" r="183" fill="rgb(205, 229, 56)" fill-opacity = "1.88779355952406470000e-02" />
<circle cx=" 13" cy="340" r="344" fill="rgb(83, 225, 138)" fill-opacity = "3.96493440170112340000e-01" />
<circle cx=" 883" cy="645" r="345" fill="rgb(201, 6, 136)" fill-opacity = "6.17157031578696720000e-01" />
<circle cx=" 90" cy="656" r="259" fill="rgb(114, 191, 43)" fill-opacity = "8.68752914060096250000e-01" />
<circle cx=" 738" cy="27" r="399" fill="rgb(235, 254, 112)" fill-opacity = "2.35070942589213020000e-01" />
<circle cx=" 817" cy="626" r="205" fill="rgb(210, 37, 190)" fill-opacity = "1.48418071572109960000e-01" />
<circle cx=" 891" cy="638" r="222" fill="rgb(248, 202, 16)" fill-opacity = "8.77540373412674770000e-01" />
<circle cx=" 370" cy="637" r="320" fill="rgb(105, 55, 70)" fill-opacity = "2.83346065961218590000e-01" />
<circle cx=" 361" cy="92" r="190" fill="rgb(115, 104, 144)" fill-opacity = "6.19059734398021750000e-01" />
<circle cx=" 213" cy="116" r="286" fill="rgb(90, 1, 188)" fill-opacity = "8.88896602762025760000e-01" />
<circle cx=" 455" cy="410" r="84" fill="rgb(204, 160, 84)" fill-opacity = "7.08580221992218820000e-02" />
<circle cx=" 467" cy="811" r="283" fill="rgb(142, 237, 196)" fill-opacity = "5.57265000291033990000e-01" />
<circle cx=" 736" cy="881" r="38" fill="rgb(170, 70, 17)" fill-opacity = "7.10971843793407390000e-01" />
<circle cx=" 291" cy="634" r="263" fill="rgb(166, 107, 19)" fill-opacity = "6.10620287813690150000e-01" />
<circle cx=" 338" cy="438" r="101" fill="rgb(159, 69, 181)" fill-opacity = "2.07241933965418570000e-01" />
<circle cx=" 183" cy="45" r="76" fill="rgb(223, 226, 208)" fill-opacity = "5.00145503933902000000e-02" />
<circle cx=" 677" cy="317" r="136" fill="rgb(125, 69, 196)" fill-opacity = "4.63844623105448050000e-01" />
<circle cx=" 911" cy="956" r="329" fill="rgb(5, 40, 22)" fill-opacity = "1.27849309830722070000e-01" />
<circle cx=" 999" cy="387" r="258" fill="rgb(82, 231, 66)" fill-opacity = "6.80918116256014280000e-01" />
<circle cx=" 95" cy="216" r="340" fill="rgb(79, 134, 138)" fill-opacity = "5.09487120853758140000e-01" />
<circle cx=" 953" cy="164" r="200" fill="rgb(27, 86, 113)" fill-opacity = "7.44315060917368540000e-01" />
<circle cx=" 206" cy="213" r="175" fill="rgb(247, 78, 27)" fill-opacity = "4.18225536207835090000e-01" />
<circle cx=" 634" cy="197" r="229" fill="rgb(118, 252, 4)" fill-opacity = "9.62229861027700470000e-01" />
<circle cx=" 54" cy="969" r="123" fill="rgb(117, 184, 20)" fill-opacity = "2.99777751677698710000e-01" />
<circle cx=" 847" cy="695" r="105" fill="rgb(28, 7, 182)" fill-opacity = "5.45674278913992340000e-01" />
<circle cx=" 194" cy="874" r="373" fill="rgb(197, 227, 66)" fill-opacity = "8.68851156700666480000e-01" />
<circle cx=" 969" cy="759" r="148" fill="rgb(129, 123, 218)" fill-opacity = "6.64315614877389660000e-01" />
<circle cx=" 403" cy="627" r="67" fill="rgb(226, 195, 29)" fill-opacity = "1.31732403820153720000e-01" />
<circle cx=" 265" cy="200" r="107" fill="rgb(140, 209, 226)" fill-opacity = "7.73474567520090690000e-01" />
<circle cx=" 817" cy="191" r="74" fill="rgb(174, 97, 101)" fill-opacity = "1.77888834711570580000e-01" />
<circle cx=" 998" cy="319" r="48" fill="rgb(148, 7, 14)" fill-opacity = "9.98389522781554910000e-01" />
<circle cx=" 889" cy="224" r="354" fill="rgb(120, 100, 215)" fill-opacity = "2.39321093538764180000e-01" />
<circle cx=" 599" cy="646" r="230" fill="rgb(96, 179, 212)" fill-opacity = "1.07669724804368980000e-01" />
<circle cx=" 713" cy="240" r="140" fill="rgb(96, 220, 212)" fill-opacity = "1.90497897571749510000e-01" />
<circle cx=" 51" cy="330" r="373" fill="rgb(251, 39, 34)" fill-opacity = "9.94528285945346590000e-01" />
<circle cx=" 598" cy="716" r="398" fill="rgb(26, 254, 137)" fill-opacity = "7.47228891405544720000e-02" />
<circle cx=" 396" cy="891" r="258" fill="rgb(16, 83, 242)" fill-opacity = "9.01185416114662190000e-01" />
<circle cx=" 378" cy="529" r="317" fill="rgb(68, 241, 76)" fill-opacity = "8.91996932662209590000e-01" />
<circle cx=" 355" cy="761" r="236" fill="rgb(105, 138, 46)" fill-opacity = "7.85940391513560770000e-01" />
<circle cx=" 2" cy="866" r="101" fill="rgb(214, 122, 54)" fill-opacity = "8.73128051159808740000e-01" />
<circle cx=" 480" cy="717" r="299" fill="rgb(79, 81, 254)" fill-opacity = "2.70662500231788840000e-01" />
<circle cx=" 729" cy="376" r="45" fill="rgb(149, 174, 114)" fill-opacity = "9.96752431594553290000e-01" />
<circle cx=" 629" cy="248" r="153" fill="rgb(78, 54, 200)" fill-opacity = "2.26294958717782490000e-01" />
<circle cx=" 523" cy="771" r="60" fill="rgb(246, 119, 242)" fill-opacity = "3.71026270572543120000e-01" />
<circle cx=" 194" cy="401" r="201" fill="rgb(87, 192, 138)" fill-opacity = "1.27915158755413930000e-01" />
<circle cx=" 448" cy="791" r="108" fill="rgb(141, 109, 77)" fill-opacity = "1.73216371119500060000e-01" />
<circle cx=" 170" cy="754" r="327" fill="rgb(40, 18, 203)" fill-opacity = "9.16342413852948460000e-01" />
<circle cx=" 951" cy="814" r="234" fill="rgb(96, 177, 104)" fill-opacity = "7.79864537440824180000e-02" />
<circle cx=" 823" cy="773" r="157" fill="rgb(59, 224, 22)" fill-opacity = "3.00700376600941510000e-01" />
<circle cx=" 648" cy="906" r="248" fill="rgb(41, 91, 142)" fill-opacity = "6.56670765579009610000e-01" />
<circle cx=" 37" cy="759" r="153" fill="rgb(61, 131, 210)" fill-opacity = "7.42501276191994240000e-01" />
<circle cx=" 25" cy="645" r="377" fill="rgb(10, 41, 168)" fill-opacity = "4.67487020243003930000e-01" />
<circle cx=" 447" cy="465" r="221" fill="rgb(205, 118, 144)" fill-opacity = "2.35733640626182960000e-01" />
<circle cx=" 728" cy="612" r="280" fill="rgb(136, 154, 89)" fill-opacity = "2.45344779548539500000e-01" />
<circle cx=" 533" cy="588" r="318" fill="rgb(23, 68, 45)" fill-opacity = "2.91104660583838100000e-01" />
<circle cx=" 897" cy="462" r="192" fill="rgb(93, 169, 28)" fill-opacity = "9.09982631496871750000e-01" />
<circle cx=" 427" cy="109" r="300" fill="rgb(169, 210, 43)" fill-opacity = "1.75009211793873300000e-01" />
<circle cx=" 405" cy="432" r="58" fill="rgb(215, 232, 1)" fill-opacity = "9.02390528888357360000e-01" />
<circle cx=" 379" cy="584" r="67" fill="rgb(125, 3, 159)" fill-opacity = "2.61900179056053340000e-01" />
<circle cx=" 480" cy="1005" r="208" fill="rgb(222, 226, 57)" fill-opacity = "3.78615875506526760000e-01" />
<circle cx=" 871" cy="126" r="355" fill="rgb(25, 153, 145)" fill-opacity = "3.93937297740017290000e-01" />
<circle cx=" 644" cy="959" r="29" fill="rgb(63, 22, 96)" fill-opacity = "8.28955156384405530000e-01" />
<circle cx=" 582" cy="729" r="188" fill="rgb(136, 53, 138)" fill-opacity = "1.59700839161631690000e-01" />
<circle cx=" 279" cy="380" r="96" fill="rgb(123, 87, 163)" fill-opacity = "7.61655469645391660000e-01" />
<circle cx=" 41" cy="373" r="250" fill="rgb(21, 100, 229)" fill-opacity = "4.50267432408827160000e-01" />
<circle cx=" 913" cy="654" r="338" fill="rgb(8, 30, 22)" fill-opacity = "8.27097488129066470000e-01" />
<circle cx=" 937" cy="256" r="359" fill="rgb(15, 129, 132)" fill-opacity = "7.55210222040751500000e-01" />
<circle cx=" 651" cy="318" r="200" fill="rgb(131, 52, 128)" fill-opacity = "6.45997053053684930000e-01" />
<circle cx=" 834" cy="922" r="126" fill="rgb(112, 28, 153)" fill-opacity = "4.14858415627401780000e-01" />
<circle cx=" 397" cy="416" r="38" fill="rgb(231, 162, 233)" fill-opacity = "5.53242490954371830000e-01" />
<circle cx=" 417" cy="39" r="132" fill="rgb(137, 173, 125)" fill-opacity = "5.67320197769662920000e-01" />
<circle cx=" 259" cy="366" r="384" fill="rgb(119, 206, 219)" fill-opacity = "1.11681298611774780000e-01" />
<circle cx=" 936" cy="22" r="341" fill="rgb(129, 115, 145)" fill-opacity = "5.39952678256255590000e-01" />
<circle cx=" 188" cy="18" r="286" fill="rgb(183, 254, 28)" fill-opacity = "9.25917969575873250000e-01" />
<circle cx=" 583" cy="678" r="327" fill="rgb(61, 49, 77)" fill-opacity = "3.27567987964084710000e-01" />
<circle cx=" 725" cy="757" r="97" fill="rgb(139, 146, 41)" fill-opacity = "9.53117233535013760000e-01" />
<circle cx=" 334" cy="821" r="41" fill="rgb(250, 3, 158)" fill-opacity = "2.22230577537233300000e-01" />
<circle cx=" 215" cy="512" r="144" fill="rgb(81, 19, 75)" fill-opacity = "7.85940391513560770000e-01" />
<circle cx=" 1011" cy="545" r="206" fill="rgb(231, 67, 160)" fill-opacity = "4.81861995145679070000e-01" />
<circle cx=" 840" cy="184" r="227" fill="rgb(120, 116, 11)" fill-opacity = "4.99117787252147500000e-01" />
<circle cx=" 931" cy="68" r="263" fill="rgb(172, 67, 129)" fill-opacity = "7.00237523090929680000e-01" />
<circle cx=" 843" cy="633" r="45" fill="rgb(169, 83, 34)" fill-opacity = "5.33247261309398590000e-01" />
<circle cx=" 360" cy="812" r="64" fill="rgb(41, 244, 49)" fill-opacity = "7.28770479061933820000e-01" />
<circle cx=" 453" cy="26" r="114" fill="rgb(231, 210, 203)" fill-opacity = "8.69360814219750640000e-01" />
<circle cx=" 779" cy="959" r="277" fill="rgb(76, 3, 25)" fill-opacity = "4.78044848916567180000e-01" />
<circle cx=" 618" cy="624" r="223" fill="rgb(224, 45, 137)" fill-opacity = "5.77151132826322360000e-01" />
<circle cx=" 3" cy="500" r="97" fill="rgb(102, 92, 237)" fill-opacity = "9.30881997577671210000e-01" />
<circle cx=" 522" cy="710" r="387" fill="rgb(78, 228, 103)" fill-opacity = "9.50986757734297860000e-01" />
<circle cx=" 880" cy="912" r="358" fill="rgb(19, 47, 8)" fill-opacity = "8.28567312708935690000e-01" />
<circle cx=" 112" cy="299" r="64" fill="rgb(26, 231, 171)" fill-opacity = "1.29126335585350920000e-01" />
<circle cx=" 708" cy="939" r="334" fill="rgb(87, 174, 5)" fill-opacity = "9.31676421102730410000e-01" />
<circle cx=" 232" cy="339" r="237" fill="rgb(119, 118, 23)" fill-opacity = "2.45576425495461770000e-02" />
<circle cx=" 635" cy="781" r="88" fill="rgb(231, 129, 171)" fill-opacity = "9.26126600954818360000e-01" />
<circle cx=" 922" cy="713" r="56" fill="rgb(130, 79, 1)" fill-opacity = "7.67308438692434260000e-01" />
<circle cx=" 100" cy="991" r="52" fill="rgb(229, 238, 172)" fill-opacity = "7.38255080664589560000e-01" />
<circle cx=" 131" cy="625" r="77" fill="rgb(201, 55, 248)" fill-opacity = "2.65653370739069140000e-01" />
<circle cx=" 183" cy="376" r="367" fill="rgb(155, 101, 148)" fill-opacity = "3.28585537459407110000e-02" />
<circle cx=" 734" cy="185" r="256" fill="rgb(158, 92, 4)" fill-opacity = "4.29215064799240760000e-01" />
<circle cx=" 493" cy="154" r="274" fill="rgb(155, 6, 110)" fill-opacity = "7.10459692298297530000e-01" />
<circle cx=" 472" cy="871" r="169" fill="rgb(91, 31, 232)" fill-opacity = "2.74458024898333490000e-01" />
<circle cx=" 331" cy="253" r="1" fill="rgb(89, 215, 17)" fill-opacity = "8.66618867616238630000e-01" />
<circle cx=" 681" cy="771" r="13" fill="rgb(245, 45, 137)" fill-opacity = "8.85737586124973000000e-01" />
<circle cx=" 125" cy="129" r="252" fill="rgb(204, 177, 90)" fill-opacity = "4.68664110403121730000e-01" />
<circle cx=" 428" cy="149" r="38" fill="rgb(137, 227, 59)" fill-opacity = "3.12890298029170790000e-01" />
<circle cx=" 694" cy="1" r="48" fill="rgb(236, 206, 6)" fill-opacity = "3.29484582569533830000e-01" />
<circle cx=" 583" cy="7" r="259" fill="rgb(101, 66, 110)" fill-opacity = "4.16249317781788090000e-01" />
<circle cx=" 161" cy="56" r="257" fill="rgb(58, 94, 142)" fill-opacity = "3.81500012514282450000e-01" />
<circle cx=" 47" cy="734" r="141" fill="rgb(3, 116, 153)" fill-opacity = "9.60681725851749050000e-01" />
<circle cx=" 585" cy="198" r="202" fill="rgb(83, 252, 156)" fill-opacity = "1.22287336101358330000e-01" />
<circle cx=" 382" cy="695" r="267" fill="rgb(46, 59, 8)" fill-opacity = "6.33647044264234130000e-01" />
<circle cx=" 1" cy="245" r="293" fill="rgb(3, 193, 175)" fill-opacity = "4.80365450923586850000e-01" />
<circle cx=" 626" cy="679" r="221" fill="rgb(237, 150, 112)" fill-opacity = "7.47158828934818330000e-01" />
<circle cx=" 642" cy="47" r="75" fill="rgb(166, 128, 65)" fill-opacity = "8.73203671298306010000e-01" />
<circle cx=" 721" cy="242" r="217" fill="rgb(45, 68, 53)" fill-opacity = "8.97255782999942460000e-01" />
<circle cx=" 616" cy="970" r="383" fill="rgb(180, 130, 188)" fill-opacity = "2.20034317406785810000e-01" />
<circle cx=" 747" cy="704" r="97" fill="rgb(248, 148, 13)" fill-opacity = "4.49856000080810500000e-02" />
<circle cx=" 912" cy="845" r="265" fill="rgb(54, 8, 8)" fill-opacity = "8.54251959451427290000e-01" />
<circle cx=" 706" cy="804" r="91" fill="rgb(71, 148, 34)" fill-opacity = "1.61870690295408350000e-01" />
<circle cx=" 331" cy="700" r="169" fill="rgb(1, 147, 2)" fill-opacity = "7.45475443826450590000e-01" />
<circle cx=" 128" cy="609" r="152" fill="rgb(191, 89, 125)" fill-opacity = "6.78458929576884140000e-01" />
<circle cx=" 16" cy="192" r="224" fill="rgb(122, 55, 76)" fill-opacity = "7.42703066454310610000e-01" />
<circle cx=" 556" cy="850" r="303" fill="rgb(165, 247, 41)" fill-opacity = "2.78571629888454190000e-01" />
<circle cx=" 656" cy="856" r="135" fill="rgb(182, 139, 45)" fill-opacity = "7.11846059659272610000e-01" />
<circle cx=" 257" cy="310" r="257" fill="rgb(171, 35, 186)" fill-opacity = "1.43262078601678720000e-01" />
<circle cx=" 292" cy="334" r="343" fill="rgb(194, 63, 109)" fill-opacity = "5.31672401885222580000e-01" />
<circle cx=" 84" cy="194" r="23" fill="rgb(46, 171, 186)" fill-opacity = "2.15960720731195320000e-01" />
<circle cx=" 958" cy="135" r="63" fill="rgb(167, 155, 142)" fill-opacity = "3.48312474184986340000e-03" />
<circle cx=" 889" cy="159" r="72" fill="rgb(113, 41, 2)" fill-opacity = "9.65080590828335530000e-01" />
<circle cx=" 587" cy="335" r="238" fill="rgb(11, 95, 65)" fill-opacity = "2.10454944688263090000e-01" />
<circle cx=" 222" cy="880" r="391" fill="rgb(78, 59, 59)" fill-opacity = "6.75486936471363380000e-01" />
<circle cx=" 430" cy="999" r="174" fill="rgb(22, 26, 135)" fill-opacity = "3.38037802699579840000e-01" />
<circle cx=" 426" cy="838" r="350" fill="rgb(158, 68, 15)" fill-opacity = "7.04453641924239540000e-01" />
<circle cx=" 924" cy="187" r="316" fill="rgb(55, 30, 11)" fill-opacity = "8.74540871300495400000e-02" />
</svg>
